<svg xmlns="http://www.w3.org/2000/svg" xmlns:xlink="http://www.w3.org/1999/xlink" width="107" height="107" viewBox="0 0 107 107">
  <defs>
    <clipPath id="clip-path">
      <rect id="Rectángulo_404919" data-name="Rectángulo 404919" width="107" height="107" fill="none"/>
    </clipPath>
    <clipPath id="clip-path-2">
      <rect id="Rectángulo_404925" data-name="Rectángulo 404925" width="62" height="62" transform="translate(-1.29 -0.057)" fill="#fff" stroke="#707070" stroke-width="1"/>
    </clipPath>
    <clipPath id="clip-path-3">
      <rect id="Rectángulo_407093" data-name="Rectángulo 407093" width="39.053" height="57.51" fill="#fff"/>
    </clipPath>
  </defs>
  <g id="Grupo_1114067" data-name="Grupo 1114067" transform="translate(-179.664 -3667.001)">
    <g id="Grupo_1110094" data-name="Grupo 1110094" transform="translate(179.664 3667.001)">
      <g id="Grupo_1110058" data-name="Grupo 1110058" clip-path="url(#clip-path)">
        <path id="Trazado_883529" data-name="Trazado 883529" d="M4.795,27.08l11.9,65.89c1.748,9.68,11.371,16.171,21.493,14.5a19,19,0,0,0,8.738-3.86l53.726-42.8a17.253,17.253,0,0,0,2.385-25.046,18.613,18.613,0,0,0-7.864-5.306L29.546,7.367C19.907,3.974,9.216,8.7,5.669,17.913a17.046,17.046,0,0,0-.874,9.167" transform="translate(-0.344 -0.731)" fill="#023263"/>
        <path id="Trazado_883530" data-name="Trazado 883530" d="M105.433,75.694h0A18.367,18.367,0,0,1,100.1,82.78a19.194,19.194,0,0,1-8.758,3.97L22.649,99.279c-10.315,1.913-20.3-4.531-22.3-14.394a17.434,17.434,0,0,1,.731-9.5l23-63.145c.107-.3.223-.59.345-.877A18.75,18.75,0,0,1,38.978.249a20.011,20.011,0,0,1,9.328.729,18.957,18.957,0,0,1,8.2,5.346L102.2,56.941a17.458,17.458,0,0,1,3.235,18.753m-80.152-64c-.115.275-.227.557-.329.837l-23,63.144C-1.341,84.72,3.659,94.605,13.118,97.755a18.938,18.938,0,0,0,9.358.657l68.69-12.528C101,84.09,107.46,75.009,105.584,65.6a17.044,17.044,0,0,0-4.086-8.082L55.809,6.9A18.72,18.72,0,0,0,30.227,5.107a17.386,17.386,0,0,0-4.946,6.585" transform="translate(0 0)" fill="#41c9a5"/>
      </g>
    </g>
    <g id="Enmascarar_grupo_1108078" data-name="Enmascarar grupo 1108078" transform="translate(198.665 3689)" clip-path="url(#clip-path-2)">
      <g id="Grupo_1114071" data-name="Grupo 1114071" transform="translate(9.691 2.443)">
        <g id="Grupo_1114070" data-name="Grupo 1114070" clip-path="url(#clip-path-3)">
          <path id="Trazado_888208" data-name="Trazado 888208" d="M19.353,2.707q7.591,0,11.927,3.813t4.336,10.6a10.775,10.775,0,0,1-2.177,6.425,13.647,13.647,0,0,1-5.624,4.545,12.445,12.445,0,0,1,6.355,4.492A12.3,12.3,0,0,1,36.347,39.9a13.618,13.618,0,0,1-4.684,10.865q-4.684,4.04-12.31,4.04-7.313,0-11.98-3.9A12.843,12.843,0,0,1,2.707,40.526h8.462a7.079,7.079,0,0,0,2.246,5.433,8.517,8.517,0,0,0,6.042,2.089,8.787,8.787,0,0,0,6.2-2.089A7.838,7.838,0,0,0,27.919,39.9a7.921,7.921,0,0,0-2.368-6.164q-2.369-2.158-7.034-2.159h-4.98V24.89h5.154a9.221,9.221,0,0,0,6.181-2.02,7.206,7.206,0,0,0,2.281-5.746,7.854,7.854,0,0,0-1.9-5.624q-1.9-2-5.8-2a8.081,8.081,0,0,0-5.607,1.968A6.575,6.575,0,0,0,11.656,16.6H3.194A12.809,12.809,0,0,1,5.266,9.5a13.922,13.922,0,0,1,5.781-5,18.834,18.834,0,0,1,8.306-1.793m0-2.707A21.6,21.6,0,0,0,9.869,2.063,16.653,16.653,0,0,0,2.993,8.028,15.531,15.531,0,0,0,.488,16.6a2.707,2.707,0,0,0,2.707,2.707h8.462A2.707,2.707,0,0,0,14.363,16.6a3.9,3.9,0,0,1,1.295-3.122,5.432,5.432,0,0,1,3.8-1.276c1.815,0,3.106.39,3.834,1.158a5.261,5.261,0,0,1,1.155,3.762,4.62,4.62,0,0,1-1.351,3.7,6.581,6.581,0,0,1-4.416,1.355H13.537A2.707,2.707,0,0,0,10.83,24.89v6.686a2.707,2.707,0,0,0,2.707,2.707h4.98c2.4,0,4.153.489,5.211,1.453A5.321,5.321,0,0,1,25.213,39.9a5.253,5.253,0,0,1-1.393,4.071,6.166,6.166,0,0,1-4.363,1.372,5.888,5.888,0,0,1-4.2-1.365,4.393,4.393,0,0,1-1.383-3.451,2.707,2.707,0,0,0-2.707-2.707H2.707A2.707,2.707,0,0,0,0,40.526,15.492,15.492,0,0,0,5.638,52.98c3.6,3.006,8.21,4.53,13.715,4.53,5.728,0,10.465-1.58,14.078-4.7A16.272,16.272,0,0,0,39.053,39.9a15.007,15.007,0,0,0-2.676-8.88A13.814,13.814,0,0,0,33.2,27.826a16.461,16.461,0,0,0,2.432-2.692,13.475,13.475,0,0,0,2.689-8.01c0-5.318-1.768-9.57-5.255-12.636C29.682,1.51,25.067,0,19.353,0" fill="#fff"/>
        </g>
      </g>
    </g>
  </g>
</svg>
