<svg xmlns="http://www.w3.org/2000/svg" xmlns:xlink="http://www.w3.org/1999/xlink" width="70" height="70" viewBox="0 0 70 70">
  <defs>
    <clipPath id="clip-path">
      <circle id="Elipse_11719" data-name="Elipse 11719" cx="31" cy="31" r="31" transform="translate(587.711 3554.337)" fill="#023263" stroke="#707070" stroke-width="1"/>
    </clipPath>
    <clipPath id="clip-path-2">
      <rect id="Rectángulo_407347" data-name="Rectángulo 407347" width="48.995" height="57.079" fill="none"/>
    </clipPath>
  </defs>
  <g id="Grupo_1113906" data-name="Grupo 1113906" transform="translate(-585 -3551.479)">
    <circle id="Elipse_3951" data-name="Elipse 3951" cx="31" cy="31" r="31" transform="translate(588.711 3555.337)" fill="#41c9a5"/>
    <g id="Elipse_3952" data-name="Elipse 3952" transform="translate(585 3551.479)" fill="none" stroke="#d1d1d1" stroke-width="1">
      <circle cx="35" cy="35" r="35" stroke="none"/>
      <circle cx="35" cy="35" r="34.5" fill="none"/>
    </g>
    <g id="Enmascarar_grupo_1108145" data-name="Enmascarar grupo 1108145" transform="translate(1 1)" clip-path="url(#clip-path)">
      <g id="Grupo_1114359" data-name="Grupo 1114359" transform="translate(594.991 3560.242)">
        <g id="Grupo_1114358" data-name="Grupo 1114358" transform="translate(0 0)" clip-path="url(#clip-path-2)">
          <path id="Trazado_889375" data-name="Trazado 889375" d="M.5,67.107c.6-3.967,1.105-5.468,6.607-6.1,2.083-.242,7.75-.825,9.859-2.03s1.773-7.229,1.773-7.229H30.256s-.337,6.024,1.772,7.229S39.8,60.762,41.886,61c5.5.635,6.006,2.136,6.607,6.1a62,62,0,0,1,.5,7.428H0a61.8,61.8,0,0,1,.5-7.428" transform="translate(0 -17.456)" fill="#1d6350"/>
          <path id="Trazado_889376" data-name="Trazado 889376" d="M41.032,58.545h0c-3.812.091-10.238-.821-12.842-4.008a.052.052,0,0,1,0-.015c.048-.558.068-1.085.074-1.527v0c0-.146,0-.282,0-.408v-.015c0-.123,0-.233,0-.332v-.013c0-.1,0-.184-.006-.253v0c0-.07-.005-.125-.007-.162v-.012c0-.029,0-.048,0-.048H39.765s-.279,5,1.266,6.8" transform="translate(-9.51 -17.456)" fill="#1d6350"/>
          <path id="Trazado_889377" data-name="Trazado 889377" d="M16.367,19.247h.255c-.107-.881-.217-1.748-.325-2.568C15.742,12.426,15.137,0,29.329,0,42.182,0,42.918,12.426,42.364,16.678c-.107.82-.217,1.688-.326,2.568h.257c2.256-1.67,2.447,2.692,1.506,4.182a9.079,9.079,0,0,0-1.267,2.727c-.348,1-.924,1.134-1.406,1.026-.061.592-.113,1.111-.149,1.523C40.77,31,35.259,35.591,34.01,37.029c-1.171,1.345-3.122.821-3.747.792s-.934-.046-.934-.046-.3.016-.932.046-2.577.553-3.747-.792C23.4,35.591,17.891,31,17.683,28.706c-.036-.412-.087-.93-.15-1.523-.48.109-1.058-.023-1.4-1.026a9.129,9.129,0,0,0-1.268-2.727c-.942-1.49-.751-5.852,1.506-4.182" transform="translate(-4.833 0)" fill="#1d6350"/>
          <path id="Trazado_889378" data-name="Trazado 889378" d="M18.218,32.03q.072.568.142,1.147s.276,3.332.485,4.8c.061.592.1,1.112.15,1.523a7.171,7.171,0,0,0,1.447,3.85c1.779,2.2,4.058,4.688,4.918,5.678,1.17,1.345,3.723,1.424,4.349,1.394s.932-.045.932-.045.3.016.934.045,3.178-.05,4.349-1.394c.86-.991,3.139-3.477,4.918-5.678a7.176,7.176,0,0,0,1.448-3.85c.05-.412.089-.931.149-1.523.21-1.468.486-4.8.486-4.8q.072-.58.143-1.147c-.127-.494-1.464,4.91-1.464,4.91-1.963,6.016-6,4.386-7.974,3.625a4.508,4.508,0,0,0-5.976,0c-1.977.761-6.012,2.391-7.974-3.625,0,0-1.337-5.4-1.464-4.91M26.99,42.748c.9-1.4,3.653-1.509,3.653-1.509s2.749.113,3.653,1.509a1.439,1.439,0,0,1-.832,2,6.732,6.732,0,0,1-1.6.244,1.1,1.1,0,0,1-.616-.238c-.519-.5-.605-.42-.605-.42s-.084-.082-.6.42a1.106,1.106,0,0,1-.617.238,6.713,6.713,0,0,1-1.6-.244,1.439,1.439,0,0,1-.832-2" transform="translate(-6.146 -10.794)" fill="#174035"/>
          <path id="Trazado_889379" data-name="Trazado 889379" d="M18.5,63.721h0s2.231,4.943,9.368,4.943,9.368-4.943,9.368-4.943h0c2.6.736,18.244,3.183,19.868,3.372L44.305,78.576H11.441l-16-11.483c1.625-.189,20.466-2.636,23.062-3.372" transform="translate(-3.376 -21.496)" fill="#174035"/>
        </g>
      </g>
    </g>
  </g>
</svg>
