<svg xmlns="http://www.w3.org/2000/svg" xmlns:xlink="http://www.w3.org/1999/xlink" width="505" height="358.667" viewBox="0 0 505 358.667">
  <defs>
    <clipPath id="clip-path">
      <rect id="Rectángulo_405723" data-name="Rectángulo 405723" width="505" height="358.667" fill="none"/>
    </clipPath>
    <clipPath id="clip-path-2">
      <rect id="Rectángulo_407120" data-name="Rectángulo 407120" width="505" height="321.419" fill="none"/>
    </clipPath>
    <clipPath id="clip-path-4">
      <rect id="Rectángulo_407114" data-name="Rectángulo 407114" width="89.039" height="89.04" fill="none"/>
    </clipPath>
    <clipPath id="clip-path-5">
      <rect id="Rectángulo_407115" data-name="Rectángulo 407115" width="23.259" height="23.259" fill="none"/>
    </clipPath>
    <clipPath id="clip-path-6">
      <rect id="Rectángulo_407116" data-name="Rectángulo 407116" width="4.335" height="7.805" fill="none"/>
    </clipPath>
  </defs>
  <g id="Grupo_1113935" data-name="Grupo 1113935" transform="translate(0 0)">
    <g id="Grupo_1112328" data-name="Grupo 1112328" transform="translate(0 0)">
      <g id="Grupo_1111937" data-name="Grupo 1111937" clip-path="url(#clip-path)">
        <path id="Trazado_885979" data-name="Trazado 885979" d="M108.243,157.77h79.52a42.53,42.53,0,0,1,2.29-32.538H45.67C20.448,125.232,0,105.55,0,81.271S20.448,37.309,45.67,37.309H257.06c25.223,0,45.67,19.682,45.67,43.962a42.432,42.432,0,0,1-4.494,19.038H442.619c25.224,0,45.67,19.682,45.67,43.961s-20.447,43.961-45.67,43.961H363.1a42.576,42.576,0,0,1-7.157,40.154h51.434c25.224,0,45.67,19.682,45.67,43.962s-20.447,43.961-45.67,43.961H129.038c-25.223,0-45.67-19.682-45.67-43.961a42.835,42.835,0,0,1,11.089-28.7c-18.484-5.627-31.884-22.265-31.884-41.918,0-24.279,20.448-43.961,45.67-43.961" transform="translate(16.711 19.99)" fill="#e4fff7"/>
        <path id="Trazado_885980" data-name="Trazado 885980" d="M85.419,75.524c-21.558,0-39.034-16.906-39.034-37.762S63.861,0,85.419,0s39.034,16.907,39.034,37.763S106.976,75.524,85.419,75.524" transform="translate(373.615 10.001)" fill="#e4fff7"/>
        <path id="Trazado_885981" data-name="Trazado 885981" d="M637.673,296.46c15.806,0,28.62,13.552,28.62,30.271S653.479,357,637.673,357s-28.62-13.553-28.62-30.271,12.813-30.271,28.62-30.271" transform="translate(-603.003 -85.792)" fill="#e4fff7"/>
        <g id="Grupo_1114100" data-name="Grupo 1114100" transform="translate(0 36.089)">
          <g id="Grupo_1114099" data-name="Grupo 1114099" clip-path="url(#clip-path-2)">
            <rect id="Rectángulo_407108" data-name="Rectángulo 407108" width="13.701" height="66.062" transform="translate(435.503 220.311)" fill="#397afa"/>
            <rect id="Rectángulo_407109" data-name="Rectángulo 407109" width="13.701" height="93.115" transform="translate(329.702 193.258)" fill="#397afa"/>
            <rect id="Rectángulo_407110" data-name="Rectángulo 407110" width="13.7" height="87.28" transform="translate(381.462 199.093)" fill="#397afa"/>
            <path id="Trazado_888362" data-name="Trazado 888362" d="M108.4,215.973v98.5H93.458v-98.5Zm-1.241.982H94.7v96.712h12.462Z" transform="translate(315.3 -28.095)" fill="#fff"/>
            <path id="Trazado_888363" data-name="Trazado 888363" d="M170.823,186.154V310.589H155.882V186.154Zm-1.24,1.24H157.122V309.576h12.462Z" transform="translate(198.573 -24.216)" fill="#fff"/>
            <rect id="Rectángulo_407111" data-name="Rectángulo 407111" width="20.432" height="145.29" transform="translate(231.966 48.397)" fill="#397afa"/>
            <rect id="Rectángulo_407112" data-name="Rectángulo 407112" width="20.432" height="138.858" transform="translate(74.19 54.829)" fill="#397afa"/>
            <rect id="Rectángulo_407113" data-name="Rectángulo 407113" width="20.431" height="130.155" transform="translate(151.376 63.532)" fill="#397afa"/>
            <path id="Trazado_888364" data-name="Trazado 888364" d="M356.38,9.339V194.9H334.1V9.339Zm-1.849,1.849H335.948v182.2h18.584Z" transform="translate(-142.018 -1.215)" fill="#fff"/>
            <path id="Trazado_888365" data-name="Trazado 888365" d="M449.469,9.339V194.9H427.187V9.339Zm-1.849,1.849H429.036v182.2H447.62Z" transform="translate(-316.086 -1.215)" fill="#fff"/>
            <path id="Trazado_888366" data-name="Trazado 888366" d="M530.638,143.094v67.579H508.356V143.094Zm-1.849,1.849H510.205v63.848h18.583Z" transform="translate(-467.865 -18.614)" fill="#fff"/>
            <g id="Grupo_1114098" data-name="Grupo 1114098">
              <g id="Grupo_1114097" data-name="Grupo 1114097" clip-path="url(#clip-path-2)">
                <path id="Trazado_888367" data-name="Trazado 888367" d="M531.844,97.482a2.073,2.073,0,1,0,2.074-2.074,2.074,2.074,0,0,0-2.074,2.074" transform="translate(-493.65 -12.411)" fill="#397afa"/>
                <path id="Trazado_888368" data-name="Trazado 888368" d="M557.367,17.745a2.073,2.073,0,1,0,2.074-2.074,2.074,2.074,0,0,0-2.074,2.074" transform="translate(-541.376 -2.039)" fill="#397afa"/>
                <path id="Trazado_888369" data-name="Trazado 888369" d="M502.1,35.538a3.5,3.5,0,1,0-3.5-3.5,3.5,3.5,0,0,0,3.5,3.5m0-6.128a2.629,2.629,0,1,1-2.629,2.629A2.632,2.632,0,0,1,502.1,29.41" transform="translate(-434.341 -3.713)" fill="#fff"/>
                <path id="Trazado_888370" data-name="Trazado 888370" d="M575.97,72.5a3.5,3.5,0,1,0-3.5-3.5,3.5,3.5,0,0,0,3.5,3.5m0-6.128A2.629,2.629,0,1,1,573.342,69a2.631,2.631,0,0,1,2.628-2.629" transform="translate(-572.471 -8.521)" fill="#fff"/>
                <path id="Trazado_888371" data-name="Trazado 888371" d="M33.242,303.195a2.073,2.073,0,1,0,2.074-2.074,2.074,2.074,0,0,0-2.074,2.074" transform="translate(438.693 -39.171)" fill="#397afa"/>
                <path id="Trazado_888372" data-name="Trazado 888372" d="M58.764,223.459a2.073,2.073,0,1,0,2.074-2.074,2.074,2.074,0,0,0-2.074,2.074" transform="translate(390.969 -28.799)" fill="#397afa"/>
                <path id="Trazado_888373" data-name="Trazado 888373" d="M3.5,241.251a3.5,3.5,0,1,0-3.5-3.5,3.5,3.5,0,0,0,3.5,3.5m0-6.128a2.629,2.629,0,1,1-2.628,2.629A2.63,2.63,0,0,1,3.5,235.123" transform="translate(498.002 -30.473)" fill="#fff"/>
                <path id="Trazado_888374" data-name="Trazado 888374" d="M.5,170.47a3.064,3.064,0,1,0,3.064-3.064A3.064,3.064,0,0,0,.5,170.47" transform="translate(497.937 -21.777)" fill="#fff"/>
                <path id="Trazado_888375" data-name="Trazado 888375" d="M398.021,205.945h0c-4.26-3.73-4.621-10.6,1.663-17.773l72.672-82.994c6.285-7.177,14.832-9.971,19.093-6.241s2.618,12.572-3.666,19.75L415.111,201.68c-6.284,7.177-12.83,8-17.09,4.265" transform="translate(-332.332 -12.655)" fill="#576184"/>
                <path id="Trazado_888376" data-name="Trazado 888376" d="M403.685,208.5a10.367,10.367,0,0,0,2.172-.237c3.2-.689,6.5-2.889,9.539-6.363l72.673-82.993c6.431-7.346,8.057-16.481,3.625-20.363s-13.275-1.063-19.706,6.281l-72.672,83c-3.022,3.451-4.714,7.062-4.893,10.442a9.647,9.647,0,0,0,3.271,7.943,8.918,8.918,0,0,0,5.992,2.294M486.567,97.648A6.739,6.739,0,0,1,491.12,99.2c4.072,3.566,2.41,12.15-3.706,19.136L414.742,201.33c-2.918,3.332-6.053,5.435-9.069,6.084a8.222,8.222,0,0,1-7.408-1.86,8.794,8.794,0,0,1-2.974-7.244c.169-3.183,1.786-6.611,4.678-9.915L472.641,105.4c4.308-4.92,9.7-7.754,13.926-7.754" transform="translate(-332.291 -12.593)" fill="#353148"/>
                <path id="Trazado_888377" data-name="Trazado 888377" d="M407.86,121.766l-14.4-12.605a4.674,4.674,0,0,1-.438-6.6l5.308-6.061a4.675,4.675,0,0,1,6.6-.437l14.394,12.6a4.674,4.674,0,0,1,.438,6.6l-5.306,6.062a4.676,4.676,0,0,1-6.6.438" transform="translate(-256.815 -12.346)" fill="#9dd3ff"/>
                <path id="Trazado_888378" data-name="Trazado 888378" d="M410.871,123.294c.115,0,.231,0,.346-.011a5.074,5.074,0,0,0,3.506-1.733l5.307-6.062a5.117,5.117,0,0,0-.479-7.21l-14.393-12.6a5.11,5.11,0,0,0-7.211.478l-5.308,6.06a5.109,5.109,0,0,0,.478,7.21l14.4,12.605a5.07,5.07,0,0,0,3.359,1.266M401.8,95.279a4.213,4.213,0,0,1,2.788,1.051l14.393,12.6a4.246,4.246,0,0,1,.4,5.982l-5.307,6.062a4.241,4.241,0,0,1-5.984.4l-14.4-12.605a4.241,4.241,0,0,1-.4-5.982l5.308-6.06a4.213,4.213,0,0,1,2.909-1.437c.1-.007.191-.01.287-.01m6,26.422h0Z" transform="translate(-256.754 -12.281)" fill="#121936"/>
                <line id="Línea_3352" data-name="Línea 3352" x1="9.349" y2="10.794" transform="translate(138.225 86.757)" fill="#708cf5"/>
                <path id="Trazado_888379" data-name="Trazado 888379" d="M410.809,110.894a.435.435,0,0,0,.329-.15l9.35-10.794a.435.435,0,0,0-.658-.569l-9.35,10.794a.435.435,0,0,0,.329.719" transform="translate(-272.585 -12.908)" fill="#121936"/>
                <line id="Línea_3353" data-name="Línea 3353" x1="4.675" y2="5.397" transform="translate(142.026 96.178)" fill="#708cf5"/>
                <path id="Trazado_888380" data-name="Trazado 888380" d="M411.813,116.327a.435.435,0,0,0,.329-.15l4.675-5.4a.435.435,0,0,0-.658-.569l-4.675,5.4a.435.435,0,0,0,.329.719" transform="translate(-269.787 -14.317)" fill="#121936"/>
                <path id="Trazado_888381" data-name="Trazado 888381" d="M397.662,89.571a54,54,0,1,1-5.052-76.2,54,54,0,0,1,5.052,76.2M385,21.577A42.837,42.837,0,1,0,389,82.025,42.837,42.837,0,0,0,385,21.577" transform="translate(-169.654 0)" fill="#121936"/>
                <g id="Grupo_1114090" data-name="Grupo 1114090" transform="translate(142.461 9.018)" opacity="0.47">
                  <g id="Grupo_1114089" data-name="Grupo 1114089">
                    <g id="Grupo_1114088" data-name="Grupo 1114088" clip-path="url(#clip-path-4)">
                      <path id="Trazado_888382" data-name="Trazado 888382" d="M392.412,84.215a44.52,44.52,0,1,1-4.166-62.823,44.52,44.52,0,0,1,4.166,62.823" transform="translate(-314.398 -10.366)" fill="#fff"/>
                    </g>
                  </g>
                </g>
                <g id="Grupo_1114093" data-name="Grupo 1114093" transform="translate(180.722 15.706)" opacity="0.69">
                  <g id="Grupo_1114092" data-name="Grupo 1114092">
                    <g id="Grupo_1114091" data-name="Grupo 1114091" clip-path="url(#clip-path-5)">
                      <path id="Trazado_888383" data-name="Trazado 888383" d="M366.411,37.346a11.629,11.629,0,1,1-1.088-16.411,11.629,11.629,0,0,1,1.088,16.411" transform="translate(-346.033 -18.055)" fill="#fff"/>
                    </g>
                  </g>
                </g>
                <path id="Trazado_888384" data-name="Trazado 888384" d="M401.523,187.455c.128-.5,50.2-5.5,50.2-5.5l16.559,58.2a65.84,65.84,0,0,1,2.415,14.433l4.861,70.922a2,2,0,0,1-2.023,2.141l-22.557-.279a2.378,2.378,0,0,1-2.335-2.117l-6.071-54.816-7.636-18.74-2.412,73.783a2.278,2.278,0,0,1-2.309,2.2l-23.821-.008a1.505,1.505,0,0,1-1.5-1.372q-2.036-40.66-4.07-81.317c-.621-12.407-2.241-24.772-2.1-37.212a85.479,85.479,0,0,1,2.793-20.321" transform="translate(-317.417 -23.67)" fill="#121936"/>
                <path id="Trazado_888385" data-name="Trazado 888385" d="M455.314,262.894a.435.435,0,0,0,.4-.6l-11.213-28.391a.434.434,0,1,0-.808.319l11.212,28.392a.435.435,0,0,0,.4.275" transform="translate(-336.701 -30.392)" fill="#fff"/>
                <path id="Trazado_888386" data-name="Trazado 888386" d="M454.051,349.276l1.1.946,15.51,14.019a1.5,1.5,0,0,1-1.027,2.614l-34.735-.481a1.657,1.657,0,0,1-1.634-1.712l.062-15.378Z" transform="translate(-343.058 -45.435)" fill="#0354a5"/>
                <path id="Trazado_888387" data-name="Trazado 888387" d="M470.659,366.325l-.539-.488a1.447,1.447,0,0,1-1.017.393l-34.735-.48a1.645,1.645,0,0,1-1.1-.448l0,1.444a1.657,1.657,0,0,0,1.634,1.712l34.735.481a1.5,1.5,0,0,0,1.027-2.614" transform="translate(-343.058 -47.52)" fill="#121936"/>
                <path id="Trazado_888388" data-name="Trazado 888388" d="M471.886,366.516a.435.435,0,0,0,0-.87l-32.324-.283h0a.435.435,0,0,0,0,.87l32.324.283Z" transform="translate(-349.325 -47.528)" fill="#fff"/>
                <path id="Trazado_888389" data-name="Trazado 888389" d="M451.6,353.907a.436.436,0,0,0,.321-.141l2.909-3.175a.435.435,0,1,0-.642-.587l-2.909,3.174a.435.435,0,0,0,.027.614.43.43,0,0,0,.294.115" transform="translate(-342.416 -45.512)" fill="#fff"/>
                <path id="Trazado_888390" data-name="Trazado 888390" d="M448.854,356.5a.436.436,0,0,0,.321-.141l2.908-3.175a.435.435,0,1,0-.642-.587l-2.908,3.174a.435.435,0,0,0,.321.729" transform="translate(-337.284 -45.848)" fill="#fff"/>
                <path id="Trazado_888391" data-name="Trazado 888391" d="M446.273,359.041a.436.436,0,0,0,.321-.141l2.908-3.174a.435.435,0,0,0-.642-.588l-2.908,3.174a.435.435,0,0,0,.321.729" transform="translate(-332.458 -46.18)" fill="#fff"/>
                <path id="Trazado_888392" data-name="Trazado 888392" d="M456.479,348.9l.273-.092c1.162-.591.791-5.439.731-5.761a1.922,1.922,0,0,0-3.78.7c.116.627,1.822,4.684,2.58,5.058Zm-.884-6.557a1.055,1.055,0,0,1,1.033.86,15.8,15.8,0,0,1-.155,4.559,21.832,21.832,0,0,1-1.915-4.175,1.053,1.053,0,0,1,.843-1.227,1.054,1.054,0,0,1,.194-.018" transform="translate(-347.242 -44.421)" fill="#fff"/>
                <path id="Trazado_888393" data-name="Trazado 888393" d="M448.617,349.255a18.25,18.25,0,0,0,4.765-1.249,1.922,1.922,0,1,0-1.948-3.314h0c-.495.291-3.328,2.525-3.623,3.7a.786.786,0,0,0,.073.619c.1.171.371.238.734.238m3.789-3.959a1.074,1.074,0,0,1,.266.034,1.053,1.053,0,0,1,.268,1.927,19.35,19.35,0,0,1-4.259,1.154,14.7,14.7,0,0,1,3.193-2.969,1.051,1.051,0,0,1,.532-.145" transform="translate(-338.86 -44.804)" fill="#fff"/>
                <path id="Trazado_888394" data-name="Trazado 888394" d="M402.925,349.276l1.1.946,15.51,14.019a1.5,1.5,0,0,1-1.027,2.614l-34.735-.481a1.657,1.657,0,0,1-1.634-1.712l.062-15.378Z" transform="translate(-247.457 -45.435)" fill="#0354a5"/>
                <path id="Trazado_888395" data-name="Trazado 888395" d="M419.533,366.325l-.539-.488a1.447,1.447,0,0,1-1.017.393l-34.735-.48a1.643,1.643,0,0,1-1.1-.448l0,1.444a1.657,1.657,0,0,0,1.634,1.712l34.735.481a1.5,1.5,0,0,0,1.027-2.614" transform="translate(-247.457 -47.52)" fill="#121936"/>
                <path id="Trazado_888396" data-name="Trazado 888396" d="M420.76,366.516a.435.435,0,0,0,0-.87l-32.324-.283h0a.435.435,0,0,0,0,.87l32.324.283Z" transform="translate(-253.723 -47.528)" fill="#fff"/>
                <path id="Trazado_888397" data-name="Trazado 888397" d="M416.732,359.622a3.3,3.3,0,0,0,3.235-2.685h0a3.293,3.293,0,1,0-3.235,2.686m2.381-2.848a2.431,2.431,0,1,1-1.936-2.843,2.417,2.417,0,0,1,1.936,2.843" transform="translate(-274.668 -45.922)" fill="#fff"/>
                <path id="Trazado_888398" data-name="Trazado 888398" d="M400.472,353.907a.436.436,0,0,0,.321-.141l2.909-3.175a.435.435,0,1,0-.642-.587l-2.909,3.174a.435.435,0,0,0,.027.614.43.43,0,0,0,.294.115" transform="translate(-246.815 -45.512)" fill="#fff"/>
                <path id="Trazado_888399" data-name="Trazado 888399" d="M397.728,356.5a.436.436,0,0,0,.321-.141l2.909-3.175a.435.435,0,0,0-.642-.587l-2.909,3.174a.435.435,0,0,0,.321.729" transform="translate(-241.684 -45.848)" fill="#fff"/>
                <path id="Trazado_888400" data-name="Trazado 888400" d="M395.147,359.041a.436.436,0,0,0,.321-.141l2.908-3.174a.435.435,0,1,0-.642-.588l-2.908,3.174a.435.435,0,0,0,.321.729" transform="translate(-236.857 -46.18)" fill="#fff"/>
                <path id="Trazado_888401" data-name="Trazado 888401" d="M405.352,348.9l.273-.092c1.163-.591.792-5.439.732-5.761a1.922,1.922,0,0,0-3.78.7c.116.627,1.822,4.684,2.579,5.058Zm-.885-6.556a1.054,1.054,0,0,1,1.034.859,15.8,15.8,0,0,1-.156,4.559,21.88,21.88,0,0,1-1.914-4.175,1.05,1.05,0,0,1,1.035-1.244" transform="translate(-251.641 -44.42)" fill="#fff"/>
                <path id="Trazado_888402" data-name="Trazado 888402" d="M397.491,349.256a18.251,18.251,0,0,0,4.765-1.25,1.922,1.922,0,1,0-1.948-3.314c-.5.291-3.329,2.524-3.624,3.7a.785.785,0,0,0,.073.62c.1.17.371.238.734.238m3.789-3.959a1.052,1.052,0,0,1,.534,1.96,19.292,19.292,0,0,1-4.258,1.154,14.611,14.611,0,0,1,3.193-2.97h0a1.048,1.048,0,0,1,.531-.144" transform="translate(-243.259 -44.805)" fill="#fff"/>
                <path id="Trazado_888403" data-name="Trazado 888403" d="M380.345,105.854c1.4-.812,3-1.242,3.9.564,1.046,1.513-.1,2.684-1.454,3.616.929-.45,1.872-.559,2.531.478,1.391,1.717.09,3.334-1.417,4.317,1.7-.5,2.163,2.442.61,4.16l-7.948,9.743c-1.665,2.149-7.148,3.029-8.887,3.352a1.576,1.576,0,0,1-1.062-.167c-3.668-2.056-5.13-9.2-3.876-15.219,0,0,2.779-9,4.286-11.843a3.028,3.028,0,0,1,.588-.846,1.114,1.114,0,0,1,.946-.314,1.481,1.481,0,0,1,.92.914,11.665,11.665,0,0,1,.841,4.069c.848-.871,1.749-1.809,2.722-2.846,2.208-2.04,5.435-5.853,7.935-2.809.778,1.131.217,2.086-.637,2.831" transform="translate(-196.09 -13.254)" fill="#ffa386"/>
                <g id="Grupo_1114096" data-name="Grupo 1114096" transform="translate(169.9 92.903)" opacity="0.36">
                  <g id="Grupo_1114095" data-name="Grupo 1114095">
                    <g id="Grupo_1114094" data-name="Grupo 1114094" clip-path="url(#clip-path-6)">
                      <path id="Trazado_888404" data-name="Trazado 888404" d="M384.562,109.316l-4.335,5.283s3.136-6.922,4.006-7.8Z" transform="translate(-380.227 -106.795)" fill="#ff6a48"/>
                    </g>
                  </g>
                </g>
                <path id="Trazado_888405" data-name="Trazado 888405" d="M368.1,109.585a.434.434,0,0,0,.314-.134,41.822,41.822,0,0,1,3.253-3.163.435.435,0,0,0-.442-.749,40.59,40.59,0,0,0-3.439,3.31.435.435,0,0,0,.314.736" transform="translate(-186.72 -13.721)" fill="#ff6a48"/>
                <path id="Trazado_888406" data-name="Trazado 888406" d="M365.51,114.018a.431.431,0,0,0,.309-.129l2.609-2.633a.435.435,0,1,0-.618-.612l-2.609,2.633a.435.435,0,0,0,.309.741" transform="translate(-181.138 -14.376)" fill="#ff6a48"/>
                <path id="Trazado_888407" data-name="Trazado 888407" d="M364.549,118.521a.435.435,0,0,0,.3-.122l1.437-1.388a.435.435,0,0,0-.6-.626l-1.438,1.388a.435.435,0,0,0-.01.615.429.429,0,0,0,.312.133" transform="translate(-178.169 -15.124)" fill="#ff6a48"/>
                <path id="Trazado_888408" data-name="Trazado 888408" d="M439.852,78.434a7.884,7.884,0,0,0,3.664-2.561l-4.551.146a5.157,5.157,0,0,1-1.923-.3l-.065-.022a5.154,5.154,0,0,1-.733-.341l-.1-.057a5.3,5.3,0,0,1-.652-.448c-.027-.022-.052-.044-.078-.067a5.194,5.194,0,0,1-.589-.569l0,0a5.42,5.42,0,0,1-.485-.655c-.018-.03-.039-.057-.057-.087a5.228,5.228,0,0,1-.354-.7c-.018-.043-.037-.088-.054-.133a5.185,5.185,0,0,1-.231-.757c-.009-.041-.015-.082-.023-.123a5.212,5.212,0,0,1-.1-.846l0-.121a5.076,5.076,0,0,1,.021-.622c.005-.063.015-.124.022-.184.018-.146.041-.291.07-.432.013-.064.027-.126.043-.189.037-.152.083-.3.133-.449.014-.041.026-.084.042-.125a5.309,5.309,0,0,1,.246-.562l.009-.016a5.343,5.343,0,0,1,.3-.5c.022-.033.045-.065.068-.1q.146-.207.311-.4l.069-.082a5.4,5.4,0,0,1,.927-.831,5.24,5.24,0,0,1,2.852-.956l6.684-.215a28.106,28.106,0,0,0-.751-3.507,3.321,3.321,0,0,1,3.962-4.116c7.166,1.695,9.956,1.776,11.619,1.493.219-.037.419-.081.608-.128l3.394,17.662c1.3,5.975-2.585,8.931-8.407,10.412l-.076,7.163c-.051,4.907-3.566,8.873-7.809,8.813l-.176,0c-4.243-.061-8.319-2.916-8.268-7.823l.458-10.764a4.057,4.057,0,0,0,.634.107Z" transform="translate(-336.506 -7.467)" fill="#ffa386"/>
                <path id="Trazado_888409" data-name="Trazado 888409" d="M461.366,74.227a.431.431,0,0,0,.237-.07l2.154-1.4-2.177-2.434a.435.435,0,0,0-.649.58l1.5,1.676-1.3.845a.434.434,0,0,0,.236.8" transform="translate(-359.632 -9.13)" fill="#ff6a48"/>
                <path id="Trazado_888410" data-name="Trazado 888410" d="M441.428,69.006a1.12,1.12,0,1,1-1.158-1.081,1.121,1.121,0,0,1,1.158,1.081" transform="translate(-318.486 -8.836)" fill="#121936"/>
                <path id="Trazado_888411" data-name="Trazado 888411" d="M442.035,77.582a4.143,4.143,0,0,0,1.862-.52.435.435,0,0,0-.4-.773,2.455,2.455,0,0,1-2.108.289,1.21,1.21,0,0,1-.55-.495.438.438,0,0,0-.582-.193.432.432,0,0,0-.2.575,2.087,2.087,0,0,0,1.194.994,2.456,2.456,0,0,0,.78.124" transform="translate(-321.912 -9.866)" fill="#ff6a48"/>
                <path id="Trazado_888412" data-name="Trazado 888412" d="M443.4,65.873a2.663,2.663,0,0,0,1.117-.5c.367-.234.743-.458,1.076-.64s.726-.378,1.121-.561a2.647,2.647,0,0,0,1.02-.671c.214-.291.122-.74-.475-1.028a3.2,3.2,0,0,0-2.782.27,3.133,3.133,0,0,0-1.708,2.185c-.069.652.266.968.63.944" transform="translate(-327.996 -8.1)" fill="#121936"/>
                <path id="Trazado_888413" data-name="Trazado 888413" d="M439.316,71.011a.437.437,0,0,0,.288-.109,1.139,1.139,0,0,1,1.434-.048.435.435,0,0,0,.5-.712,2.016,2.016,0,0,0-2.515.11.435.435,0,0,0,.291.759" transform="translate(-318.513 -9.074)" fill="#ff6a48"/>
                <path id="Trazado_888414" data-name="Trazado 888414" d="M452.533,91.447s-7.059,1.012-8.463-1.579h0s-.379,4.245,8.418,5.744Z" transform="translate(-333.295 -11.541)" fill="#ff6a48"/>
                <path id="Trazado_888415" data-name="Trazado 888415" d="M433.222,66.121l.612,1.852a1.346,1.346,0,0,0,1.7.856.674.674,0,0,1,.851.429A2.178,2.178,0,0,1,435,72.009l-.751.248" transform="translate(-308.363 -8.601)" fill="#ffa386"/>
                <path id="Trazado_888416" data-name="Trazado 888416" d="M434.185,72.627a.443.443,0,0,0,.137-.022l.751-.249a2.616,2.616,0,0,0,1.662-3.3,1.107,1.107,0,0,0-1.4-.7.913.913,0,0,1-1.152-.58l-.612-1.852a.43.43,0,0,0-.55-.277.435.435,0,0,0-.276.55l.612,1.852a1.78,1.78,0,0,0,2.25,1.133.234.234,0,0,1,.183.014.237.237,0,0,1,.118.137,1.744,1.744,0,0,1-1.108,2.2l-.751.248a.435.435,0,0,0,.137.848" transform="translate(-308.298 -8.536)" fill="#ff6a48"/>
                <path id="Trazado_888417" data-name="Trazado 888417" d="M441.24,72.77a4.183,4.183,0,1,0-4.183-4.183,4.189,4.189,0,0,0,4.183,4.183m0-7.5a3.314,3.314,0,1,1-3.314,3.314,3.317,3.317,0,0,1,3.314-3.314" transform="translate(-320.627 -8.378)" fill="#fff"/>
                <path id="Trazado_888418" data-name="Trazado 888418" d="M456.98,68.17a.435.435,0,0,0,.065-.865l-10.87-1.68a.435.435,0,0,0-.132.86l10.87,1.679a.435.435,0,0,0,.067.005" transform="translate(-340.114 -8.536)" fill="#fff"/>
                <path id="Trazado_888419" data-name="Trazado 888419" d="M435.6,68.385a.437.437,0,0,0,.2-.05,2.743,2.743,0,0,1,1.5-.145.439.439,0,0,0,.508-.347.435.435,0,0,0-.346-.507,3.638,3.638,0,0,0-2.071.231.435.435,0,0,0,.2.819" transform="translate(-311.373 -8.752)" fill="#fff"/>
                <path id="Trazado_888420" data-name="Trazado 888420" d="M447.586,42.2l6.543-.861a5.4,5.4,0,0,1,9.745.663c.207.091.409.2.612.3a4.322,4.322,0,0,1,6.033,5.535,14.241,14.241,0,0,1,1.334,2.8,5.18,5.18,0,0,1-3.648,5.633c-.167.05-.339.1-.524.144s-.388.09-.607.128c-1.663.283-4.454.2-11.619-1.493a3.32,3.32,0,0,0-3.962,4.116,28.259,28.259,0,0,1,.75,3.508l-6.684.214a5.247,5.247,0,0,0-2.852.957,5.358,5.358,0,0,0-.926.831l-.07.081c-.11.13-.213.263-.31.4l-.069.1a5.329,5.329,0,0,0-.3.5l-.009.016a5.307,5.307,0,0,0-.247.562c-.015.041-.027.084-.042.125-.05.147-.1.3-.133.449q-.022.094-.042.188-.044.214-.07.433c-.008.061-.017.122-.023.184a5.287,5.287,0,0,0-.02.623l0,.121a5.308,5.308,0,0,0,.1.846c.008.041.014.082.023.122a5.273,5.273,0,0,0,.231.758c.017.044.036.089.054.133a5.431,5.431,0,0,0,.354.7c.018.03.038.058.057.087a5.272,5.272,0,0,0,.485.656l0,0a5.354,5.354,0,0,0,.59.569l.077.067a5.415,5.415,0,0,0,.652.448l.1.057a5.4,5.4,0,0,0,.733.341l.065.021a5.119,5.119,0,0,0,1.924.3l4.551-.146a7.878,7.878,0,0,1-3.665,2.562l.645,5.994a4.057,4.057,0,0,1-.634-.107,4.529,4.529,0,0,1-.86-.283,4.359,4.359,0,0,1-2.2-2.23l-1.4-3.231a7.881,7.881,0,0,1-5.466-10.214,5.391,5.391,0,0,1-2.407-4.259c-6.217-10.519,7.167-18.667,13.124-19.45" transform="translate(-343.442 -5.018)" fill="#121936"/>
                <path id="Trazado_888421" data-name="Trazado 888421" d="M372.514,152.758s22.915-41.868,24.252-43.607a22.669,22.669,0,0,1,17.655-8.85l13.117-.184,14.959-.386c2.323,0,9.093,1.223,10.827,2.768,5.422,4.833,9.145,13.323,11.268,19.859L469.025,136l13.14-15.271a1.606,1.606,0,0,1,2.083-.3l15.47,9.917a1.474,1.474,0,0,1,.389,2.118l-21.355,28.822a14.08,14.08,0,0,1-22.123,2.026l3.837,30.751h-63.5l-2.055-26.231-15.457-.806a9.064,9.064,0,0,1-6.941-14.267" transform="translate(-318.006 -12.973)" fill="#0354a5"/>
                <path id="Trazado_888422" data-name="Trazado 888422" d="M404.981,145.194a.435.435,0,0,0,.346-.171l4.054-5.325a.435.435,0,1,0-.692-.527l-4.054,5.325a.434.434,0,0,0,.345.7" transform="translate(-256.392 -18.082)" fill="#121936"/>
                <path id="Trazado_888423" data-name="Trazado 888423" d="M495.608,176.958l.048,0a.436.436,0,0,0,.385-.479l-3.872-35.762a.44.44,0,0,0-.479-.385.434.434,0,0,0-.385.478l3.872,35.763a.434.434,0,0,0,.431.388" transform="translate(-418.435 -18.254)" fill="#121936"/>
                <path id="Trazado_888424" data-name="Trazado 888424" d="M434.723,170.109a.435.435,0,0,0,.363-.674L421.46,148.8a.435.435,0,1,0-.726.478l13.626,20.64a.433.433,0,0,0,.363.2" transform="translate(-296.099 -19.33)" fill="#121936"/>
                <path id="Trazado_888425" data-name="Trazado 888425" d="M36.229,180.8H234.21a5.448,5.448,0,0,0,5.447-5.448V40.409a5.448,5.448,0,0,0-5.447-5.448H36.229a5.448,5.448,0,0,0-5.448,5.448V175.357a5.448,5.448,0,0,0,5.448,5.448" transform="translate(238.566 -4.548)" fill="#fff"/>
                <path id="Trazado_888426" data-name="Trazado 888426" d="M36.229,34.961H234.21a5.448,5.448,0,0,1,5.447,5.448V56.54H30.781V40.409a5.448,5.448,0,0,1,5.448-5.448" transform="translate(238.566 -4.548)" fill="#92d8fe"/>
                <path id="Trazado_888427" data-name="Trazado 888427" d="M30.716,56.91H239.591a.435.435,0,0,0,.435-.435V40.344a5.89,5.89,0,0,0-5.883-5.883H36.163a5.89,5.89,0,0,0-5.882,5.883V56.475a.435.435,0,0,0,.435.435m208.441-.87H31.151v-15.7a5.019,5.019,0,0,1,5.012-5.013h197.98a5.019,5.019,0,0,1,5.013,5.013Z" transform="translate(238.632 -4.483)" fill="#353148"/>
                <path id="Trazado_888428" data-name="Trazado 888428" d="M229.123,49.705a3.4,3.4,0,1,0-3.4-3.4,3.4,3.4,0,0,0,3.4,3.4m0-5.928a2.529,2.529,0,1,1-2.529,2.53,2.532,2.532,0,0,1,2.529-2.53" transform="translate(76.117 -5.582)" fill="#fff"/>
                <path id="Trazado_888429" data-name="Trazado 888429" d="M243.025,49.705a3.4,3.4,0,1,0-3.4-3.4,3.4,3.4,0,0,0,3.4,3.4m0-5.928a2.529,2.529,0,1,1-2.529,2.53,2.532,2.532,0,0,1,2.529-2.53" transform="translate(50.121 -5.582)" fill="#fff"/>
                <path id="Trazado_888430" data-name="Trazado 888430" d="M257.347,49.705a3.4,3.4,0,1,0-3.4-3.4,3.4,3.4,0,0,0,3.4,3.4m0-5.928a2.529,2.529,0,1,1-2.53,2.53,2.533,2.533,0,0,1,2.53-2.53" transform="translate(23.341 -5.582)" fill="#fff"/>
                <path id="Trazado_888431" data-name="Trazado 888431" d="M46.275,175.251H227.041a4.436,4.436,0,0,0,4.436-4.436V73.209a4.436,4.436,0,0,0-4.436-4.436H46.275a4.436,4.436,0,0,0-4.436,4.436v97.606a4.436,4.436,0,0,0,4.436,4.436" transform="translate(237.126 -8.946)" fill="#fff"/>
                <path id="Trazado_888432" data-name="Trazado 888432" d="M46.209,175.621H226.975a4.876,4.876,0,0,0,4.872-4.871V73.144a4.877,4.877,0,0,0-4.872-4.871H46.209a4.877,4.877,0,0,0-4.871,4.871V170.75a4.877,4.877,0,0,0,4.871,4.871M226.975,69.143a4.005,4.005,0,0,1,4,4V170.75a4.005,4.005,0,0,1-4,4H46.209a4.006,4.006,0,0,1-4-4V73.144a4.006,4.006,0,0,1,4-4Z" transform="translate(237.192 -8.881)" fill="#353148"/>
                <path id="Trazado_888433" data-name="Trazado 888433" d="M55.211,167.768a42.187,42.187,0,1,0,0-84.375c-.53,0-.244,84.375,0,84.375" transform="translate(359.832 -10.848)" fill="#9dd3ff"/>
                <path id="Trazado_888434" data-name="Trazado 888434" d="M107.139,125.58a42.188,42.188,0,0,1,42.187-42.187c.274,0,.33,20.6.286,42.361,0,.158-42.474.007-42.474-.174" transform="translate(262.173 -10.848)" fill="#0354a5"/>
                <path id="Trazado_888435" data-name="Trazado 888435" d="M139.063,167.515c.552,0,.552,0,.6-16.08.01-3.907.011-7.814.007-10.743-.01-5.313-.01-5.313-.472-5.315-31.1-.061-31.3.139-31.493.334a.445.445,0,0,0-.13.311,31.528,31.528,0,0,0,31.493,31.493m-.288-31.269c.079,3.45-.011,27.188-.115,30.4A30.656,30.656,0,0,1,108.443,136.4c2.068-.129,13.4-.188,30.332-.155" transform="translate(271.755 -17.609)" fill="#121936"/>
                <path id="Trazado_888436" data-name="Trazado 888436" d="M170.924,108.138h57.239a.435.435,0,0,0,0-.87H170.924a.435.435,0,0,0,0,.87" transform="translate(128.091 -13.954)" fill="#121936"/>
                <path id="Trazado_888437" data-name="Trazado 888437" d="M170.924,122.894H198.5a.435.435,0,0,0,0-.87H170.924a.435.435,0,1,0,0,.87" transform="translate(157.749 -15.873)" fill="#121936"/>
                <path id="Trazado_888438" data-name="Trazado 888438" d="M208,122.894h24.9a.435.435,0,1,0,0-.87H208a.435.435,0,0,0,0,.87" transform="translate(91.099 -15.873)" fill="#121936"/>
                <path id="Trazado_888439" data-name="Trazado 888439" d="M122.374,140.449c1.917-.045,3.442,0,3.442,0l101.356-.117a22.6,22.6,0,0,1,22.17,18.991h.092l0,.6a22.738,22.738,0,0,1,.2,3.145l-.053,8.642a23.181,23.181,0,0,0,7.689,17.658,22.613,22.613,0,0,0,10.5,5.186,18.608,18.608,0,0,1-2.513.106c-1.918.045-3.442,0-3.442,0l-101.356.117a22.6,22.6,0,0,1-22.17-18.991H138.2l0-.6a22.749,22.749,0,0,1-.2-3.145l.074-11.965a23.031,23.031,0,0,0-18.214-19.52,18.8,18.8,0,0,1,2.513-.106" transform="translate(132.954 -18.254)" fill="#121936"/>
                <path id="Trazado_888440" data-name="Trazado 888440" d="M207.708,140.328H337.334c-15.583,0-28.214,13.163-28.214,29.4v122.4c0,10.489-8.16,18.99-18.226,18.99H167.131V182.609c-1.584-22.11,10.777-42.281,40.576-42.281" transform="translate(22.393 -18.254)" fill="#fff"/>
                <path id="Trazado_888441" data-name="Trazado 888441" d="M166.543,185.341a.326.326,0,0,0,.326-.326v-9.339A34.611,34.611,0,0,1,201.442,141.1H337.1a.326.326,0,1,0,0-.652H201.442a35.265,35.265,0,0,0-35.225,35.225v9.339a.326.326,0,0,0,.326.326" transform="translate(22.981 -18.27)" fill="#121936"/>
                <path id="Trazado_888442" data-name="Trazado 888442" d="M219.451,295.018l135.008.17-.082,13.139A23.757,23.757,0,0,0,373.4,331.584a19.381,19.381,0,0,1-2.6.11c-1.982.046-3.556,0-3.556,0l-104.7.12c-.236,0-.47-.013-.7-.022l-19.277.022a23.347,23.347,0,0,1-23.2-23.491Z" transform="translate(-59.267 -38.377)" fill="#121936"/>
                <path id="Trazado_888443" data-name="Trazado 888443" d="M226.03,201.971H325.68a.435.435,0,1,0,0-.87H226.03a.435.435,0,0,0,0,.87" transform="translate(-17.364 -26.16)" fill="#121936"/>
                <path id="Trazado_888444" data-name="Trazado 888444" d="M228.242,177.973h52.6a.87.87,0,0,0,0-1.74h-52.6a.87.87,0,0,0,0,1.74" transform="translate(25.496 -22.925)" fill="#3e2fd1"/>
                <path id="Trazado_888445" data-name="Trazado 888445" d="M226.031,249.775h47.918a.435.435,0,1,0,0-.87H226.031a.435.435,0,0,0,0,.87" transform="translate(34.367 -32.379)" fill="#121936"/>
                <path id="Trazado_888446" data-name="Trazado 888446" d="M226.03,224.39h32.555a.435.435,0,0,0,0-.87H226.03a.435.435,0,1,0,0,.87" transform="translate(49.732 -29.076)" fill="#121936"/>
                <path id="Trazado_888447" data-name="Trazado 888447" d="M276.518,224.39h55.73a.435.435,0,1,0,0-.87h-55.73a.435.435,0,0,0,0,.87" transform="translate(-67.852 -29.076)" fill="#121936"/>
                <path id="Trazado_888448" data-name="Trazado 888448" d="M226.03,276.931h32.555a.435.435,0,0,0,0-.87H226.03a.435.435,0,1,0,0,.87" transform="translate(49.732 -35.911)" fill="#121936"/>
                <path id="Trazado_888449" data-name="Trazado 888449" d="M271.922,276.931h8a.435.435,0,1,0,0-.87h-8a.435.435,0,0,0,0,.87" transform="translate(-11.524 -35.911)" fill="#121936"/>
                <rect id="Rectángulo_407117" data-name="Rectángulo 407117" width="10.456" height="33.216" transform="translate(239.294 210.883)" fill="#9dd3ff"/>
                <path id="Trazado_888450" data-name="Trazado 888450" d="M311.081,278h10.455a.435.435,0,0,0,.435-.435V257.682a.435.435,0,0,0-.435-.435H311.081a.435.435,0,0,0-.435.435v19.881a.435.435,0,0,0,.435.435m10.02-.87h-9.586V258.117H321.1Z" transform="translate(-87.206 -33.464)" fill="#397afa"/>
                <rect id="Rectángulo_407118" data-name="Rectángulo 407118" width="10.456" height="36.63" transform="translate(208.665 207.469)" fill="#0354a5"/>
                <path id="Trazado_888451" data-name="Trazado 888451" d="M292.223,115.7l25.448-26.251a.435.435,0,0,0-.625-.605l-24.851,25.636L264.583,88.577l-32.727,25.378a.435.435,0,0,0,.534.687L264.529,89.72Z" transform="translate(-14.343 -11.522)" fill="#121936"/>
                <path id="Trazado_888452" data-name="Trazado 888452" d="M224.271,88.2a6.887,6.887,0,1,0,6.886-6.886,6.886,6.886,0,0,0-6.886,6.886" transform="translate(71.858 -10.578)" fill="#0354a5"/>
                <path id="Trazado_888453" data-name="Trazado 888453" d="M284.97,88.2a6.887,6.887,0,1,0,6.886-6.886A6.886,6.886,0,0,0,284.97,88.2" transform="translate(-41.643 -10.578)" fill="#0354a5"/>
                <path id="Trazado_888454" data-name="Trazado 888454" d="M253.182,117.114a6.887,6.887,0,1,0,6.886-6.886,6.886,6.886,0,0,0-6.886,6.886" transform="translate(17.798 -14.339)" fill="#397afa"/>
                <path id="Trazado_888455" data-name="Trazado 888455" d="M322.252,117.114a6.887,6.887,0,1,0,6.886-6.886,6.886,6.886,0,0,0-6.886,6.886" transform="translate(-111.357 -14.339)" fill="#397afa"/>
              </g>
            </g>
          </g>
        </g>
      </g>
    </g>
  </g>
</svg>
