<svg xmlns="http://www.w3.org/2000/svg" xmlns:xlink="http://www.w3.org/1999/xlink" width="122" height="122" viewBox="0 0 122 122">
  <defs>
    <clipPath id="clip-path">
      <rect id="Rectángulo_404919" data-name="Rectángulo 404919" width="122" height="122" fill="none"/>
    </clipPath>
    <clipPath id="clip-path-2">
      <rect id="Rectángulo_404925" data-name="Rectángulo 404925" width="60" height="60" transform="translate(-0.121 0)" fill="#fafafa" stroke="#707070" stroke-width="1"/>
    </clipPath>
    <clipPath id="clip-path-3">
      <rect id="Rectángulo_407127" data-name="Rectángulo 407127" width="52.53" height="52.564" fill="#fafafa"/>
    </clipPath>
  </defs>
  <g id="Grupo_1112261" data-name="Grupo 1112261" transform="translate(-179.664 -3667)">
    <g id="Grupo_1110094" data-name="Grupo 1110094" transform="translate(179.664 3667)">
      <g id="Grupo_1110058" data-name="Grupo 1110058" clip-path="url(#clip-path)">
        <path id="Trazado_883529" data-name="Trazado 883529" d="M4.833,30,18.4,105.124c1.993,11.036,12.965,18.438,24.506,16.532a21.661,21.661,0,0,0,9.963-4.4l61.257-48.8A19.672,19.672,0,0,0,116.844,39.9a21.222,21.222,0,0,0-8.966-6.05L33.054,7.521C22.063,3.652,9.874,9.037,5.829,19.546A19.436,19.436,0,0,0,4.833,30" transform="translate(0.242 0.045)" fill="#0354a5"/>
        <path id="Trazado_883530" data-name="Trazado 883530" d="M120.213,86.305h0a20.942,20.942,0,0,1-6.082,8.079,21.885,21.885,0,0,1-9.986,4.527L25.824,113.2C14.063,115.378,2.679,108.03.4,96.785A19.878,19.878,0,0,1,1.23,85.949l26.226-72c.122-.336.254-.673.393-1A21.378,21.378,0,0,1,44.442.284a22.817,22.817,0,0,1,10.636.831,21.614,21.614,0,0,1,9.353,6.1l52.094,57.712a19.905,19.905,0,0,1,3.689,21.382M28.825,13.331c-.132.313-.259.635-.375.955l-26.225,72C-1.53,96.6,4.171,107.867,14.957,111.458a21.593,21.593,0,0,0,10.67.749l78.319-14.284c11.218-2.046,18.578-12.4,16.439-23.126a19.433,19.433,0,0,0-4.659-9.215L63.632,7.869A21.344,21.344,0,0,0,34.464,5.823a19.823,19.823,0,0,0-5.639,7.508" transform="translate(0 0)" fill="#1d6350"/>
      </g>
    </g>
    <g id="Enmascarar_grupo_1108078" data-name="Enmascarar grupo 1108078" transform="translate(207.664 3698)" clip-path="url(#clip-path-2)">
      <g id="Grupo_1114114" data-name="Grupo 1114114" transform="translate(3.879 3.999)">
        <g id="Grupo_1114113" data-name="Grupo 1114113" clip-path="url(#clip-path-3)">
          <path id="Trazado_888490" data-name="Trazado 888490" d="M27.669,33.1C32.363,45.5,19.108,57.171,7.39,50.735-3.422,44.8-2.092,28.713,9.568,24.706A12.771,12.771,0,0,0,12,23.975c.578-2.823.949-5.7,1.776-8.462,1.114-3.725,1.76-4.8,5.357-6.386,4.25-1.877,8.929-2.69,13.317-4.148A33.066,33.066,0,0,0,41.363.035c.849-.263,2.839,1.013,3.6,1.529a16.8,16.8,0,0,1,7.138,10.177c.206.952.646,3.478.291,4.3-.174.4-2.657,1.915-3.271,2.451-4.333,3.783-4.675,9.031-10.667,11.616-2.223.959-4.226.647-6.458,1.22a32.379,32.379,0,0,0-4.332,1.77m-8.892-8.44c.934-1.81,1.723-4.485,2.838-6.126a1.281,1.281,0,0,1,.742-.614,34.112,34.112,0,0,1,3.5-1.175,1.249,1.249,0,0,1,.65-.038c2.376,1.521,6.243,2.215,3.418,5.616C26.738,26.157,21.2,26.672,17.8,30.381c-1.367,1.495-2.883,3.808.315,4.2,3.525.437,8.7-4.136,12.416-5.325,2.809-.9,5.163-.36,7.826-1.81,4.193-2.284,5.664-7.694,9.481-11,.352-.3,2.114-1.464,2.184-1.579.3-.5-.439-3.452-.671-4.146A14.738,14.738,0,0,0,41.9,2.581a36.823,36.823,0,0,1-7,4.086c-4.966,1.949-11.918,2.76-16.412,5.42-1.433.848-1.606,1.647-2.108,3.162-.32.966-2.121,8.351-1.8,8.661a15.3,15.3,0,0,1,4.21.75M28.268,20.3l-2.2-1.019-2.456.795-2.415,4.886c.279.222,4.321-2.061,4.865-2.436.347-.239,2.476-1.853,2.21-2.227M18.03,26.922A11.935,11.935,0,0,0,2.866,41.709a12.133,12.133,0,0,0,6.995,7.61A11.986,11.986,0,0,0,25.708,34.6c-.178-.153-2.062,1.051-2.457,1.23-2.431,1.106-5.552,1.827-7.916.185a3,3,0,0,1-1.521-2.621,1.79,1.79,0,0,0-.574,3.512c1.646.427,2.6-.307,4.26,1.01A4.173,4.173,0,0,1,15.486,45.3c.5,3.279-2.921,3.214-2.423-.016-.093-.093-2.18.062-2.626-.009a1.14,1.14,0,0,1,.138-2.252c1.7-.2,6.722.9,6.066-2.3C16.3,39.05,14.434,39.525,13.2,39.35a4.188,4.188,0,0,1-3.5-5.325,4.113,4.113,0,0,1,3.353-2.894c-.372-1.794,1.039-3.647,2.34-1.65Z" transform="translate(0 0)" fill="#fafafa"/>
        </g>
      </g>
    </g>
  </g>
</svg>
