<svg xmlns="http://www.w3.org/2000/svg" xmlns:xlink="http://www.w3.org/1999/xlink" width="69.969" height="55.439" viewBox="0 0 69.969 55.439">
  <defs>
    <clipPath id="clip-path">
      <rect id="Rect치ngulo_404926" data-name="Rect치ngulo 404926" width="19.279" height="32" fill="none"/>
    </clipPath>
  </defs>
  <g id="Grupo_1113906" data-name="Grupo 1113906" transform="translate(-179.42 -6859.756)">
    <path id="Uni칩n_4" data-name="Uni칩n 4" d="M21008.148,11758.387l-36.871-5.312a9.913,9.913,0,0,1-6.373-15.938l23.039-29.274a9.911,9.911,0,0,1,16.988,2.447l13.832,34.594a9.911,9.911,0,0,1-9.152,13.59A10.279,10.279,0,0,1,21008.148,11758.387Z" transform="translate(-20782.771 -4843.797)" fill="#1d6350" stroke="rgba(0,0,0,0)" stroke-miterlimit="10" stroke-width="1"/>
    <g id="Grupo_1112312" data-name="Grupo 1112312" transform="matrix(-0.695, 0.719, -0.719, -0.695, 249.389, 6875.513)">
      <path id="Trazado_883041" data-name="Trazado 883041" d="M14.193,0,2.872.557A3.015,3.015,0,0,0,.485,5.2l6.14,9.528a3.015,3.015,0,0,0,5.215-.255L17.021,4.393A3.015,3.015,0,0,0,14.193,0" transform="translate(0 0)" fill="#174035"/>
    </g>
    <g id="Grupo_1112313" data-name="Grupo 1112313" transform="translate(201.881 6870.518) rotate(3)">
      <g id="Grupo_1110098" data-name="Grupo 1110098" transform="translate(0 0)" clip-path="url(#clip-path)">
        <path id="Trazado_883578" data-name="Trazado 883578" d="M8.119,22.924c1.243,0,2.486.007,3.729,0A1.789,1.789,0,0,0,13.615,21.5,1.833,1.833,0,0,0,12.2,19.363c-1.767-.338-3.539-.667-5.318-.93A7.951,7.951,0,0,1,.212,13.144a7.069,7.069,0,0,1-.2-2.128A6.884,6.884,0,0,1,2.232,5.553,6.969,6.969,0,0,1,6.474,3.566c.768-.079.812-.062.877-.817A2.97,2.97,0,0,1,9.595.077a1.967,1.967,0,0,1,1.128.013,2.96,2.96,0,0,1,2.3,2.733c.044.5.284.618.707.626a3.284,3.284,0,0,1,2.7,1.247,2.679,2.679,0,0,1-.862,3.99,4.148,4.148,0,0,1-1.558.373c-1.959.055-3.921.038-5.881.061a2.886,2.886,0,0,0-1.76.4,1.685,1.685,0,0,0-.8,1.606A1.66,1.66,0,0,0,6.762,12.7c.736.209,1.507.3,2.263.436,1.547.281,3.106.509,4.64.85a6.7,6.7,0,0,1,4.963,4.061c1.455,3.5.53,7.715-3.424,9.64a12.206,12.206,0,0,1-1.6.64.761.761,0,0,0-.62.866,2.812,2.812,0,0,1-3.148,2.8,3.1,3.1,0,0,1-2.456-2.4c-.065-1.042-.126-1.041-1.188-1.05-.805-.006-1.611,0-2.416-.007a2.779,2.779,0,0,1-2.7-2.237A2.581,2.581,0,0,1,2.5,23.434a4.444,4.444,0,0,1,1.943-.485c1.221-.074,2.45-.021,3.676-.021Z" transform="translate(0 0)" fill="#fff"/>
      </g>
    </g>
  </g>
</svg>
