<svg xmlns="http://www.w3.org/2000/svg" xmlns:xlink="http://www.w3.org/1999/xlink" width="139" height="139" viewBox="0 0 139 139">
  <defs>
    <clipPath id="clip-path">
      <rect id="Rectángulo_404919" data-name="Rectángulo 404919" width="139" height="139" fill="#0354a5"/>
    </clipPath>
    <clipPath id="clip-path-2">
      <rect id="Rectángulo_404925" data-name="Rectángulo 404925" width="68" height="68" transform="translate(0.047)" fill="#fafafa" stroke="#707070" stroke-width="1"/>
    </clipPath>
    <clipPath id="clip-path-3">
      <rect id="Rectángulo_407102" data-name="Rectángulo 407102" width="63.639" height="60.16" fill="#fafafa"/>
    </clipPath>
  </defs>
  <g id="Grupo_1110118" data-name="Grupo 1110118" transform="translate(-179.664 -3667.001)">
    <g id="Grupo_1110094" data-name="Grupo 1110094" transform="translate(179.664 3667.001)">
      <g id="Grupo_1110058" data-name="Grupo 1110058" clip-path="url(#clip-path)">
        <path id="Trazado_883529" data-name="Trazado 883529" d="M4.876,33.3l15.457,85.6C22.6,131.474,35.1,139.907,48.254,137.736a24.679,24.679,0,0,0,11.351-5.015l69.793-55.6a22.413,22.413,0,0,0,3.1-32.537,24.179,24.179,0,0,0-10.216-6.893L37.03,7.7C24.507,3.288,10.62,9.423,6.011,21.4A22.144,22.144,0,0,0,4.876,33.3" transform="translate(0.906 0.925)" fill="#0354a5"/>
        <path id="Trazado_883530" data-name="Trazado 883530" d="M136.965,98.332h0a23.86,23.86,0,0,1-6.93,9.2,24.935,24.935,0,0,1-11.378,5.157L29.422,128.97c-13.4,2.486-26.37-5.886-28.97-18.7A22.648,22.648,0,0,1,1.4,97.925L31.283,15.9c.139-.383.289-.767.448-1.14A24.357,24.357,0,0,1,50.635.324a26,26,0,0,1,12.118.947A24.626,24.626,0,0,1,73.409,8.216L132.762,73.97a22.679,22.679,0,0,1,4.2,24.361M32.842,15.189c-.15.357-.3.723-.427,1.088L2.535,98.305C-1.743,110.057,4.753,122.9,17.041,126.99a24.6,24.6,0,0,0,12.157.854l89.232-16.274c12.781-2.331,21.166-14.127,18.73-26.349a22.141,22.141,0,0,0-5.308-10.5L72.5,8.965A24.319,24.319,0,0,0,39.266,6.634a22.585,22.585,0,0,0-6.425,8.554" transform="translate(0 0)" fill="#41c9a5"/>
      </g>
    </g>
    <g id="Enmascarar_grupo_1108078" data-name="Enmascarar grupo 1108078" transform="translate(213.663 3703.001)" clip-path="url(#clip-path-2)">
      <g id="Grupo_1114077" data-name="Grupo 1114077" transform="translate(2.047 4)">
        <g id="Grupo_1114076" data-name="Grupo 1114076" clip-path="url(#clip-path-3)">
          <path id="Trazado_888338" data-name="Trazado 888338" d="M39.472,75.809H49.557a1.774,1.774,0,0,1,.818.818V90.71A22.885,22.885,0,0,0,55.824,73.9c-.091-1.289-1.382-4.6.816-4.465,1.043.062,1.129.741,1.316,1.606,1.712,7.908-1.137,16.029-6.216,22.03-.206.244-1.365,1.264-1.365,1.36v2.635c3.888-.534,9.2-3.532,12.174.455a5.417,5.417,0,0,1-2.268,8.271c-7.641,1.438-16.319,6.043-24.041,3.683-6.5-1.988-13.063-5.549-19.584-7.672l-4.452.068c-.436.3.207,1.623-.613,2.112l-10.7.135a1.3,1.3,0,0,1-.675-1.142C.742,96.06-.464,88.141.211,81.34c.036-.359.463-1.352.829-1.352H6.946A29.466,29.466,0,0,1,7.952,67.821c.275-.867,1.023-3.3,1.9-3.566a1.293,1.293,0,0,1,1.634,1.27A25.618,25.618,0,0,0,9.489,79.99c2.555-.312,2.718.622,2.545,2.906h2.726V70.449a3.886,3.886,0,0,1,.818-1H25.844V62.272c0-.481.885-.948,1.359-1a74.153,74.153,0,0,1,10.55,0c.852.078,1.719.349,1.719,1.37ZM36.928,63.816h-8.54v20.9l8.54,3.453Zm-11.084,8H17.3V82.9h6.814c.251,0,1.332.677,1.726.727Zm22.169,6.542h-8.54V90.437a8.737,8.737,0,0,1,.919,2.907c0,1.909-1.308,3.212-.918,5.177,2.936.581,5.715-.248,8.539-.907ZM9.671,82.532H2.766v19.262H9.671Zm2.362,2.907V99.159l.273.273h5.27c6.445,2.21,13.071,5.771,19.542,7.715a12.778,12.778,0,0,0,6.541.377A122.7,122.7,0,0,0,58.735,103.7c1.673-.576,2.523-1.388,2.37-3.282-.175-2.165-2.01-2.621-3.869-2.4-4.8.577-10.689,3.253-15.483,3.232-3.558-.016-13.618-3.939-17.124-5.606-1.568-.745-1.178-2.55.186-2.519l8.833,3.313c3.674,1.1,5.939-3.825,2.684-5.773-3.486-2.086-8.777-3.109-12.395-5.232Z" transform="translate(0 -49.98)" fill="#fafafa"/>
          <path id="Trazado_888339" data-name="Trazado 888339" d="M97.077.08a26.721,26.721,0,0,1,9.625.988c.988.3,2.671.586,2.547,1.912-.195,2.087-3.592.313-4.86.037-7.016-1.524-13.366.133-19.146,4.126-.9.621-2.776,2.853-3.622.825-.345-.826.562-1.523,1.136-2.039A26.325,26.325,0,0,1,97.077.08" transform="translate(-66.727 0)" fill="#fafafa"/>
          <path id="Trazado_888340" data-name="Trazado 888340" d="M241.372,34.517a1.886,1.886,0,0,1-.134-1.587c2.835-3.049,5.387-6.364,8.171-9.454a21.715,21.715,0,0,1,2.473-2.62,1.225,1.225,0,0,1,1.519,1.888c-3.219,3.382-6.057,7.367-9.257,10.731-.688.723-1.769,2.1-2.772,1.041" transform="translate(-197.31 -16.911)" fill="#fafafa"/>
          <path id="Trazado_888341" data-name="Trazado 888341" d="M276.753,68.772c2.824-3.058,7.445,1.249,4.579,4.307-2.667,2.846-7.351-1.3-4.579-4.307m2.819,1.6c-.671-.419-1.539.526-.894.986.7.5,1.422-.656.894-.986" transform="translate(-225.769 -55.418)" fill="#fafafa"/>
          <path id="Trazado_888342" data-name="Trazado 888342" d="M243.46,23.671c-2.773,2.967-7.529-1.527-4.387-4.478,2.93-2.753,7.1,1.575,4.387,4.478m-2.644-1.591c.544.377,1.64-.7.707-1.171-.812-.414-1.116.888-.707,1.171" transform="translate(-194.784 -14.985)" fill="#fafafa"/>
          <path id="Trazado_888343" data-name="Trazado 888343" d="M65.677,55.2c1.321,1.073-.593,3.11-1.718,1.9-1.039-1.12.542-2.853,1.718-1.9" transform="translate(-52.06 -44.945)" fill="#fafafa"/>
        </g>
      </g>
    </g>
  </g>
</svg>
