<svg xmlns="http://www.w3.org/2000/svg" xmlns:xlink="http://www.w3.org/1999/xlink" width="70" height="70" viewBox="0 0 70 70">
  <defs>
    <clipPath id="clip-path">
      <rect id="Rectángulo_407122" data-name="Rectángulo 407122" width="42" height="43.502" fill="#023263"/>
    </clipPath>
  </defs>
  <g id="Grupo_1113937" data-name="Grupo 1113937" transform="translate(-268.711 -958.387)">
    <circle id="Elipse_5614" data-name="Elipse 5614" cx="35" cy="35" r="35" transform="translate(268.711 958.387)" fill="#fff"/>
    <g id="Grupo_1114104" data-name="Grupo 1114104" transform="translate(282.711 971.387)">
      <g id="Grupo_1114103" data-name="Grupo 1114103" clip-path="url(#clip-path)">
        <path id="Trazado_888459" data-name="Trazado 888459" d="M71.562,103.175a11.531,11.531,0,1,1-8.072,18.841c-6-7.178-1.167-18.172,8.072-18.841m2.145,5.072c.225-1.172-.306-3.023-1.839-2.4-1.2.489-.638,2.259-.781,2.4a3.854,3.854,0,0,0-2.681,6.734c1.938,1.685,3.651.608,5.707,1.023a1.3,1.3,0,0,1,.4,2.34c-.542.358-3,.322-3.726.235-.915-.11-1.535-.985-2.439-.416-2.164,1.362,1.268,3.381,2.737,2.922-.592,3.427,3.157,3.322,2.616,0a3.859,3.859,0,0,0,.3-7.711c-1.48-.155-4.611.725-4.29-1.58.193-1.39,3.536-1.2,4.519-.892.916.284,1.708,1.73,2.786.471,1.362-1.591-2.006-3.3-3.31-3.125" transform="translate(-53.259 -90.289)" fill="#023263"/>
        <path id="Trazado_888460" data-name="Trazado 888460" d="M19.077,47.366a14.022,14.022,0,0,0-13.8,11.442C3,71.4,17.281,80.306,27.508,72.676c.181-.032.309.2.415.3A35.825,35.825,0,0,1,30.2,75.938a1.04,1.04,0,0,1-.083,1.1,13.6,13.6,0,0,1-2.064,1.3,19.139,19.139,0,1,1-9.687-36.061,1.042,1.042,0,0,1,.708.666c.231,1.232-.166,3.115,0,4.422" transform="translate(0 -37.009)" fill="#023263"/>
        <path id="Trazado_888461" data-name="Trazado 888461" d="M204.666,17.441a14.3,14.3,0,0,0-6.608-6.041L198.038.945c.141-1.325,1.7-.911,2.648-.773a17.444,17.444,0,0,1,14.37,13.8c.131.688.64,3.095-.065,3.43Z" transform="translate(-173.356 -0.001)" fill="#023263"/>
        <path id="Trazado_888462" data-name="Trazado 888462" d="M259.174,184.1h8.288c1,0,.251,2.982.1,3.592A16.041,16.041,0,0,1,263.289,195c-.458.4-.868.846-1.506.629-.6-.205-2.939-3.846-3.583-4.527a14.7,14.7,0,0,1,.641-2.295,18.322,18.322,0,0,0,.333-4.714" transform="translate(-226.015 -161.153)" fill="#023263"/>
      </g>
    </g>
  </g>
</svg>
