<svg xmlns="http://www.w3.org/2000/svg" xmlns:xlink="http://www.w3.org/1999/xlink" width="122" height="122" viewBox="0 0 122 122">
  <defs>
    <clipPath id="clip-path">
      <rect id="Rectángulo_404919" data-name="Rectángulo 404919" width="122" height="122" fill="none"/>
    </clipPath>
    <clipPath id="clip-path-2">
      <rect id="Rectángulo_404925" data-name="Rectángulo 404925" width="60" height="60" fill="#fff" stroke="#707070" stroke-width="1"/>
    </clipPath>
    <clipPath id="clip-path-3">
      <rect id="Rectángulo_407106" data-name="Rectángulo 407106" width="52.514" height="54.44" fill="#fff"/>
    </clipPath>
  </defs>
  <g id="Grupo_1110109" data-name="Grupo 1110109" transform="translate(-179.664 -3667)">
    <g id="Grupo_1110094" data-name="Grupo 1110094" transform="translate(179.664 3667)">
      <g id="Grupo_1110058" data-name="Grupo 1110058" clip-path="url(#clip-path)">
        <path id="Trazado_883529" data-name="Trazado 883529" d="M4.833,30,18.4,105.124c1.993,11.036,12.965,18.438,24.506,16.532a21.661,21.661,0,0,0,9.963-4.4l61.257-48.8A19.672,19.672,0,0,0,116.844,39.9a21.222,21.222,0,0,0-8.966-6.05L33.054,7.521C22.063,3.652,9.874,9.037,5.829,19.546A19.436,19.436,0,0,0,4.833,30" transform="translate(0.242 0.045)" fill="#0354a5"/>
        <path id="Trazado_883530" data-name="Trazado 883530" d="M120.213,86.305h0a20.942,20.942,0,0,1-6.082,8.079,21.885,21.885,0,0,1-9.986,4.527L25.824,113.2C14.063,115.378,2.679,108.03.4,96.785A19.878,19.878,0,0,1,1.23,85.949l26.226-72c.122-.336.254-.673.393-1A21.378,21.378,0,0,1,44.442.284a22.817,22.817,0,0,1,10.636.831,21.614,21.614,0,0,1,9.353,6.1l52.094,57.712a19.905,19.905,0,0,1,3.689,21.382M28.825,13.331c-.132.313-.259.635-.375.955l-26.225,72C-1.53,96.6,4.171,107.867,14.957,111.458a21.593,21.593,0,0,0,10.67.749l78.319-14.284c11.218-2.046,18.578-12.4,16.439-23.126a19.433,19.433,0,0,0-4.659-9.215L63.632,7.869A21.344,21.344,0,0,0,34.464,5.823a19.823,19.823,0,0,0-5.639,7.508" transform="translate(0 0)" fill="#1d6350"/>
      </g>
    </g>
    <g id="Grupo_1108078" data-name="Grupo 1108078" transform="translate(208.664 3698)" clip-path="url(#clip-path-2)">
      <g id="Grupo_1114085" data-name="Grupo 1114085" transform="translate(3.502 2.531)">
        <g id="Grupo_1114084" data-name="Grupo 1114084" clip-path="url(#clip-path-3)">
          <path id="Trazado_888352" data-name="Trazado 888352" d="M1.769,84.851H50.5c.332,0,.988,1.109.334,1.616l-49.79.151-.835-.2L0,85.578,0,39.155c.182-1.4,1.769-.783,1.769-.152Z" transform="translate(0 -32.178)" fill="#fff"/>
          <path id="Trazado_888353" data-name="Trazado 888353" d="M46.485,20.187c-.161.161.13,3.868,0,4.558a.986.986,0,0,1-.877.712c-.929,0-4.353-4.613-5.474-5.237-3.656-.309-7.72.3-11.326-.036a3.493,3.493,0,0,1-3.45-3.111c-.4-4.482.315-9.547,0-14.093a3.507,3.507,0,0,1,3.118-2.8c6.309-.565,13.452.436,19.85.006A3.518,3.518,0,0,1,51.287,3.3c.471,4.363-.323,9.592-.039,14.045-.554,2.191-2.637,3.082-4.764,2.838m-1.759,2.081V18.987a1.522,1.522,0,0,1,.2-.358c1.548-.6,3.926.562,4.561-1.6l.028-13.717a1.9,1.9,0,0,0-1.36-1.36L27.99,2.092a2.054,2.054,0,0,0-1.026,1.854,90.3,90.3,0,0,0-.009,12.007c.093,1.262.354,2.136,1.7,2.463l12.279.043Z" transform="translate(-21.193 0)" fill="#fff"/>
          <path id="Trazado_888354" data-name="Trazado 888354" d="M66.977,55.469c-.429-.428-.025-1.933-.277-2.521L27.575,92.076c-1.013.936-2.027.066-1.451-1.132l39.214-39.2a10.459,10.459,0,0,0-1.829-.09A.88.88,0,0,1,63.49,49.9a33.3,33.3,0,0,1,4.569.088c.3.144.446.636.483.957a23.269,23.269,0,0,1-.038,3.97.939.939,0,0,1-1.528.556" transform="translate(-21.803 -41.881)" fill="#fff"/>
          <path id="Trazado_888355" data-name="Trazado 888355" d="M195.425,165.37c15.348-.7,16.337,22.51,1.24,23.322-15.462.832-16.559-22.619-1.24-23.322m-6.472,4.648a9.951,9.951,0,0,0,2.022,15.55c8.636,4.89,18.261-4.245,13.826-13.026a9.954,9.954,0,0,0-15.848-2.524" transform="translate(-154.963 -138.893)" fill="#fff"/>
          <path id="Trazado_888356" data-name="Trazado 888356" d="M83.865,20.878c.93-.325,1.583.339,1.25,1.247l-8.647,12a.883.883,0,0,1-1.325-1.166Z" transform="translate(-62.947 -17.467)" fill="#fff"/>
          <path id="Trazado_888357" data-name="Trazado 888357" d="M112.362,71.046a2.923,2.923,0,1,1-2.16,3.2,2.928,2.928,0,0,1,2.16-3.2m.318,1.753a1.142,1.142,0,0,0-.074,2.089c2.032.885,2.172-2.713.074-2.089" transform="translate(-92.553 -59.622)" fill="#fff"/>
          <path id="Trazado_888358" data-name="Trazado 888358" d="M69.582,19.115c3.9-.657,4.582,5.019,1.366,5.686-4.285.889-4.971-5.079-1.366-5.686M71.016,21.2c-.892-1.107-2.761.42-1.786,1.549A1.183,1.183,0,0,0,71.016,21.2" transform="translate(-56.493 -16.012)" fill="#fff"/>
          <path id="Trazado_888359" data-name="Trazado 888359" d="M234.53,191.722c.034.055.943.321,1.208.473.763.438,2.588,2.072,1.66,3s-1.475-.5-1.921-.975c-1.764-1.865-5.253,0-3.775,1.855.637.8,2.625.914,3.649,1.311,3.925,1.523,3.158,6.064-.835,6.529.216,2.107-2.085,2.282-1.783.008a4.352,4.352,0,0,1-2.546-1.26c-.535-.6-1.573-2.391-.363-2.728,1.146-.32,1.016.645,1.412,1.246,1.208,1.83,5.56,1.32,4.8-1.122-.566-1.821-5.048-.837-6.175-3.586a3.325,3.325,0,0,1,1.233-4.06c.346-.232,1.583-.614,1.633-.688.152-.222-.229-1.8,1.022-1.556,1.01.2.594,1.254.781,1.555" transform="translate(-192.573 -159.714)" fill="#fff"/>
        </g>
      </g>
    </g>
  </g>
</svg>
