<svg xmlns="http://www.w3.org/2000/svg" xmlns:xlink="http://www.w3.org/1999/xlink" width="70" height="70" viewBox="0 0 70 70">
  <defs>
    <clipPath id="clip-path">
      <rect id="Rectángulo_407121" data-name="Rectángulo 407121" width="42" height="39.823" fill="#023263"/>
    </clipPath>
  </defs>
  <g id="Grupo_1113936" data-name="Grupo 1113936" transform="translate(-268.711 -957.971)">
    <circle id="Elipse_5614" data-name="Elipse 5614" cx="35" cy="35" r="35" transform="translate(268.711 957.971)" fill="#fff"/>
    <g id="Grupo_1114102" data-name="Grupo 1114102" transform="translate(283.378 974.27)">
      <g id="Grupo_1114101" data-name="Grupo 1114101" clip-path="url(#clip-path)">
        <path id="Trazado_888456" data-name="Trazado 888456" d="M54.518,0A6.183,6.183,0,0,0,52.5,2.756a10.8,10.8,0,0,0-.3,1.088v16.7H50.075a3.463,3.463,0,0,0-1.709,1.747v7.618c-.159.056-.547-.062-.547-.21V17.333a7.482,7.482,0,0,0-3.144,0V29.7c-.435.42-1.21.129-1.777.21v-9.3a2.308,2.308,0,0,0-.342-.349H39.823l-.205.21v9.435H37.841V25.44c-.494-.172-3.281-.345-3.281.21v4.263c-.567-.08-1.342.21-1.777-.21V22.854l-.205-.21H29.844l-.205.21V29.7l-.226.188-1.29.217c-.3.236-.037,1.062.217,1.062H48.366V38.02c-1.5-.03-2.86-.706-3.111-2.34-.131-.851.239-1.843-.454-2.471a4.517,4.517,0,0,0-.6-.36H25.265V3.564C25.265,2.043,27.71,0,29.161,0ZM37.773,4.054c-.329.136-.224.839,0,.839H49.8c.271,0,.271-.839,0-.839ZM30.757,5.427c-.195-.328.144-1.319-.961-.794.069,1.071-.082.683-.689,1.042a2.525,2.525,0,0,0,.633,4.636c.646.159,1.1-.149,1.6.6a1.379,1.379,0,1,1-2.188,1.678c-.343-.465-.219-.955-.609-1.345l-.372.041c-.834.418.016,1.967.577,2.415.243.194.782.359.891.487.3.354-.068,1.337,1.031.781.049-1.092.03-.655.652-1.009A2.479,2.479,0,0,0,31.216,9.5c-.931-.383-2.1-.047-2.342-1.389a1.4,1.4,0,0,1,2.41-1.2c.436.5.2,1.514.888,1.463,1.071-.078.2-1.917-.38-2.4-.229-.19-1.006-.5-1.036-.548M49.665,7.548H37.909c-.4,0-.4.978,0,.978H49.665c.169,0,.466-.607.328-.824-.12,0-.255-.142-.328-.154M37.773,11.182c-.329.136-.224.839,0,.839H49.8c.271,0,.271-.839,0-.839Zm.137,3.494c-.489.171-.318.978,0,.978h6.015c.4,0,.4-.978,0-.978Z" transform="translate(-21.811)" fill="#023263"/>
        <path id="Trazado_888457" data-name="Trazado 888457" d="M27.512,169.657c0-.31-.133-.59-.143-.9-.162-4.931.139-9.894,0-14.829a1.611,1.611,0,0,1,1.438-1.745c3.306-.407,7.4.3,10.793.012a1.651,1.651,0,0,1,1.3,1.471c-.289,4.87.425,10.285.018,15.091a1.659,1.659,0,0,1-.28.9c.45-.072,1.649.021,1.3.7l-.307.248-38.92.014c-.74-.1-.346-.378-.614-.764-.47-.675-1.232-.8-1.719-2.019a4.528,4.528,0,0,1-.138-3.214H22.454c.25,1.566-.071,2.947,1.238,4.115a5.961,5.961,0,0,0,1.837.917Zm2.119-15.376-.205.21v2.935l.205.21h9.022l.205-.21v-2.935l-.205-.21Zm3.349,6.011c-.134.045-.3-.14-.342-.14H29.9a2.308,2.308,0,0,0-.342.349v2.376a2.308,2.308,0,0,0,.342.349h2.871l.205-.21Zm2.461,0v2.726l.205.21h3.007l.205-.21V160.5a2.308,2.308,0,0,0-.342-.349H35.782c-.045,0-.208.185-.342.14m-2.461,5.172H29.767l-.205.21v2.516l.205.21H32.98ZM35.44,168.4h3.212l.205-.21v-2.516l-.205-.21H35.44Z" transform="translate(0 -130.799)" fill="#023263"/>
        <path id="Trazado_888458" data-name="Trazado 888458" d="M233.086.216a4.243,4.243,0,0,1,4.546,5.071l-8.424-.07a4.308,4.308,0,0,1,3.878-5" transform="translate(-197.809 -0.176)" fill="#023263"/>
      </g>
    </g>
  </g>
</svg>
