<svg xmlns="http://www.w3.org/2000/svg" xmlns:xlink="http://www.w3.org/1999/xlink" width="70" height="70" viewBox="0 0 70 70">
  <defs>
    <clipPath id="clip-path">
      <rect id="Rectángulo_407123" data-name="Rectángulo 407123" width="42" height="42.016" fill="#023263"/>
    </clipPath>
  </defs>
  <g id="Grupo_1113938" data-name="Grupo 1113938" transform="translate(-268.711 -958.387)">
    <circle id="Elipse_5614" data-name="Elipse 5614" cx="35" cy="35" r="35" transform="translate(268.711 958.387)" fill="#fff"/>
    <g id="Grupo_1114106" data-name="Grupo 1114106" transform="translate(282.711 972.387)">
      <g id="Grupo_1114105" data-name="Grupo 1114105" clip-path="url(#clip-path)">
        <path id="Trazado_888463" data-name="Trazado 888463" d="M70.958,56.427a12.514,12.514,0,0,1,3.5,1.389l2.292-.958,2.593,2.551-.909,2.445a11.078,11.078,0,0,1,1.377,3.43l2.4,1.006v3.56l-2.4,1.006a12.514,12.514,0,0,1-1.389,3.5l.958,2.292-2.551,2.593-2.445-.91a11.078,11.078,0,0,1-3.43,1.377l-1.006,2.4h-3.56l-1.006-2.4a12.514,12.514,0,0,1-3.5-1.389l-2.292.958L57,76.731l.91-2.445a11.076,11.076,0,0,1-1.377-3.429l-2.4-1.006V66.29l2.4-1.006a12.514,12.514,0,0,1,1.389-3.5l-.958-2.292,2.551-2.593c.348-.173,1.913.92,2.371.921.136,0,1.537-.776,1.863-.912a8.12,8.12,0,0,1,1.64-.477l.86-2.286c.226-.272,3.221-.1,3.793-.069Zm-4.034,4.041a7.766,7.766,0,0,0-6.395,6.7c-.749,9.355,11.809,11.753,14.829,3.661,2.13-5.707-2.493-11.069-8.434-10.36" transform="translate(-47.183 -47.058)" fill="#023263"/>
        <path id="Trazado_888464" data-name="Trazado 888464" d="M10.4,251.182l1.409,1.479c-.1.684.229,4.029-.211,4.308-.741.469-6.063-.11-7.3.117-.363.069-.491.632-.77.9a2.144,2.144,0,0,1-3.471-1.018,2.106,2.106,0,0,1,3.778-1.72c.1.142.121.428.144.428H10.4Z" transform="translate(0 -218.938)" fill="#023263"/>
        <path id="Trazado_888465" data-name="Trazado 888465" d="M21.714,4v6.418h4.493l-1.479,1.409c-.684-.1-4.029.229-4.308-.211-.469-.741.11-6.063-.117-7.3-.068-.358-.912-.6-1.207-1.232a2.1,2.1,0,0,1,3-2.74A2.036,2.036,0,0,1,21.714,4" transform="translate(-16.452 0)" fill="#023263"/>
        <path id="Trazado_888466" data-name="Trazado 888466" d="M242.672,21.9h-6.418v4.493l-1.409-1.479c.1-.684-.229-4.029.211-4.308.741-.469,6.063.11,7.3-.117.358-.068.6-.912,1.232-1.207a2.1,2.1,0,0,1,2.74,3,2.036,2.036,0,0,1-3.653-.379" transform="translate(-204.675 -16.612)" fill="#023263"/>
        <path id="Trazado_888467" data-name="Trazado 888467" d="M251,236.438l1.479-1.409c.684.1,4.029-.229,4.308.211.469.741-.11,6.063.117,7.3.069.363.632.491.9.77a2.161,2.161,0,0,1-.64,3.337,2.111,2.111,0,0,1-2.1-3.644c.142-.1.428-.121.428-.144v-6.418Z" transform="translate(-218.777 -204.835)" fill="#023263"/>
        <path id="Trazado_888468" data-name="Trazado 888468" d="M120.355,114.406a6.31,6.31,0,1,1-5.518,8.651,6.323,6.323,0,0,1,5.518-8.651m.893,1.406c-1.452-.595-1.01.42-1.277.844-.03.047-.795.339-.995.481a2.209,2.209,0,0,0-.765,2.8c.845,1.808,3.5,1.07,3.977,2.321s-2.134,1.747-2.945.5c-.287-.443-.194-1.058-1.083-.791-1.041.312.157,2.008.765,2.394.229.145,1.019.379,1.05.427.251.386-.144,1.543,1.315.793.062-1.121.38-.713,1.151-1.128,1.864-1,1.446-3.416-.485-4.15-.647-.246-1.869-.306-2.339-.742-.927-.859.76-2.226,2.039-1.269.563.421.337,1.013,1.216.949,1.6-.115-.462-2.711-1.444-2.583Z" transform="translate(-99.712 -99.711)" fill="#023263"/>
      </g>
    </g>
  </g>
</svg>
