<svg xmlns="http://www.w3.org/2000/svg" xmlns:xlink="http://www.w3.org/1999/xlink" width="85" height="85" viewBox="0 0 85 85">
  <defs>
    <clipPath id="clip-path">
      <rect id="Rectángulo_407023" data-name="Rectángulo 407023" width="75" height="75" transform="translate(-0.578)" fill="#d5f1ff" stroke="#707070" stroke-width="1"/>
    </clipPath>
    <clipPath id="clip-path-2">
      <rect id="Rectángulo_407105" data-name="Rectángulo 407105" width="70.667" height="63.465" fill="#d5f1ff"/>
    </clipPath>
  </defs>
  <g id="Grupo_1114352" data-name="Grupo 1114352" transform="translate(-1020.289 -4619)">
    <rect id="Rectángulo_407014" data-name="Rectángulo 407014" width="85" height="85" transform="translate(1020.289 4619)" fill="#0354a5"/>
    <g id="Enmascarar_grupo_1108149" data-name="Enmascarar grupo 1108149" transform="translate(1025.289 4624)" clip-path="url(#clip-path)">
      <g id="Grupo_1114083" data-name="Grupo 1114083" transform="translate(1.756 5.401)">
        <g id="Grupo_1114082" data-name="Grupo 1114082" clip-path="url(#clip-path-2)">
          <path id="Trazado_888351" data-name="Trazado 888351" d="M59.721,15.24c2.8-.468,4.562,1.528,3.928,4.256,2.074.613,2.81,2.432,2.143,4.445,1.382-.073,2.514,1.516,2.583,2.784.024.428-.306,1.15-.124,1.44.061.1,1.376.487,1.884,1.252.981,1.479.426,2.577-.259,3.971a77.541,77.541,0,0,1-4.764,8.19A10.762,10.762,0,0,1,61.951,44.7c1.122,1.587,1.194,3.534-.507,4.745-.35.249-1.119.441-1.225.6-.225.332-.031,1.344-.139,1.885a3.131,3.131,0,0,1-2.568,2.187c.322,2.062-.419,3.721-2.566,4.226A3.174,3.174,0,0,1,52.335,62.4c-2.322.265-11,.256-13.011-.348-.722-.217-1.354-.637-2.066-.866-.457,2.546-3.8,2.962-5.4,1.235-1.724,1.206-3.291,1.333-4.857-.209-1.575,1.259-3.469,1.41-4.856-.2a3.43,3.43,0,0,1-4.631.192c-1.707-3.183-4.316-6.576-5.737-9.849a8.106,8.106,0,0,1-.838-4.121c-2.8.468-4.562-1.527-3.928-4.256-2.074-.613-2.81-2.432-2.143-4.445-1.311.118-2.552-1.567-2.626-2.758-.027-.428.327-1.257.173-1.47-.036-.05-.808-.282-1.058-.462A3.083,3.083,0,0,1,.269,30.979,75.363,75.363,0,0,1,6.486,20.6a19.965,19.965,0,0,1,2.228-1.831,3.465,3.465,0,0,1,.1-4.545c.415-.387,1.486-.58,1.632-.8.226-.334.031-1.343.139-1.885a3.131,3.131,0,0,1,2.568-2.187c-.322-2.062.419-3.721,2.566-4.226a3.174,3.174,0,0,1,2.611-4.057c2.322-.265,11-.256,13.011.348.722.217,1.354.637,2.066.866.505-2.567,3.743-2.96,5.4-1.235C40.53-.158,42.1-.281,43.66,1.259c1.586-1.312,3.451-1.4,4.856.2a3.367,3.367,0,0,1,4.819.025c1.518,2.876,3.537,5.679,5.006,8.555a9.156,9.156,0,0,1,1.381,5.2M42.215,17.466H38.268c-.073.339.108.41.307.6A15.091,15.091,0,0,0,42.929,21.2c1.494.623,5.07,1.33,6.173,2.125.644.464,1.793,2.959,2.278,3.8.1.17-.058.336.345.256l5.307-9.065c1.187-2.76.784-4.7-.513-7.262A72.453,72.453,0,0,0,52,3.226c-.967-1.273-2.363-.782-1.9.888.186.669,2.716,3.823.41,3.822-1.5,0-3.018-5.688-4.458-5.645a1.308,1.308,0,0,0-.87.749c-.4,1.372,2.167,3.23,1.395,4.418a1.011,1.011,0,0,1-1.641.144c-.9-.9-2.385-5.153-3.545-5.322a1.114,1.114,0,0,0-1.258,1.085c.066.787,1.757,2.481,1.784,3.473C41.952,8.07,40.79,8.332,40,7.331c-.706-.9-2.523-4.853-3.154-5.145A1.054,1.054,0,0,0,35.317,3.3l7.248,12.6c.314.429.157,1.423-.35,1.566m-2.328-2.024c-2.28-3.056-4.453-9.725-7.829-11.5-3.44-1.81-9.455-.38-13.333-.856a1.024,1.024,0,0,0-.611,1.847c.925.662,3.82-.534,4.286.991.264.865-.288,1.141-1.03,1.219-1.352.144-6.193-.686-6.2,1.113,0,1.751,3.391.826,4.338,1.147.808.274.689,1.786-.377,1.986-1.23.231-5.467-.314-6.17.1a1.254,1.254,0,0,0-.065,1.739c.978.624,4.3-.436,4.636.777.178.647.151,1.281-.627,1.428-1.41.266-5.876-.477-6.665.419-.456.519-.181,1.611.194,1.611h6.679c.7,0,1.474,1.6.458,2.077-.953.446-4.106.017-5.466.2A7.3,7.3,0,0,0,7.216,23.15C5.3,25.859,3.8,29.322,2.075,32.188c-.137.855.708,1.25,1.439,1.035,1.129-.332,1.8-4.912,3.686-2.595.67,1.489-5.014,6.449-1.513,7,1.232-.539,1.623-3.667,3.1-3.511a1.062,1.062,0,0,1,.789,1.506c-.388,1.175-2.9,4.3-2.907,5.222a1.115,1.115,0,0,0,1.292,1.084c1.214-.338,1.7-3.837,3.27-3.621.92.127.787,1.11.565,1.775-.374,1.124-2.81,4.164-2.887,5.026a1.162,1.162,0,0,0,1.312,1.107c.526-.077.808-.737,1.085-1.161,2.492-3.817,4.412-8.235,7.009-12.017,1.576-1.03,2.6,2.163,3.154,3.251.067.05.262-.115.3-.2a26.3,26.3,0,0,0,.681-3.367c.256-2.823-1-5.878-1.389-8.672l2.426-4.357c-1.077-.129-3.328.543-3.251-1.121.041-.887.774-1.049,1.521-1.117,5.012-.455,5.713.5,2.743,4.565.013.189.34.113.49.086a17.9,17.9,0,0,0,4.23-1.64c.98-.6,5.518-5.024,5.906-5.024Zm7.287,28.336H58.609a10.247,10.247,0,0,0,2.187-.849c2.352-1.3,5.739-7.588,7.057-10.147.3-.575,1.2-1.888.437-2.378-2.325-1.5-2.523,5.035-4.825,2.438-.67-1.489,5.014-6.449,1.513-7-1.236.529-1.6,3.639-3.057,3.461a1,1,0,0,1-.9-1.313c.408-1.628,4.934-6.016,1.681-6.449-1.281.561-1.748,3.83-3.27,3.621-.92-.127-.787-1.11-.565-1.775.376-1.128,2.808-4.157,2.887-5.026a1.169,1.169,0,0,0-1.12-1.119c-.7,0-.94.658-1.277,1.174-2.5,3.823-4.412,8.228-7.009,12.017-1.576,1.03-2.6-2.163-3.154-3.251-.067-.05-.262.115-.3.2a26.3,26.3,0,0,0-.681,3.367c-.255,2.809.987,5.851,1.352,8.635Zm-.028-19c-1.624-.651-3.484-1.023-5.085-1.694-2.635-1.1-4.593-3.373-6.727-5.211-2.135,1.837-4.092,4.107-6.727,5.211-1.6.671-3.461,1.043-5.085,1.694.171,2.757,1.2,5.13.993,7.977-.073,1.009-1.251,5.534-.993,5.935,1.624.651,3.484,1.023,5.085,1.694,2.635,1.1,4.593,3.373,6.727,5.211,2.135-1.837,4.092-4.107,6.727-5.211,1.6-.671,3.461-1.043,5.085-1.694-.171-2.757-1.2-5.13-.993-7.977.073-1.009,1.251-5.534.993-5.935M28.451,46H32.4c.073-.339-.108-.41-.307-.6a15.088,15.088,0,0,0-4.353-3.135c-1.528-.637-5.05-1.282-6.172-2.126-.677-.509-1.775-2.925-2.279-3.794-.1-.17.058-.336-.345-.257-2.184,4.6-7.478,9.4-5.523,14.83,1.763,2.657,3.33,6.918,5.25,9.323,1.019,1.276,2.356.772,1.9-.885-.173-.622-2.836-4.107-.215-3.845.981.1,2.615,4.439,3.463,5.252.467.448.808.579,1.315.134,1.477-1.3-1.9-3.563-1.04-4.885a1.011,1.011,0,0,1,1.641-.144c.9.9,2.385,5.153,3.545,5.322a1.114,1.114,0,0,0,1.258-1.085c-.044-.525-3.522-4.909-.67-4.59.987.111,2.764,4.453,3.547,5.368.847.988,1.961.492,1.941-.712L28.1,47.57c-.314-.429-.157-1.423.35-1.566m7.084,2.024H30.779c1.907,2.835,3.336,6.427,5.3,9.169,3.667,5.116,10.448,2.57,15.859,3.187a1.024,1.024,0,0,0,.611-1.847c-.925-.662-3.82.534-4.286-.991-.264-.865.288-1.141,1.03-1.219,1.352-.144,6.193.686,6.2-1.113,0-1.751-3.391-.826-4.338-1.147-.808-.274-.689-1.786.377-1.986,1.344-.252,5.36.366,6.235-.191a1.218,1.218,0,0,0,0-1.651c-.979-.624-4.3.435-4.635-.777-.178-.647-.151-1.281.627-1.428,1.41-.266,5.876.477,6.665-.419C60.879,47.1,60.6,46,60.228,46H45.251a2.817,2.817,0,0,1-.813-.606c-.475-.953,1.194-3.084,1.723-3.949-.013-.189-.34-.113-.49-.086A17.9,17.9,0,0,0,41.441,43c-1.228.754-5.185,4.868-5.906,5.024" transform="translate(0 0)" fill="#d5f1ff"/>
        </g>
      </g>
    </g>
  </g>
</svg>
