<svg xmlns="http://www.w3.org/2000/svg" xmlns:xlink="http://www.w3.org/1999/xlink" width="70" height="70" viewBox="0 0 70 70">
  <defs>
    <clipPath id="clip-path">
      <rect id="Rectángulo_407124" data-name="Rectángulo 407124" width="42.86" height="42.842" fill="#023263"/>
    </clipPath>
  </defs>
  <g id="Grupo_1113939" data-name="Grupo 1113939" transform="translate(-269 -958)">
    <circle id="Elipse_5614" data-name="Elipse 5614" cx="35" cy="35" r="35" transform="translate(269 958)" fill="#fff"/>
    <g id="Grupo_1113840" data-name="Grupo 1113840" transform="translate(283 972)">
      <g id="Grupo_1114108" data-name="Grupo 1114108" transform="translate(0 0.008)">
        <g id="Grupo_1114107" data-name="Grupo 1114107" clip-path="url(#clip-path)">
          <path id="Trazado_888469" data-name="Trazado 888469" d="M21.071,0A21.5,21.5,0,0,0,2.729,31.926c8.094,14.555,29.313,14.555,37.406,0C48.141,17.53,37.526-.3,21.071,0M16.683,30.449c-1.036.557-1.463.009-1.546,1.515-1.959,1.007-1.428-.547-1.765-1.065-.042-.064-1.1-.378-1.41-.573-.816-.517-2.425-2.795-1.027-3.214,1.194-.358,1.069.467,1.455,1.062,1.089,1.677,4.592,1.011,3.954-.669s-4.2-.689-5.339-3.117a2.967,2.967,0,0,1,1.027-3.762c.268-.192,1.3-.584,1.336-.646.36-.569-.235-1.932,1.715-1.134l.24,1.137c1.319-.172,4.083,3.314,1.939,3.468-1.181.085-.877-.709-1.633-1.275-1.717-1.285-3.982.551-2.737,1.7.631.585,2.272.666,3.14,1,2.593.985,3.154,4.226.651,5.571m6.892-10.933-.2-.2V4.117a17.217,17.217,0,0,1,15.4,15.4Z" transform="translate(0 0)" fill="#023263"/>
        </g>
      </g>
    </g>
  </g>
</svg>
