<svg xmlns="http://www.w3.org/2000/svg" xmlns:xlink="http://www.w3.org/1999/xlink" width="85" height="85" viewBox="0 0 85 85">
  <defs>
    <clipPath id="clip-path">
      <rect id="Rectángulo_407021" data-name="Rectángulo 407021" width="75" height="75" transform="translate(-0.434)" fill="#d5f1ff" stroke="#707070" stroke-width="1"/>
    </clipPath>
    <clipPath id="clip-path-2">
      <rect id="Rectángulo_407104" data-name="Rectángulo 407104" width="69.999" height="70.023" fill="#d5f1ff"/>
    </clipPath>
  </defs>
  <g id="Grupo_1114353" data-name="Grupo 1114353" transform="translate(-600.145 -4619)">
    <rect id="Rectángulo_407013" data-name="Rectángulo 407013" width="85" height="85" transform="translate(600.145 4619)" fill="#0354a5"/>
    <g id="Enmascarar_grupo_1108148" data-name="Enmascarar grupo 1108148" transform="translate(605.145 4624)" clip-path="url(#clip-path)">
      <g id="Grupo_1114081" data-name="Grupo 1114081" transform="translate(2.566 2)">
        <g id="Grupo_1114080" data-name="Grupo 1114080" clip-path="url(#clip-path-2)">
          <path id="Trazado_888348" data-name="Trazado 888348" d="M147.566,16.658c.249.282,1.709-1.5,2.021-1.69a2.934,2.934,0,0,1,3.883,4.285l-8.29,9.782c-.123.47,1.854,2.16,1.584,3.169l-.106,37.206c-.516.809-1.265.767-1.9.1v-32.5l-.3-.3H131.117v32.4c0,.879-1.975,1.65-2.211-.4l0-35.918a4.909,4.909,0,0,1,1.6-3.429,6.492,6.492,0,0,1-1.588-3.788,118.175,118.175,0,0,1-.01-15.851c.21-2.424,1.777-3.87,4.219-3.3-.4-2.666,1.391-4.926,4.2-4.014a3.1,3.1,0,0,1,6.018-.092,3.212,3.212,0,0,1,3.588,1.231,7.556,7.556,0,0,1,.635,1.572ZM141.6,14.8c-.223-.224-.23-.733-.257-1.045-.279-3.31.447-7.48.018-10.65-.164-1.214-1.805-1.575-2-.18-.453,3.3.375,7.5-.014,10.825-.2,1.727-1.94,1.768-2.2.184-.254-1.549.37-8.828-.261-9.467-.548-.556-1.616-.035-1.714.7-.3,1.434.357,8.985-.291,9.637a1.334,1.334,0,0,1-1.509,0c-.524-.527-.127-4.24-.245-5.27-.18-1.575-1.867-1.6-2.021-.008-.51,5.251.408,11.324.007,16.665a2.98,2.98,0,0,0,2.045,2.368,49.953,49.953,0,0,0,8.491.136,3.447,3.447,0,0,0,2.409-1.4c2.606-2.7,4.858-6.222,7.485-8.963l.414-1.342c-1.587-1.363-2.959,2-4.242,2.528s-2.047-.053-2.165-1.343c-.307-3.362.2-7.2.007-10.639a14.69,14.69,0,0,0-.448-3.061,1.141,1.141,0,0,0-1.753.656c-.216,1.426.372,9.047-.253,9.676a1.334,1.334,0,0,1-1.509,0m3.162,19.908c0-1.581.354-3.455-1.551-3.966-3.278.188-7.186-.411-10.389-.052-.5.056-1.7.6-1.7,1.108v2.909Z" transform="translate(-102.838 0)" fill="#d5f1ff"/>
          <path id="Trazado_888349" data-name="Trazado 888349" d="M6.214,113.345a3.607,3.607,0,0,1,2.708-2.519c.373-.035,1.212.18,1.315.118.214-.128.672-1.385,1.409-1.8a3.069,3.069,0,0,1,4.4,1.89c2.444-.877,4.437,1.4,4.007,3.811a3.155,3.155,0,0,1,3.719,1.8l.092,17.361a5.75,5.75,0,0,1-1.409,2.806,3.217,3.217,0,0,1,1.413,2.2l.007,17.066c-.177,1.5-2.017.7-2.017.189V143.935H9.023v12.336c0,.882-2.11.981-2.017-.189.443-5.373-.553-11.592.011-16.862a3.833,3.833,0,0,1,1.6-2.607L.188,126.394a2.8,2.8,0,0,1,4.034-3.433c.806.419,1.136,1.288,1.993,1.517Zm6.018-2.006v11.233c0,.422-1.631,1.062-1.967-.039-.356-2.638.351-6.032-.051-8.574-.177-1.119-1.492-1.432-1.761-.582-.075.238-.2,1.595-.23,1.975-.24,3.429.315,7.263.007,10.639-.11,1.209-.82,1.834-2.074,1.454-.536-.162-3.642-4.247-4.133-2.226-.05.461.341.815.587,1.158,2.151,3,5.26,5.77,7.416,8.832a4.047,4.047,0,0,0,2.106.9,44.483,44.483,0,0,0,7-.018c1.021-.139,2.725-1.148,2.725-2.289V117.357c0-.635-1.805-.635-1.805,0v5.015c0,.735-1.639,1.235-1.967.161-.356-2.638.351-6.032-.051-8.574-.223-1.408-1.757-1.407-1.981,0-.4,2.539.306,5.938-.051,8.574-.328,1.073-1.967.573-1.967-.161V111.339c0-.512-1.585-.783-1.805,0m9.628,30.39c-.087-1.271.449-2.907-.993-3.521-3.236.062-6.964-.39-10.15-.1-2.215.2-1.638,1.926-1.7,3.62Z" transform="translate(0 -86.958)" fill="#d5f1ff"/>
          <path id="Trazado_888350" data-name="Trazado 888350" d="M247.009,124.478c.857-.229,1.187-1.1,1.993-1.517a2.8,2.8,0,0,1,4.034,3.433l-8.431,10.22a3.829,3.829,0,0,1,1.6,2.607l-.1,17.354c-.762.635-1.736.571-1.889-.514-.687-4.855.448-11.211-.009-16.246-.091-1.007-.416-1.573-1.51-1.7-3.129-.363-6.985.244-10.192.047-1.608.507-1.07,2.244-1.146,3.568h9.929c1.025,0,1.23,2.207-.2,2.207h-9.729v12.136c0,.816-1.494,1.267-2.006.4V138.62a4.351,4.351,0,0,1,1.408-1.807,5.413,5.413,0,0,1-1.416-3c-.474-5.3.374-11.288,0-16.662a3.032,3.032,0,0,1,3.816-2.3c-.4-2.435,1.489-4.684,4.007-3.811a3.069,3.069,0,0,1,4.4-1.89c.734.409,1.2,1.674,1.409,1.8a4.911,4.911,0,0,1,2.489.324,4.1,4.1,0,0,1,1.534,2.076Zm-7.823-13.139v11.033c0,.735-1.639,1.235-1.967.161-.356-2.638.351-6.032-.051-8.574-.223-1.408-1.757-1.407-1.981,0-.4,2.539.306,5.938-.051,8.574-.328,1.073-1.967.573-1.967-.161v-5.015c0-.635-1.805-.635-1.805,0v16.449c0,1.142,1.7,2.15,2.725,2.289a44.485,44.485,0,0,0,7,.018,4.048,4.048,0,0,0,2.106-.9c2.156-3.061,5.265-5.829,7.416-8.832.246-.343.637-.7.587-1.158-.491-2.022-3.6,2.063-4.133,2.226-1.255.38-1.964-.245-2.074-1.454-.308-3.375.247-7.209.007-10.639-.026-.381-.155-1.738-.23-1.975-.269-.85-1.584-.537-1.761.582-.4,2.542.305,5.935-.051,8.574-.336,1.1-1.967.461-1.967.039V111.339c0-.512-1.585-.783-1.805,0" transform="translate(-183.225 -86.958)" fill="#d5f1ff"/>
        </g>
      </g>
    </g>
  </g>
</svg>
