<svg xmlns="http://www.w3.org/2000/svg" xmlns:xlink="http://www.w3.org/1999/xlink" width="150" height="150" viewBox="0 0 150 150">
  <defs>
    <clipPath id="clip-path">
      <rect id="Rectángulo_404919" data-name="Rectángulo 404919" width="150" height="150" fill="#41c9a5"/>
    </clipPath>
    <clipPath id="clip-path-2">
      <rect id="Rectángulo_404925" data-name="Rectángulo 404925" width="60" height="60" transform="translate(0 -0.066)" fill="#fafafa" stroke="#707070" stroke-width="1"/>
    </clipPath>
    <clipPath id="clip-path-3">
      <rect id="Rectángulo_407126" data-name="Rectángulo 407126" width="53.796" height="53.873" fill="#fafafa"/>
    </clipPath>
  </defs>
  <g id="Grupo_1113977" data-name="Grupo 1113977" transform="translate(-179.664 -3667)">
    <g id="Grupo_1110094" data-name="Grupo 1110094" transform="translate(179.664 3667)">
      <g id="Grupo_1110058" data-name="Grupo 1110058" clip-path="url(#clip-path)">
        <path id="Trazado_883529" data-name="Trazado 883529" d="M4.9,35.444l16.68,92.369c2.45,13.569,15.941,22.669,30.131,20.326a26.632,26.632,0,0,0,12.25-5.412l75.316-60a24.187,24.187,0,0,0,3.343-35.112A26.093,26.093,0,0,0,131.6,40.179l-92-32.37C26.088,3.052,11.1,9.673,6.129,22.593A23.9,23.9,0,0,0,4.9,35.444" transform="translate(1.335 1.494)" fill="#023263"/>
        <path id="Trazado_883530" data-name="Trazado 883530" d="M147.8,106.113h0a25.748,25.748,0,0,1-7.478,9.933,26.908,26.908,0,0,1-12.278,5.565l-96.3,17.565C17.29,141.859,3.294,132.824.488,119a24.44,24.44,0,0,1,1.024-13.323L33.758,17.153c.15-.414.312-.827.483-1.23A26.285,26.285,0,0,1,54.641.349,28.053,28.053,0,0,1,67.719,1.371a26.574,26.574,0,0,1,11.5,7.495l64.049,70.958a24.474,24.474,0,0,1,4.536,26.289M35.441,16.39c-.162.385-.319.78-.461,1.174L2.735,106.084c-4.616,12.681,2.393,26.539,15.655,30.954a26.549,26.549,0,0,0,13.119.921L127.8,120.4c13.792-2.515,22.841-15.245,20.212-28.434a23.893,23.893,0,0,0-5.728-11.33L78.237,9.675A26.243,26.243,0,0,0,42.374,7.159a24.372,24.372,0,0,0-6.933,9.231" transform="translate(0 0)" fill="#41c9a5"/>
      </g>
    </g>
    <g id="Enmascarar_grupo_1108078" data-name="Enmascarar grupo 1108078" transform="translate(224.664 3712)" clip-path="url(#clip-path-2)">
      <g id="Grupo_1114112" data-name="Grupo 1114112" transform="translate(3 2.934)">
        <g id="Grupo_1114111" data-name="Grupo 1114111" clip-path="url(#clip-path-3)">
          <path id="Trazado_888482" data-name="Trazado 888482" d="M.542,7.1C-.465,6.813.223,4.366.5,3.669A6.2,6.2,0,0,1,5.5.026L42.347,0A6.208,6.208,0,0,1,48.124,5.33l.026,24.96a12.917,12.917,0,0,1-4.644,23.323c-12.627.5-25.349.1-38.009.2A6.189,6.189,0,0,1,0,48.2c-.017-.346.126-1.46.54-1.46h9.486V7.1ZM9.874,5.1C9.08,1.16,3.11,1.159,2.316,5.1ZM46.12,29.158V5.945a4.445,4.445,0,0,0-1.983-3.261,8.987,8.987,0,0,0-1.179-.517H10.8l1.189,2.282c.309,14.968.379,30.1-.036,45.066L10.8,51.677H33.781a14.142,14.142,0,0,1-5.084-6.87c-.371-.25-2.369.049-3.011-.074-1.061-.2-.734-2,0-2h2.545a20.859,20.859,0,0,1,.308-4.936H25.529c-.388,0-1.167-1.817.46-2.008.7-.082,2.919.172,3.321-.072a16.975,16.975,0,0,1,3.7-4.86H25.529c-.388,0-1.167-1.817.46-2.008,3.334-.391,7.432.36,10.8,0,.856-.09,1.857-.537,2.778-.616a15.187,15.187,0,0,1,6.553.923m-5.893,1.125c-10.522.877-13.7,14.782-4.545,20.032C44.3,55.257,54.406,46.732,51.1,37.368a10.852,10.852,0,0,0-10.871-7.085M9.874,48.747H2.316c.794,3.937,6.763,3.938,7.558,0" transform="translate(0 -0.001)" fill="#fafafa"/>
          <path id="Trazado_888483" data-name="Trazado 888483" d="M140.425,36.867a8.472,8.472,0,0,1,1.948-.023c.535.066,1.144.449,1.557.453.463,0,1.167-.388,1.716-.454,8.529-1.016,8.712,12.32-.154,11.226-.5-.062-1.076-.419-1.415-.442-.452-.03-1.051.379-1.546.446a5.707,5.707,0,0,1-6.695-6.386,5.854,5.854,0,0,1,4.589-4.82M142,38.988a3.521,3.521,0,0,0-3.632,1.687,3.628,3.628,0,0,0,2.941,5.4c1.353.129.334-.483.047-1.127A5.671,5.671,0,0,1,142,38.988m4.011,7.092c4.05.471,5.619-5.268,2.007-6.865-.323-.143-1.975-.615-2-.153a5.82,5.82,0,0,1,.688,5.629c-.1.243-.808,1.286-.691,1.389m-2.062-6c-1.288.222-1.278,4.224-.021,4.921a3.785,3.785,0,0,0,1.162-2.395c.012-.5-.537-2.631-1.14-2.527" transform="translate(-114.856 -31.114)" fill="#fafafa"/>
          <path id="Trazado_888484" data-name="Trazado 888484" d="M162.739,142.254l14.076.048c.789.346.617,1.921-.374,1.932l-13.732-.011a1.037,1.037,0,0,1,.03-1.969" transform="translate(-137.023 -120.313)" fill="#fafafa"/>
          <path id="Trazado_888485" data-name="Trazado 888485" d="M120.808,264.623a1.16,1.16,0,0,1,.238,1.147,21.586,21.586,0,0,1-2.463,2.48,1.5,1.5,0,0,1-.969-.049,8.878,8.878,0,0,1-1.481-1.61,1.089,1.089,0,0,1,2.019-.781c.649-.592,1.7-2.155,2.657-1.186" transform="translate(-98.175 -223.546)" fill="#fafafa"/>
          <path id="Trazado_888486" data-name="Trazado 888486" d="M120.812,219.709a1.194,1.194,0,0,1,.234,1.15,21.6,21.6,0,0,1-2.463,2.48,1.5,1.5,0,0,1-.969-.049,8.872,8.872,0,0,1-1.481-1.61,1.089,1.089,0,0,1,2.019-.781c.648-.609,1.674-2.107,2.661-1.189" transform="translate(-98.175 -185.575)" fill="#fafafa"/>
          <path id="Trazado_888487" data-name="Trazado 888487" d="M120.811,129.805a1.19,1.19,0,0,1,.235,1.15,21.6,21.6,0,0,1-2.463,2.48,1.5,1.5,0,0,1-.969-.049,8.873,8.873,0,0,1-1.481-1.611,1.089,1.089,0,0,1,2.019-.781c.591-.609,1.737-2.063,2.66-1.189" transform="translate(-98.175 -109.553)" fill="#fafafa"/>
          <path id="Trazado_888488" data-name="Trazado 888488" d="M120.811,174.805a1.19,1.19,0,0,1,.235,1.15,21.6,21.6,0,0,1-2.463,2.48,1.5,1.5,0,0,1-.969-.049,8.873,8.873,0,0,1-1.481-1.611,1.089,1.089,0,0,1,2.019-.781c.591-.609,1.737-2.063,2.66-1.189" transform="translate(-98.175 -147.613)" fill="#fafafa"/>
          <path id="Trazado_888489" data-name="Trazado 888489" d="M243.481,213.981v3.393c3.918,1,4.171,5.923.676,7.7-.181.092-.637.16-.659.186-.146.168.261,1.223-.483,1.753-1.091.776-1.948-.548-1.692-1.616-1.035.266-4.267-1.279-2.892-2.581.758-.718,2.066.466,2.891.577v-4.55c-2.134-1-3.559-2.66-2.5-5.119.684-1.583,2.208-1.711,2.427-2.046s-.1-1.7,1.068-1.716c1.321-.018.965,1.306,1.232,1.715s2.789.564,2.127,2.112c-.487,1.139-1.4.536-2.2.2m-2.159,2.314v-2.314c-.85.507-1.178,2.017,0,2.314m2.159,6.632c1.278-.473,1.432-2.832,0-3.239Z" transform="translate(-201.372 -177.574)" fill="#fafafa"/>
        </g>
      </g>
    </g>
  </g>
</svg>
