<svg xmlns="http://www.w3.org/2000/svg" xmlns:xlink="http://www.w3.org/1999/xlink" width="150" height="150" viewBox="0 0 150 150">
  <defs>
    <clipPath id="clip-path">
      <rect id="Rectángulo_404919" data-name="Rectángulo 404919" width="150" height="150" fill="#41c9a5"/>
    </clipPath>
    <clipPath id="clip-path-2">
      <rect id="Rectángulo_404925" data-name="Rectángulo 404925" width="60" height="60" transform="translate(0 -0.066)" fill="#fff" stroke="#707070" stroke-width="1"/>
    </clipPath>
    <clipPath id="clip-path-3">
      <rect id="Rectángulo_407125" data-name="Rectángulo 407125" width="49.135" height="56.124" fill="#fff"/>
    </clipPath>
  </defs>
  <g id="Grupo_1113973" data-name="Grupo 1113973" transform="translate(-179.664 -3667)">
    <g id="Grupo_1110094" data-name="Grupo 1110094" transform="translate(179.664 3667)">
      <g id="Grupo_1110058" data-name="Grupo 1110058" clip-path="url(#clip-path)">
        <path id="Trazado_883529" data-name="Trazado 883529" d="M4.9,35.444l16.68,92.369c2.45,13.569,15.941,22.669,30.131,20.326a26.632,26.632,0,0,0,12.25-5.412l75.316-60a24.187,24.187,0,0,0,3.343-35.112A26.093,26.093,0,0,0,131.6,40.179l-92-32.37C26.088,3.052,11.1,9.673,6.129,22.593A23.9,23.9,0,0,0,4.9,35.444" transform="translate(1.335 1.494)" fill="#023263"/>
        <path id="Trazado_883530" data-name="Trazado 883530" d="M147.8,106.113h0a25.748,25.748,0,0,1-7.478,9.933,26.908,26.908,0,0,1-12.278,5.565l-96.3,17.565C17.29,141.859,3.294,132.824.488,119a24.44,24.44,0,0,1,1.024-13.323L33.758,17.153c.15-.414.312-.827.483-1.23A26.285,26.285,0,0,1,54.641.349,28.053,28.053,0,0,1,67.719,1.371a26.574,26.574,0,0,1,11.5,7.495l64.049,70.958a24.474,24.474,0,0,1,4.536,26.289M35.441,16.39c-.162.385-.319.78-.461,1.174L2.735,106.084c-4.616,12.681,2.393,26.539,15.655,30.954a26.549,26.549,0,0,0,13.119.921L127.8,120.4c13.792-2.515,22.841-15.245,20.212-28.434a23.893,23.893,0,0,0-5.728-11.33L78.237,9.675A26.243,26.243,0,0,0,42.374,7.159a24.372,24.372,0,0,0-6.933,9.231" transform="translate(0 0)" fill="#41c9a5"/>
      </g>
    </g>
    <g id="Enmascarar_grupo_1108078" data-name="Enmascarar grupo 1108078" transform="translate(224.664 3712)" clip-path="url(#clip-path-2)">
      <g id="Grupo_1114110" data-name="Grupo 1114110" transform="translate(5.532 1.934)">
        <g id="Grupo_1114109" data-name="Grupo 1114109" clip-path="url(#clip-path-3)">
          <path id="Trazado_888470" data-name="Trazado 888470" d="M2.9,6.677A2.033,2.033,0,0,0,1.565,8.359L1.577,44.81c.014.712-.986,1.23-1.435.649L.074,7.475C1.351,4.009,4.735,5.371,7.54,5c.3-.66.02-1.175.329-1.911C8.762.97,12.252,1.922,14.016,1.675,14.4,1.544,14.469.3,15.78.11A30.619,30.619,0,0,1,20.787.1C21.9.224,22.239.771,22.7,1.707c2.849.065,6.729-.9,6.483,3.365,2.166.235,5.1-.733,6.747,1.088A5.188,5.188,0,0,1,36.866,8.2V22.729l4.242-4.248c1.134-.717,2-.034,2.354-.172.825-.32,1.322-2.252,2.978-1.936a6.09,6.09,0,0,1,2.629,2.457,2.254,2.254,0,0,1-.208,1.645c-.272.443-1.538,1.387-1.616,1.725-.13.57.542,1.978-.339,2.7L36.9,35.2l-.034,17.462A3.641,3.641,0,0,1,33.5,56.124l-30.44-.005C2.111,56.236,0,54.472,0,53.63v-5.3c0-.177.621-.526.854-.407,1.257.185.506,4.095.748,5.189A2.192,2.192,0,0,0,3.23,54.5l30.107.015a2.158,2.158,0,0,0,1.96-2.007V37.016a4.241,4.241,0,0,0-1.722,1.689l0,13.007a1.566,1.566,0,0,1-1.65,1.2L4.1,52.8l-.9-.848L3.13,9.8c-.174-.472.68-1.517,1.027-1.517h9.962V6.677ZM15.845,1.7c.051.157-.157.348-.157.4V9.647l.235.241h4.863l.235-.241V1.942L20.786,1.7ZM14.119,3.306H9.962c-.673,0-.83,1.238-.706,1.766h4.863ZM33.572,25.94a3.191,3.191,0,0,0,1.729-2c-.284-4.8.366-10.027,0-14.778A2.756,2.756,0,0,0,34.436,7c-1-.674-4.413-.182-5.813-.313-1.869-.175-.864-1.662-1.2-2.786a1.523,1.523,0,0,0-.676-.592H22.59V5.072h2.275c.823,0,.453,1.605,0,1.605H22.59V8.282h9.962c.2,0,1.02.684,1.02.883ZM22.59,9.888a2.016,2.016,0,0,1-1.56,1.694,25.258,25.258,0,0,1-5.351,0c-1.028-.221-1.2-.85-1.638-1.694H4.706V47.932H32V40.227c-1.012.678-1.863,2.153-2.87,2.762a48.424,48.424,0,0,1-6.572,2.426c-1.344.348-2.058-.632-1.746-1.949.5-2.111,1.756-4.461,2.33-6.6L32,27.786V9.888Zm23.485,8.2-1.362,1.347L46.2,20.961l1.339-1.522c-.174-.4-1.071-1.453-1.464-1.347M42,19.872l-9.364,9.52,3.705,3.761,9.442-9.574a.845.845,0,0,0-.122-.777c-.1-.171-2.576-2.709-2.744-2.808A1.031,1.031,0,0,0,42,19.872M31.454,30.6l-1.017,1.041c1.165.91,2.383,2.82,3.522,3.621.459.322,1.257-.684,1.112-.971Zm-2.2,2.247-4.311,4.412,3.705,3.761,4.281-4.264c.053-.307-3.253-3.367-3.675-3.908m-5.1,5.937c-.142.7-.738,1.293-.324,2.015a18.114,18.114,0,0,0,1.691,1.653c.335.093,1.876-.251,1.458-.862a37.042,37.042,0,0,0-2.825-2.806m-.316,4.493c.161-.183-.737-1.122-.939-.962L22.591,43.6ZM32,49.537H4.706v1.605H32Z" transform="translate(0 0)" fill="#fff"/>
          <path id="Trazado_888471" data-name="Trazado 888471" d="M44.92,87.933A3.283,3.283,0,0,1,44.9,81.5c.139-.164-.315-1.619.745-1.717s.726,1.329.859,1.55c.149.249,2.855.58,2.255,1.942-.521,1.183-1.55-.187-2.276-.155v3.853a3.762,3.762,0,0,1,1.729,6.665c-.369.31-1.6.788-1.658.872-.239.367.239,1.643-.8,1.739-.856.079-.941-1.106-.839-1.731-.935.07-3.67-.826-2.835-2.14.537-.845,2.085.665,2.835.534Zm0-4.655a1.507,1.507,0,0,0,0,2.889Zm1.569,5.458v4.013c1.881-.653,2.2-3.671,0-4.013" transform="translate(-35.35 -66.969)" fill="#fff"/>
          <path id="Trazado_888472" data-name="Trazado 888472" d="M101.926,100.319c-.533-.543-.146-1.318.665-1.407,3.783-.412,8.234.314,12.09-.008a.811.811,0,0,1,0,1.621c-3.863-.269-8.124.331-11.937,0-.245-.021-.642-.027-.818-.205" transform="translate(-85.729 -82.926)" fill="#fff"/>
          <path id="Trazado_888473" data-name="Trazado 888473" d="M52.658,196.421c3.944-.838,4.087,5.407.131,4.767-2.376-.384-2.427-4.279-.131-4.767m1.259,1.768c-1.072-1.1-2.192,1.461-.521,1.4a.838.838,0,0,0,.521-1.4" transform="translate(-42.975 -164.825)" fill="#fff"/>
          <path id="Trazado_888474" data-name="Trazado 888474" d="M52.658,247.421c3.944-.838,4.087,5.407.131,4.767-2.376-.384-2.427-4.279-.131-4.767m1.259,1.768a.814.814,0,0,0-1.368.671c.126,1.6,2.363.348,1.368-.671" transform="translate(-42.975 -207.639)" fill="#fff"/>
          <path id="Trazado_888475" data-name="Trazado 888475" d="M102.838,119.041c2.426.2,5.623-.39,7.957-.024,1.162.182.97,1.609-.3,1.759a47.363,47.363,0,0,1-7.362-.019c-.481-.071-.9-.209-1.008-.744a.9.9,0,0,1,.713-.972" transform="translate(-86.097 -99.809)" fill="#fff"/>
          <path id="Trazado_888476" data-name="Trazado 888476" d="M92.186,196.65l7.965-.028c.889.172.661,1.441-.157,1.6-2.3-.241-5.3.344-7.515-.007a.823.823,0,0,1-.293-1.562" transform="translate(-77.33 -165.059)" fill="#fff"/>
          <path id="Trazado_888477" data-name="Trazado 888477" d="M109.232,140.6a.919.919,0,0,1-.514,1.4,46.035,46.035,0,0,1-5.954,0c-.883-.169-.923-1.459-.161-1.6,1.023.156,6.144-.289,6.629.2" transform="translate(-86.053 -117.829)" fill="#fff"/>
          <path id="Trazado_888478" data-name="Trazado 888478" d="M102.773,160.357a27.572,27.572,0,0,1,3.888-.027c.822.157,1.041,1.423.157,1.6a36,36,0,0,1-4.206-.022c-.621-.218-.425-1.368.161-1.548" transform="translate(-86.193 -134.547)" fill="#fff"/>
          <path id="Trazado_888479" data-name="Trazado 888479" d="M92.375,216.387a19.361,19.361,0,0,1,3.54,0c.736.218.772,1.432.033,1.572a25.983,25.983,0,0,1-3.734-.032.822.822,0,0,1,.16-1.537" transform="translate(-77.358 -181.583)" fill="#fff"/>
          <path id="Trazado_888480" data-name="Trazado 888480" d="M96.282,247.554a.876.876,0,0,1-.515,1.4c-.533.1-3.544.078-3.843-.232a.855.855,0,0,1,.4-1.364,14.268,14.268,0,0,1,3.958.194" transform="translate(-77.339 -207.611)" fill="#fff"/>
          <path id="Trazado_888481" data-name="Trazado 888481" d="M92.268,268.7a.9.9,0,0,1-.041-1.487c.708-.339,5.84-.531,3.963,1.487Z" transform="translate(-77.443 -224.138)" fill="#fff"/>
        </g>
      </g>
    </g>
  </g>
</svg>
