<svg xmlns="http://www.w3.org/2000/svg" xmlns:xlink="http://www.w3.org/1999/xlink" width="122" height="122" viewBox="0 0 122 122">
  <defs>
    <clipPath id="clip-path">
      <rect id="Rectángulo_404919" data-name="Rectángulo 404919" width="122" height="122" fill="none"/>
    </clipPath>
    <clipPath id="clip-path-2">
      <rect id="Rectángulo_404925" data-name="Rectángulo 404925" width="60" height="60" transform="translate(-3.121 0)" fill="#fff" stroke="#707070" stroke-width="1"/>
    </clipPath>
    <clipPath id="clip-path-3">
      <rect id="Rectángulo_407133" data-name="Rectángulo 407133" width="53.25" height="52.962" fill="#fff"/>
    </clipPath>
  </defs>
  <g id="Grupo_1112262" data-name="Grupo 1112262" transform="translate(-179.664 -3667)">
    <g id="Grupo_1110094" data-name="Grupo 1110094" transform="translate(179.664 3667)">
      <g id="Grupo_1110058" data-name="Grupo 1110058" clip-path="url(#clip-path)">
        <path id="Trazado_883529" data-name="Trazado 883529" d="M4.833,30,18.4,105.124c1.993,11.036,12.965,18.438,24.506,16.532a21.661,21.661,0,0,0,9.963-4.4l61.257-48.8A19.672,19.672,0,0,0,116.844,39.9a21.222,21.222,0,0,0-8.966-6.05L33.054,7.521C22.063,3.652,9.874,9.037,5.829,19.546A19.436,19.436,0,0,0,4.833,30" transform="translate(0.242 0.045)" fill="#0354a5"/>
        <path id="Trazado_883530" data-name="Trazado 883530" d="M120.213,86.305h0a20.942,20.942,0,0,1-6.082,8.079,21.885,21.885,0,0,1-9.986,4.527L25.824,113.2C14.063,115.378,2.679,108.03.4,96.785A19.878,19.878,0,0,1,1.23,85.949l26.226-72c.122-.336.254-.673.393-1A21.378,21.378,0,0,1,44.442.284a22.817,22.817,0,0,1,10.636.831,21.614,21.614,0,0,1,9.353,6.1l52.094,57.712a19.905,19.905,0,0,1,3.689,21.382M28.825,13.331c-.132.313-.259.635-.375.955l-26.225,72C-1.53,96.6,4.171,107.867,14.957,111.458a21.593,21.593,0,0,0,10.67.749l78.319-14.284c11.218-2.046,18.578-12.4,16.439-23.126a19.433,19.433,0,0,0-4.659-9.215L63.632,7.869A21.344,21.344,0,0,0,34.464,5.823a19.823,19.823,0,0,0-5.639,7.508" transform="translate(0 0)" fill="#1d6350"/>
      </g>
    </g>
    <g id="Enmascarar_grupo_1108078" data-name="Enmascarar grupo 1108078" transform="translate(210.664 3698)" clip-path="url(#clip-path-2)">
      <g id="Grupo_1114116" data-name="Grupo 1114116" transform="translate(-0.121 3.999)">
        <g id="Grupo_1114115" data-name="Grupo 1114115" clip-path="url(#clip-path-3)">
          <path id="Trazado_888491" data-name="Trazado 888491" d="M41.019,25.64h9.94A3.658,3.658,0,0,1,52.6,26.812a4.278,4.278,0,0,1,.466,1.568c.564,5.731-.424,12.339.008,18.163a3.023,3.023,0,0,1-1.206,2.551,8.734,8.734,0,0,1-1.07.495H41.019v2.9a1.79,1.79,0,0,1-.51.429L.782,52.963l-.7-.7L0,11.466l.249-.847L10.492.356,11.076,0,40.51.086a1.79,1.79,0,0,1,.51.429ZM39.3,1.69H12.06v9.627a1.529,1.529,0,0,1-.7.7H1.729V51.076l.235.235H39.3V49.589H21.061a9.9,9.9,0,0,1-1.006-.4,3.221,3.221,0,0,1-1.27-2.643c-.443-5.949.334-12.457.02-18.464-.016-.871,1.272-2.44,2.1-2.44H39.3ZM10.339,10.3V3.1l-7.2,7.2ZM51.351,29.083c.029-.607.079-1.428-.617-1.653l-29.713.047c-.6.273-.524,1.06-.507,1.606Zm0,1.722H20.513v3.209l.235.235H51.116l.235-.235ZM20.513,36.049V47.163c0,.353.784.821,1.167.712h28.5c.383.109,1.167-.358,1.167-.712V36.049Z" transform="translate(0 -0.001)" fill="#fff"/>
          <path id="Trazado_888492" data-name="Trazado 888492" d="M119.759,21.817c12.451-1.133,15.292,17.578,3.167,20.23-14.286,3.124-17.534-18.923-3.167-20.23m0,1.722c-11.182,1.053-9.68,18.3,1.972,17,10.566-1.182,9.259-18.058-1.972-17" transform="translate(-93.173 -18.36)" fill="#fff"/>
          <rect id="Rectángulo_407128" data-name="Rectángulo 407128" width="10.331" height="1.722" transform="translate(3.451 22.195)" fill="#fff"/>
          <rect id="Rectángulo_407129" data-name="Rectángulo 407129" width="10.331" height="1.722" transform="translate(6.895 44.423)" fill="#fff"/>
          <rect id="Rectángulo_407130" data-name="Rectángulo 407130" width="10.331" height="1.722" transform="translate(3.451 47.867)" fill="#fff"/>
          <path id="Trazado_888493" data-name="Trazado 888493" d="M54.378,121.512H44.047V119.79h10.1c.445.413.164,1.162.235,1.722" transform="translate(-37.152 -101.039)" fill="#fff"/>
          <rect id="Rectángulo_407131" data-name="Rectángulo 407131" width="1.723" height="1.723" transform="translate(3.45 18.75)" fill="#fff"/>
          <rect id="Rectángulo_407132" data-name="Rectángulo 407132" width="1.723" height="1.723" transform="translate(3.45 44.422)" fill="#fff"/>
          <path id="Trazado_888494" data-name="Trazado 888494" d="M100.765,143.417H99.042v-1.723c.387.058,1.448-.149,1.654.147Z" transform="translate(-83.539 -119.5)" fill="#fff"/>
          <path id="Trazado_888495" data-name="Trazado 888495" d="M100.765,305.784c-.058.387.149,1.448-.147,1.654l-1.576.069v-1.723Z" transform="translate(-83.539 -257.918)" fill="#fff"/>
          <path id="Trazado_888496" data-name="Trazado 888496" d="M259.918,250.891c.848-.121,1.134.246,1.68.253.527.007.925-.332,1.681-.253a3.452,3.452,0,0,1,1.014,6.569c-1.34.558-1.7.015-2.694.041-.255.007-.52.209-.793.228a3.448,3.448,0,0,1-.888-6.838m-.117,4.972a4.387,4.387,0,0,1,0-3.13,1.649,1.649,0,0,0,0,3.13m3.6,0c1.58-.164,1.565-2.738.232-3.127-.515-.15.044.632.073.866a3.958,3.958,0,0,1-.305,2.261m-1.877-.469a1.519,1.519,0,0,0,.076-2.19,1.918,1.918,0,0,0-.076,2.19" transform="translate(-216.747 -211.597)" fill="#fff"/>
          <path id="Trazado_888497" data-name="Trazado 888497" d="M148.7,236.776c-3.647-1.7-6.714,3.36-3.492,5.764a3.509,3.509,0,0,0,5.544-3.4l1.549-.329a5.111,5.111,0,0,1-8.925,4.309c-3.488-4.112,1.041-10.127,5.885-7.912Z" transform="translate(-119.894 -197.988)" fill="#fff"/>
          <path id="Trazado_888498" data-name="Trazado 888498" d="M162.346,242.584c.258.059.317-.084.465-.236,1.1-1.13,2.006-3.188,3.131-4.389l.36-.051.983.764c.122.2-.017.352-.113.521-1.077,1.9-2.968,3.824-4.142,5.723-1.3.834-2.12-1.879-2.859-2.594l1.312-1.143Z" transform="translate(-135.099 -200.666)" fill="#fff"/>
          <path id="Trazado_888499" data-name="Trazado 888499" d="M157.274,38.785l.071,1.729a3.6,3.6,0,0,1,2.589,3.28l-1.7-.019c-.39-2.51-3.965-1.873-3.4.5.363,1.517,1.892,1.1,2.991,1.549a3.413,3.413,0,0,1-.533,6.444l-.02,1.859c-.407-.07-1.548.209-1.7-.257l-.094-1.628a3.54,3.54,0,0,1-2.433-3.28l1.7.017a1.729,1.729,0,1,0,3.428-.371c-.288-1.488-1.673-1.218-2.714-1.517-3.206-.921-3.195-5.665.068-6.443l.017-1.862Z" transform="translate(-129.089 -32.714)" fill="#fff"/>
        </g>
      </g>
    </g>
  </g>
</svg>
