<svg xmlns="http://www.w3.org/2000/svg" xmlns:xlink="http://www.w3.org/1999/xlink" width="70" height="70" viewBox="0 0 70 70">
  <defs>
    <clipPath id="clip-path">
      <circle id="Elipse_11719" data-name="Elipse 11719" cx="31" cy="31" r="31" transform="translate(587.711 3554.337)" fill="#023263" stroke="#707070" stroke-width="1"/>
    </clipPath>
    <clipPath id="clip-path-2">
      <rect id="Rectángulo_407349" data-name="Rectángulo 407349" width="47.313" height="57.404" fill="none"/>
    </clipPath>
  </defs>
  <g id="Grupo_1113906" data-name="Grupo 1113906" transform="translate(-585 -3551.479)">
    <circle id="Elipse_3951" data-name="Elipse 3951" cx="31" cy="31" r="31" transform="translate(588.711 3555.337)" fill="#41c9a5"/>
    <g id="Elipse_3952" data-name="Elipse 3952" transform="translate(585 3551.479)" fill="none" stroke="#d1d1d1" stroke-width="1">
      <circle cx="35" cy="35" r="35" stroke="none"/>
      <circle cx="35" cy="35" r="34.5" fill="none"/>
    </g>
    <g id="Enmascarar_grupo_1108145" data-name="Enmascarar grupo 1108145" transform="translate(1 1)" clip-path="url(#clip-path)">
      <g id="Grupo_1114363" data-name="Grupo 1114363" transform="translate(595.055 3558.933)">
        <g id="Grupo_1114362" data-name="Grupo 1114362" clip-path="url(#clip-path-2)">
          <path id="Trazado_889414" data-name="Trazado 889414" d="M27.058,2.285A4.174,4.174,0,0,0,22.137.209c-3.345,1.031-3.782,3.066-5.382,4.086s-3.382,1.453-4.31,4.8-.3,5.428-1.362,6.4c-1.757,1.6-2.32,6.053-.581,11.2,1.671,4.952,4.508,4.362,5.5,8.125.434,1.645,3.666,2.706,2.061,4.819,0,0,3.164,0,4.476-1.591,1.719-2.087,4.519-35.757,4.519-35.757" transform="translate(-3.402 0)" fill="#174035"/>
          <path id="Trazado_889415" data-name="Trazado 889415" d="M36.709,4.557a3.142,3.142,0,0,1,0-3.2C37.749-.1,44.294-1.114,50.11,6.3s7.272,11.2,5.673,13.525-3.438,8.726-3.1,11.053-2.717,5.09-5.626,6.108-1.6,2.762-1.6,2.762-2.938.116-3.724-2.123S36.709,4.557,36.709,4.557" transform="translate(-13.053 -0.118)" fill="#174035"/>
          <path id="Trazado_889416" data-name="Trazado 889416" d="M.484,70.149c.581-3.829,1.066-5.279,6.38-5.893,2.011-.233,7.484-.8,9.52-1.96S18.1,55.315,18.1,55.315H29.216s-.324,5.817,1.712,6.981,7.509,1.727,9.52,1.96c5.314.614,5.8,2.064,6.38,5.893a59.965,59.965,0,0,1,.485,7.174H0a59.605,59.605,0,0,1,.484-7.174" transform="translate(0 -19.919)" fill="#1d6350"/>
          <path id="Trazado_889417" data-name="Trazado 889417" d="M16.3,22.157h.246c-.1-.851-.211-1.688-.314-2.481-.536-4.106-1.742-16.1,12.585-16.1s13.122,12,12.586,16.1c-.1.793-.21,1.63-.314,2.481h.248c2.179-1.612,2.363,2.6,1.454,4.039a8.767,8.767,0,0,0-1.223,2.634c-.336.968-.893,1.095-1.357.99-.06.573-.109,1.072-.145,1.471-.2,2.213-5.523,6.649-6.728,8.038-1.131,1.3-3.016.793-3.619.764l-.9-.042-.9.042c-.6.029-2.489.535-3.618-.764C23.09,37.94,17.77,33.5,17.568,31.291c-.036-.4-.086-.9-.145-1.471-.464.1-1.022-.022-1.357-.99A8.814,8.814,0,0,0,14.843,26.2c-.91-1.439-.726-5.651,1.454-4.039" transform="translate(-5.159 -1.286)" fill="#1d6350"/>
          <path id="Trazado_889418" data-name="Trazado 889418" d="M36.969,10.906s.459,4.362,4.531,5.671,5.972,4.4,7.271,6.836,1.783,4.95,1.309,6.254,7-10.616,2.863-15.707c-1.936-2.378-5.029-7.608-7.987-9.6-3.368-2.264-7.987-.99-7.987-.99Z" transform="translate(-13.313 -1.085)" fill="#174035"/>
          <path id="Trazado_889419" data-name="Trazado 889419" d="M28.172,11.582a4.638,4.638,0,0,1-2.321,4.888c-3,1.643-7.365,3.678-8.237,6.442s-.82,4.9-2.3,5.8-3.661-6.391-2.935-7.622S13.866,13,14.56,11.582c5.091-10.416,13.5-8.131,13.5-8.131Z" transform="translate(-4.405 -1.166)" fill="#174035"/>
          <path id="Trazado_889420" data-name="Trazado 889420" d="M30.626,54.889c1.4,3.053,3.8,2.927,3.8,2.927s2.4.126,3.8-2.927c0,0,1.6-2.359,0-3.67a6.094,6.094,0,0,0-3.8-1.178,6.1,6.1,0,0,0-3.8,1.178c-1.6,1.311,0,3.67,0,3.67m.081-1.072c-.707-2.553,3.722-2.9,3.722-2.9s4.427.349,3.722,2.9a2.6,2.6,0,0,1-3.722.616,2.6,2.6,0,0,1-3.722-.614" transform="translate(-10.772 -18.019)" fill="#174035"/>
          <path id="Trazado_889421" data-name="Trazado 889421" d="M.484,73.143c.581-3.829,1.066-5.279,6.38-5.893,2.011-.233,7.484-.8,9.52-1.96a2.942,2.942,0,0,0,1.153-1.661,15.638,15.638,0,0,0,6.119.748,15.629,15.629,0,0,0,6.118-.748,2.948,2.948,0,0,0,1.153,1.661c2.036,1.163,7.509,1.727,9.52,1.96,5.314.614,5.8,2.064,6.38,5.893a59.965,59.965,0,0,1,.485,7.174H0a59.605,59.605,0,0,1,.484-7.174" transform="translate(0 -22.913)" fill="#174035"/>
          <path id="Trazado_889422" data-name="Trazado 889422" d="M44.438,65.389l0,0a21.267,21.267,0,0,1-7.464,1.033V64.377a15.635,15.635,0,0,0,6.119-.748A2.944,2.944,0,0,0,44.24,65.29c.06.034.132.066.2.1" transform="translate(-13.313 -22.913)" fill="#062d23"/>
          <path id="Trazado_889423" data-name="Trazado 889423" d="M25.3,65.389l.005,0a21.261,21.261,0,0,0,7.464,1.033V64.377a15.638,15.638,0,0,1-6.119-.748,2.942,2.942,0,0,1-1.153,1.661c-.06.034-.132.066-.2.1" transform="translate(-9.11 -22.913)" fill="#062d23"/>
          <path id="Trazado_889424" data-name="Trazado 889424" d="M36.287,69.725a.436.436,0,1,0,.436-.436.436.436,0,0,0-.436.436" transform="translate(-13.067 -24.951)" fill="#333"/>
          <path id="Trazado_889425" data-name="Trazado 889425" d="M36.287,72.343a.436.436,0,1,0,.436-.436.436.436,0,0,0-.436.436" transform="translate(-13.067 -25.894)" fill="#41c9a5"/>
          <path id="Trazado_889426" data-name="Trazado 889426" d="M36.287,74.962a.436.436,0,1,0,.436-.436.436.436,0,0,0-.436.436" transform="translate(-13.067 -26.837)" fill="#333"/>
          <path id="Trazado_889427" data-name="Trazado 889427" d="M36.287,77.581a.436.436,0,1,0,.436-.436.437.437,0,0,0-.436.436" transform="translate(-13.067 -27.78)" fill="#41c9a5"/>
          <path id="Trazado_889428" data-name="Trazado 889428" d="M36.287,80.2a.436.436,0,1,0,.436-.436.437.437,0,0,0-.436.436" transform="translate(-13.067 -28.723)" fill="#333"/>
          <path id="Trazado_889429" data-name="Trazado 889429" d="M36.287,82.819a.436.436,0,1,0,.436-.436.436.436,0,0,0-.436.436" transform="translate(-13.067 -29.666)" fill="#41c9a5"/>
          <path id="Trazado_889430" data-name="Trazado 889430" d="M36.287,85.438A.436.436,0,1,0,36.723,85a.436.436,0,0,0-.436.436" transform="translate(-13.067 -30.61)" fill="#333"/>
          <path id="Trazado_889431" data-name="Trazado 889431" d="M36.287,88.057a.436.436,0,1,0,.436-.436.437.437,0,0,0-.436.436" transform="translate(-13.067 -31.553)" fill="#41c9a5"/>
        </g>
      </g>
    </g>
  </g>
</svg>
