<svg xmlns="http://www.w3.org/2000/svg" xmlns:xlink="http://www.w3.org/1999/xlink" width="139" height="139" viewBox="0 0 139 139">
  <defs>
    <clipPath id="clip-path">
      <rect id="Rectángulo_404919" data-name="Rectángulo 404919" width="139" height="139" fill="none"/>
    </clipPath>
    <clipPath id="clip-path-2">
      <rect id="Rectángulo_404925" data-name="Rectángulo 404925" width="68" height="68" fill="#fff" stroke="#707070" stroke-width="1"/>
    </clipPath>
    <clipPath id="clip-path-3">
      <rect id="Rectángulo_407101" data-name="Rectángulo 407101" width="54.871" height="63.327" fill="#fafafa"/>
    </clipPath>
  </defs>
  <g id="Grupo_1110117" data-name="Grupo 1110117" transform="translate(-179.664 -3667.001)">
    <g id="Grupo_1110094" data-name="Grupo 1110094" transform="translate(179.664 3667.001)">
      <g id="Grupo_1110058" data-name="Grupo 1110058" clip-path="url(#clip-path)">
        <path id="Trazado_883529" data-name="Trazado 883529" d="M4.876,33.3l15.457,85.6C22.6,131.474,35.1,139.907,48.254,137.736a24.679,24.679,0,0,0,11.351-5.015l69.793-55.6a22.413,22.413,0,0,0,3.1-32.537,24.179,24.179,0,0,0-10.216-6.893L37.03,7.7C24.507,3.288,10.62,9.423,6.011,21.4A22.144,22.144,0,0,0,4.876,33.3" transform="translate(0.906 0.925)" fill="#0354a5"/>
        <path id="Trazado_883530" data-name="Trazado 883530" d="M136.965,98.332h0a23.86,23.86,0,0,1-6.93,9.2,24.935,24.935,0,0,1-11.378,5.157L29.422,128.97c-13.4,2.486-26.37-5.886-28.97-18.7A22.648,22.648,0,0,1,1.4,97.925L31.283,15.9c.139-.383.289-.767.448-1.14A24.357,24.357,0,0,1,50.635.324a26,26,0,0,1,12.118.947A24.626,24.626,0,0,1,73.409,8.216L132.762,73.97a22.679,22.679,0,0,1,4.2,24.361M32.842,15.189c-.15.357-.3.723-.427,1.088L2.535,98.305C-1.743,110.057,4.753,122.9,17.041,126.99a24.6,24.6,0,0,0,12.157.854l89.232-16.274c12.781-2.331,21.166-14.127,18.73-26.349a22.141,22.141,0,0,0-5.308-10.5L72.5,8.965A24.319,24.319,0,0,0,39.266,6.634a22.585,22.585,0,0,0-6.425,8.554" transform="translate(0 0)" fill="#41c9a5"/>
      </g>
    </g>
    <g id="Enmascarar_grupo_1108078" data-name="Enmascarar grupo 1108078" transform="translate(212.663 3703.001)" clip-path="url(#clip-path-2)">
      <g id="Grupo_1114075" data-name="Grupo 1114075" transform="translate(7.061 2.5)">
        <g id="Grupo_1114074" data-name="Grupo 1114074" clip-path="url(#clip-path-3)">
          <path id="Trazado_888326" data-name="Trazado 888326" d="M74.657.077a16.918,16.918,0,0,1,16.6,24.569c-6.066,11.8-23,12.173-29.632.661A16.951,16.951,0,0,1,74.657.077m.543,1.81A15.018,15.018,0,1,0,88.6,25.424C95.721,15.085,87.674.941,75.2,1.888" transform="translate(-48.64 0)" fill="#fafafa"/>
          <path id="Trazado_888327" data-name="Trazado 888327" d="M213.02,175.219c.186-.667,1.474-.234,1.266-.722l-3.915-4.062-4.048,4.329,1.147.168a.721.721,0,0,1,.257.5,42.658,42.658,0,0,1,.032,6.832c-.046.294-.171.695-.471.8-.762.135-1.231.036-1.336-.778-.124-.958.223-5.12-.071-5.541-.693-.4-2.917.277-2.78-1.137.1-1.041,5.819-6.012,6.605-7.369a1.147,1.147,0,0,1,1.242,0l6.506,6.892c.51,1.889-1.377,1.4-2.624,1.444V200.2c0,.53-.779.608-1.169.641a46.924,46.924,0,0,1-6.709,0,1.31,1.31,0,0,1-.9-.363l-.083-14.75c.2-1.051,1.805-.711,1.805-.005v13.305h5.25Z" transform="translate(-166.33 -137.633)" fill="#fafafa"/>
          <path id="Trazado_888328" data-name="Trazado 888328" d="M124.488,209.016v17.831a1.366,1.366,0,0,1-.992.456,46.755,46.755,0,0,1-6.709,0c-.39-.033-1.169-.111-1.169-.641v-17.65c-1.048.065-3.214.184-2.618-1.44l6.326-6.889c.936-.891,1.795.314,2.452.993,1.839,1.9,3.546,3.949,5.39,5.846.617,1.785-1.512,1.491-2.679,1.49m-7.06-1.358v17.831h5.25V207.84c0-.536,1.021-.848,1.447-.9l-4.072-4.252-3.891,4.252c-.024.077,1.134.262,1.266.723" transform="translate(-92.46 -164.099)" fill="#fafafa"/>
          <path id="Trazado_888329" data-name="Trazado 888329" d="M33.982,244.531v11.314c0,.228-.692.6-.986.643a71.481,71.481,0,0,1-7.522-.1,1.4,1.4,0,0,1-.532-.916,21.508,21.508,0,0,1,.028-3.933.991.991,0,0,1,1.953-.039v3.168H31.9l.272-.272V243.173c0-.58,1.463-.261,1.266-.722-1.268-1.018-2.407-3.014-3.7-3.905-.191-.131-.195-.226-.457-.091-1.1.567-2.621,3.219-3.8,4-.181.422.636.175,1.008.436.627.441.519,3.768.436,4.628-.188,1.949-1.989,1.294-1.989.545v-3.53c-1.106.028-3.038.262-2.582-1.4,1.793-1.887,3.493-3.881,5.293-5.759.673-.7,1.529-1.936,2.55-1.092l6.37,6.846c.555,1.721-1.44,1.415-2.579,1.4" transform="translate(-18.247 -193.278)" fill="#fafafa"/>
          <path id="Trazado_888330" data-name="Trazado 888330" d="M.212,91.487a1.136,1.136,0,0,1,.077-1.419A34.849,34.849,0,0,1,6.4,89.913a.91.91,0,0,1,.188,1.793,36.148,36.148,0,0,1-5.433.012c-.282-.024-.741-.03-.943-.232" transform="translate(0 -73.586)" fill="#fafafa"/>
          <path id="Trazado_888331" data-name="Trazado 888331" d="M269.691,89.9a.932.932,0,0,1-.6,1.569,37.829,37.829,0,0,1-5.778.012.91.91,0,0,1,.188-1.793,33.743,33.743,0,0,1,5.245-.02c.282.024.741.03.944.232" transform="translate(-215.08 -73.361)" fill="#fafafa"/>
          <path id="Trazado_888332" data-name="Trazado 888332" d="M28.081,42.713c-.373-.392-.344-1.369.263-1.55.753-.225,3.4.723,3.319,1.677-.076,1.517-3.164.314-3.582-.127" transform="translate(-22.798 -33.684)" fill="#fafafa"/>
          <path id="Trazado_888333" data-name="Trazado 888333" d="M257.447,42.713c-.418.44-3.506,1.643-3.582.127-.085-.954,2.566-1.9,3.319-1.677.606.181.635,1.157.263,1.55" transform="translate(-207.908 -33.684)" fill="#fafafa"/>
          <path id="Trazado_888334" data-name="Trazado 888334" d="M28.08,136.447c.418-.44,3.506-1.643,3.582-.127.069,1.005-2.673,1.871-3.32,1.676-.606-.182-.635-1.157-.262-1.549" transform="translate(-22.797 -111.035)" fill="#fafafa"/>
          <path id="Trazado_888335" data-name="Trazado 888335" d="M257.45,136.447c.373.392.344,1.367-.262,1.549-.647.195-3.389-.671-3.32-1.676.076-1.517,3.164-.314,3.582.127" transform="translate(-207.911 -111.035)" fill="#fafafa"/>
          <path id="Trazado_888336" data-name="Trazado 888336" d="M95.768,26.043c13.049-1.413,18.981,15.322,8.348,22.287-8.923,5.844-20.577-1.759-18.757-12.24.159-.914,1.013-4.579,2.3-4.234,1.482.668.3,1.738-.011,2.726-4.15,13.183,14.068,19.363,19.17,7.765A10.362,10.362,0,0,0,92.669,28.919c-.809.4-3.06,2.615-3.653,1.416-.55-1.11.847-1.839,1.624-2.359a11.827,11.827,0,0,1,5.127-1.933" transform="translate(-69.751 -21.26)" fill="#fafafa"/>
          <path id="Trazado_888337" data-name="Trazado 888337" d="M134.623,52.091c.163.267,2.97,1.167,2.125,2.624-.883,1.523-1.68-.5-2.325-.7-1.454-.459-2.8.376-2.324,1.963.268.9,2.083.883,2.852,1.129a3.484,3.484,0,0,1,.557,6.521c-.256.136-.864.246-.894.281-.2.235.3,2.376-1.187,2.159-1.148-.167-.644-1.832-.848-2.154-.039-.062-.776-.23-1-.354-.92-.5-2.91-2.5-1.319-3.2,1.2-.528,1.241,1.194,2.213,1.585,1.415.57,3.48-.019,3.142-1.86-.352-1.92-4.015-.857-5.134-3.208a3.489,3.489,0,0,1,1.053-4.286c.245-.183,1.016-.444,1.046-.493.212-.346-.287-2.608,1.349-2.115.954.288.5,1.792.7,2.115" transform="translate(-106.188 -40.872)" fill="#fafafa"/>
        </g>
      </g>
    </g>
  </g>
</svg>
