<svg xmlns="http://www.w3.org/2000/svg" xmlns:xlink="http://www.w3.org/1999/xlink" width="70" height="70" viewBox="0 0 70 70">
  <defs>
    <clipPath id="clip-path">
      <circle id="Elipse_11719" data-name="Elipse 11719" cx="31" cy="31" r="31" transform="translate(587.711 3554.337)" fill="#023263" stroke="#707070" stroke-width="1"/>
    </clipPath>
    <clipPath id="clip-path-2">
      <rect id="Rectángulo_407348" data-name="Rectángulo 407348" width="47.559" height="57.398" fill="none"/>
    </clipPath>
  </defs>
  <g id="Grupo_1113906" data-name="Grupo 1113906" transform="translate(-585 -3551.479)">
    <circle id="Elipse_3951" data-name="Elipse 3951" cx="31" cy="31" r="31" transform="translate(588.711 3555.337)" fill="#41c9a5"/>
    <g id="Elipse_3952" data-name="Elipse 3952" transform="translate(585 3551.479)" fill="none" stroke="#d1d1d1" stroke-width="1">
      <circle cx="35" cy="35" r="35" stroke="none"/>
      <circle cx="35" cy="35" r="34.5" fill="none"/>
    </g>
    <g id="Enmascarar_grupo_1108145" data-name="Enmascarar grupo 1108145" transform="translate(0.711 0.663)" clip-path="url(#clip-path)">
      <g id="Grupo_1114361" data-name="Grupo 1114361" transform="translate(595.703 3560.149)">
        <g id="Grupo_1114360" data-name="Grupo 1114360" clip-path="url(#clip-path-2)">
          <path id="Trazado_889380" data-name="Trazado 889380" d="M.488,69.755C1.072,65.9,1.56,64.448,6.9,63.831c2.021-.234,7.523-.8,9.57-1.97s1.719-7.017,1.719-7.017H29.368s-.325,5.847,1.721,7.017,7.549,1.736,9.57,1.97c5.341.617,5.829,2.074,6.413,5.924a60.261,60.261,0,0,1,.488,7.211H0a60.176,60.176,0,0,1,.488-7.211" transform="translate(0 -19.568)" fill="#1d6350"/>
          <path id="Trazado_889381" data-name="Trazado 889381" d="M40.657,61.445h0c-3.7.088-9.938-.8-12.465-3.891a.048.048,0,0,1,0-.014c.046-.542.067-1.053.073-1.483v0c0-.141,0-.273,0-.395v-.014c0-.119,0-.226,0-.323v-.014c0-.094,0-.177-.006-.244v0c0-.068,0-.122-.006-.157a.03.03,0,0,0,0-.012c0-.029,0-.047,0-.047H39.427s-.27,4.852,1.23,6.6" transform="translate(-10.059 -19.568)" fill="#1d6350"/>
          <path id="Trazado_889382" data-name="Trazado 889382" d="M16.308,21.781h.249c-.1-.855-.212-1.7-.316-2.494C15.7,15.161,14.492,3.1,28.892,3.1s13.19,12.063,12.652,16.19c-.1.8-.212,1.638-.316,2.494h.249c2.191-1.622,2.375,2.613,1.461,4.059a8.832,8.832,0,0,0-1.23,2.647c-.338.974-.9,1.1-1.364,1-.06.575-.11,1.078-.145,1.479-.2,2.225-5.551,6.682-6.763,8.079-1.137,1.305-3.031.8-3.638.768s-.906-.044-.906-.044-.291.015-.905.044-2.5.537-3.637-.768c-1.212-1.4-6.561-5.855-6.763-8.079-.037-.4-.086-.9-.146-1.479-.466.106-1.027-.022-1.364-1a8.83,8.83,0,0,0-1.229-2.647c-.915-1.446-.729-5.681,1.461-4.059" transform="translate(-5.113 -1.105)" fill="#1d6350"/>
          <path id="Trazado_889383" data-name="Trazado 889383" d="M17.957,29.863c0,.731.729,6.495.951,8.332.419,3.493,2.923,5.115,3.654,5.919s3.727,3.947,4.751,4.312,2.738-.657,2.738-.657,1.715,1.023,2.739.657,4.019-3.508,4.749-4.312,3.237-2.427,3.655-5.919c.221-1.838.951-7.6.951-8.332,0-.486.235-.309.38.253-.046.369-.092.738-.139,1.114,0,0-.753,7.732-.884,7.7-.059.575-.109,1.078-.145,1.479a2.355,2.355,0,0,1-.176.631c-.271.425-.695,1.113-1.231,1.937-1.726,2.137-4.523,4.551-5.357,5.512-1.136,1.305-3.031.8-3.638.768s-.9-.044-.9-.044-.291.015-.9.044-2.5.537-3.637-.768c-.836-.961-3.632-3.375-5.358-5.512-.536-.823-.959-1.512-1.232-1.937a2.319,2.319,0,0,1-.173-.631c-.037-.4-.087-.9-.147-1.479-.131.03-.884-7.7-.884-7.7-.046-.376-.093-.745-.138-1.114.144-.562.379-.738.379-.253" transform="translate(-6.272 -10.554)" fill="#174035"/>
          <path id="Trazado_889384" data-name="Trazado 889384" d="M45.715,56.672c.339-.328.722-.695,1.128-1.087-.4.391-.789.76-1.128,1.087" transform="translate(-16.311 -19.832)" fill="#fff"/>
          <path id="Trazado_889385" data-name="Trazado 889385" d="M44.034,58.831c.068-.078.154-.171.248-.268-.094.1-.179.189-.248.268" transform="translate(-15.711 -20.895)" fill="#fff"/>
          <path id="Trazado_889386" data-name="Trazado 889386" d="M47.845,55.09l.238-.233-.238.233" transform="translate(-17.071 -19.572)" fill="#fff"/>
          <path id="Trazado_889387" data-name="Trazado 889387" d="M44.53,58.282c.091-.093.188-.192.3-.3-.108.107-.2.205-.3.3" transform="translate(-15.888 -20.688)" fill="#fff"/>
          <path id="Trazado_889388" data-name="Trazado 889388" d="M45.437,57.323q-.221.213-.413.4l.413-.4" transform="translate(-16.064 -20.452)" fill="#fff"/>
          <path id="Trazado_889389" data-name="Trazado 889389" d="M53.525,47.24c.04-.1.072-.194.1-.288a7.337,7.337,0,0,1-1.455,2.373l.123-.148c.536-.823.959-1.512,1.231-1.937" transform="translate(-18.614 -16.752)" fill="#fff"/>
          <path id="Trazado_889390" data-name="Trazado 889390" d="M49.674,53.269l.215-.221-.215.221" transform="translate(-17.723 -18.927)" fill="#fff"/>
          <path id="Trazado_889391" data-name="Trazado 889391" d="M49.092,53.876l-.192.194.192-.194" transform="translate(-17.447 -19.222)" fill="#fff"/>
          <path id="Trazado_889392" data-name="Trazado 889392" d="M51.416,51.4c.065-.073.127-.145.19-.218-.063.073-.125.145-.19.218" transform="translate(-18.345 -18.262)" fill="#fff"/>
          <path id="Trazado_889393" data-name="Trazado 889393" d="M50.6,52.292c.073-.078.145-.156.215-.234l-.215.234" transform="translate(-18.054 -18.574)" fill="#fff"/>
          <path id="Trazado_889394" data-name="Trazado 889394" d="M29.539,58.579c.089.094.172.182.238.258-.066-.076-.149-.165-.238-.258" transform="translate(-10.539 -20.9)" fill="#fff"/>
          <path id="Trazado_889395" data-name="Trazado 889395" d="M57.369,36a8.816,8.816,0,0,0-1.23,2.647c-.338.974-.9,1.1-1.364,1,.131.03.884-7.7.884-7.7h.249C58.1,30.322,58.283,34.557,57.369,36" transform="translate(-19.543 -11.267)" fill="#1d6350"/>
          <path id="Trazado_889396" data-name="Trazado 889396" d="M19.514,46.967q.039.128.091.26c-.035-.089-.067-.176-.091-.26" transform="translate(-6.962 -16.757)" fill="#fff"/>
          <path id="Trazado_889397" data-name="Trazado 889397" d="M19.67,47.409c.273.425.693,1.11,1.226,1.928a8.079,8.079,0,0,1-1.226-1.928" transform="translate(-7.018 -16.915)" fill="#fff"/>
          <path id="Trazado_889398" data-name="Trazado 889398" d="M16.308,31.943h.249s.75,7.7.883,7.7c-.466.106-1.026-.023-1.364-1A8.83,8.83,0,0,0,14.848,36c-.915-1.446-.729-5.681,1.461-4.059" transform="translate(-5.113 -11.267)" fill="#1d6350"/>
          <path id="Trazado_889399" data-name="Trazado 889399" d="M22.285,51.249l.112.129-.112-.129" transform="translate(-7.951 -18.285)" fill="#fff"/>
          <path id="Trazado_889400" data-name="Trazado 889400" d="M21.587,50.42l.028.034-.028-.034" transform="translate(-7.702 -17.989)" fill="#fff"/>
          <path id="Trazado_889401" data-name="Trazado 889401" d="M24.024,53.142l.065.067-.065-.067" transform="translate(-8.571 -18.961)" fill="#fff"/>
          <path id="Trazado_889402" data-name="Trazado 889402" d="M28.433,57.474l.026.026-.026-.026" transform="translate(-10.145 -20.506)" fill="#fff"/>
          <path id="Trazado_889403" data-name="Trazado 889403" d="M23.187,52.256l.005.006-.005-.006" transform="translate(-8.273 -18.644)" fill="#fff"/>
          <path id="Trazado_889404" data-name="Trazado 889404" d="M29.269,58.3c-.064-.066-.132-.135-.2-.206l.2.206" transform="translate(-10.37 -20.728)" fill="#fff"/>
          <path id="Trazado_889405" data-name="Trazado 889405" d="M16.871,6.25C20.344-.572,29.345.013,29.345.013s9-.585,12.474,6.237c2.442,4.793.789,9.621-.139,14.427l-.242-1.367s-.51-5.556-3.945-7.895-3.064,0-8.148,0-4.712-2.339-8.148,0-3.946,7.895-3.946,7.895l-.241,1.367c-.928-4.806-2.579-9.634-.138-14.427" transform="translate(-5.565 0)" fill="#174035"/>
          <path id="Trazado_889406" data-name="Trazado 889406" d="M36.412,52.178H37.42s-.066,2.085-1.007,2.217c-.941-.132-1.007-2.217-1.007-2.217Z" transform="translate(-12.632 -18.617)" fill="#174035"/>
          <path id="Trazado_889407" data-name="Trazado 889407" d="M.487,72.711C1.072,68.861,1.56,67.4,6.9,66.787c2.021-.234,7.522-.8,9.57-1.97a2.964,2.964,0,0,0,1.163-1.685l6.135,1.274,6.154-1.277a2.978,2.978,0,0,0,1.166,1.688c2.047,1.169,7.547,1.736,9.568,1.97,5.342.617,5.829,2.074,6.415,5.924a60.56,60.56,0,0,1,.488,7.211H0a60.345,60.345,0,0,1,.487-7.211" transform="translate(0 -22.524)" fill="#154a3c"/>
          <path id="Trazado_889408" data-name="Trazado 889408" d="M27.11,63.129l6.153,1.277-4.245,4.785L26.61,64.21a8.476,8.476,0,0,0,.5-1.081" transform="translate(-9.494 -22.524)" fill="#174035"/>
          <path id="Trazado_889409" data-name="Trazado 889409" d="M43.107,63.129h0a8.513,8.513,0,0,0,.5,1.081L41.2,69.188v0h0l-4.246-4.784Z" transform="translate(-13.185 -22.524)" fill="#174035"/>
          <path id="Trazado_889410" data-name="Trazado 889410" d="M36.954,65.115V69.15l1.881-1.916Z" transform="translate(-13.185 -23.232)" fill="#1d6350"/>
          <path id="Trazado_889411" data-name="Trazado 889411" d="M37.551,70.443l1.869,9.723-.941,2.366H36.965l-.011-11.481Z" transform="translate(-13.185 -25.133)" fill="#1d6350"/>
          <path id="Trazado_889412" data-name="Trazado 889412" d="M35.911,65.115V69.15L34.03,67.234Z" transform="translate(-12.142 -23.232)" fill="#1d6350"/>
          <path id="Trazado_889413" data-name="Trazado 889413" d="M34.989,70.443,33.12,80.166l.941,2.366h1.514l.011-11.481Z" transform="translate(-11.817 -25.133)" fill="#1d6350"/>
        </g>
      </g>
    </g>
  </g>
</svg>
