<svg xmlns="http://www.w3.org/2000/svg" xmlns:xlink="http://www.w3.org/1999/xlink" width="85" height="85" viewBox="0 0 85 85">
  <defs>
    <clipPath id="clip-path">
      <rect id="Rectángulo_407019" data-name="Rectángulo 407019" width="75" height="75" transform="translate(-1.289)" fill="#d5f1ff" stroke="#707070" stroke-width="1"/>
    </clipPath>
    <clipPath id="clip-path-2">
      <rect id="Rectángulo_407103" data-name="Rectángulo 407103" width="70.667" height="64.516" fill="#d5f1ff"/>
    </clipPath>
  </defs>
  <g id="Grupo_1114354" data-name="Grupo 1114354" transform="translate(-180 -4619)">
    <rect id="Rectángulo_407012" data-name="Rectángulo 407012" width="85" height="85" transform="translate(180 4619)" fill="#0354a5"/>
    <g id="Enmascarar_grupo_1108147" data-name="Enmascarar grupo 1108147" transform="translate(185 4624)" clip-path="url(#clip-path)">
      <g id="Grupo_1114079" data-name="Grupo 1114079" transform="translate(0.711 5)">
        <g id="Grupo_1114078" data-name="Grupo 1114078" clip-path="url(#clip-path-2)">
          <path id="Trazado_888344" data-name="Trazado 888344" d="M68.229,58.087a10.893,10.893,0,0,1,6.23-14.45V21.1a11.366,11.366,0,0,1-7.705-9.862l-6.479.011c-.425.14-.876,1.981-2.535,2.235-5.047.773-5.162-7.149.172-6.159,1.182.219,1.746,1.3,2.357,2.2l6.52-.063C68.208-1.447,83.575-3.673,87.522,6.75c.22.58.6,2.656.956,2.778l6.577-.006c.924-1.859,3.086-3.081,5.011-1.835,4.492,2.909-2.4,9.384-4.8,3.514l-6.893.04A11.505,11.505,0,0,1,80.664,21.1L80.7,43.229l.176.239a10.753,10.753,0,0,1,7.055,14.619H95.71c.8,0,2.29,1.491,2.5,2.275.167.641.33,4.154-.421,4.154H57.341c-.751,0-.588-3.513-.421-4.154.2-.784,1.7-2.275,2.5-2.275Zm6.637-45.84C72.879,9.734,72.3,2.748,76.434,2.1c6.239-.976,6.359,6.28,3.825,10.043,1.758.886,3.766,1.428,5.081,3.007a9.012,9.012,0,1,0-15.759-.2,21.454,21.454,0,0,1,5.285-2.7M76.885,3.8c-2.306.419-2,4.018-1.454,5.711.478,1.473,1.762,1.923.931,3.514-.584,1.119-3.773,1.675-5.01,2.869-1.046,1.01.11,1.539.96,2.128a8.848,8.848,0,0,0,9.745.488c.493-.286,2.147-1.454,2.151-2.006.008-1.274-4.768-2.295-5.372-3.346-1-1.733.529-2.276.951-3.97.6-2.389.5-6.006-2.9-5.389M56.556,8.972c-1.538.457-1.057,3.161.735,2.832a1.467,1.467,0,1,0-.735-2.832M99.28,9.2c-1.523-1.232-3.494,1.1-1.8,2.316,1.592,1.145,3.077-1.285,1.8-2.316M78.807,21.376H76.318V43.154h2.489ZM76.895,44.871c-11.551,1.374-9.611,19.241,2.2,17.965,11.7-1.264,9.949-19.41-2.2-17.965M58.481,62.857H72.17A18.046,18.046,0,0,0,70.408,61.4c-.768-.721-.732-1.539-2.062-1.671-2.674-.264-5.905.146-8.631.105-1.307.588-1.331,1.734-1.233,3.018m25.511,0H96.644c.049-1.2.2-2.672-1.237-3.009a43.766,43.766,0,0,0-7.59-.114c-1.331.131-1.294.95-2.062,1.671a18.016,18.016,0,0,0-1.762,1.453" transform="translate(-42.749 0)" fill="#d5f1ff"/>
          <path id="Trazado_888345" data-name="Trazado 888345" d="M22.992,112.522H28.9a1.605,1.605,0,0,1,.488.564c.448,1.581-2.106.947-2.25,1.1-.107,3.28-2.5,5.377-5.7,5.608a108.344,108.344,0,0,1-13.705,0,5.816,5.816,0,0,1-5.5-5.6c-.5-.072-1.058.075-1.542-.015-1.186-.222-.642-1.653-.005-1.653H6.4l-1.609-2.85C2,103.27,6.536,95.4,13.546,94.884c9.894-.732,15.38,9.834,9.446,17.638m-.21-2.7c3.078-6.642-1.719-14.03-9.2-13.248-6.132.64-9.97,7.928-6.662,13.245A12.6,12.6,0,0,1,12,107.127a10.244,10.244,0,0,1-1.4-6.9A4.158,4.158,0,0,1,16.749,97.3c2.727,1.4,2.254,4.858,1.826,7.385l-1.183,2.444,2.494.93ZM13.806,98.671c-2.038.464-1.738,4.226-1.247,5.722.466,1.422,1.788,1.877.936,3.509-.718,1.376-8.287,2.668-4.1,4.632l11.1-.118.944-1.137c-.865-1.691-5.313-2.144-5.665-3.673-.341-1.485.35-1.545.823-2.613,1.108-2.5,1.155-7.221-2.8-6.321m11.675,15.511H3.911a4.373,4.373,0,0,0,4.45,3.95c3.039.226,10.792.383,13.605-.1a4.136,4.136,0,0,0,3.515-3.848" transform="translate(0 -75.176)" fill="#d5f1ff"/>
          <path id="Trazado_888346" data-name="Trazado 888346" d="M221.791,112.331h5.7c.452,0,.861.779.633,1.242-.332.674-1.559.344-2.18.427a5.83,5.83,0,0,1-5.5,5.6,108.342,108.342,0,0,1-13.705,0c-3.2-.231-5.589-2.328-5.7-5.608-.144-.15-2.7.485-2.25-1.1a1.605,1.605,0,0,1,.488-.564H205.2c-4.558-5.665-2.566-14.33,4.3-16.958a10.752,10.752,0,0,1,13.9,14.108Zm-1.939-13.409c-7.28-7.28-19.069,1.562-14.443,10.712l2.9-1.768,2.494-.93c-.192-.646-.707-1.046-.99-1.807-.64-1.725-.808-5.189.194-6.764a4.251,4.251,0,0,1,7.1.3c1.234,2.392.46,6.059-.912,8.273a12.6,12.6,0,0,1,5.081,2.695c2.158-3.243,1.269-8.019-1.421-10.709m-7.247-.443c-2.088.479-1.738,4.016-1.288,5.556.417,1.43,1.66,2.092.985,3.68-.49,1.151-4.9,1.831-5.647,3.475L208,112.326l11.295-.1c1.644-1.173.4-1.791-.822-2.488-1.254-.716-3.4-1-3.888-2.335-.557-1.516.487-1.675.938-2.89.924-2.489.877-6.9-2.921-6.031m11.675,15.511h-21.57a4.094,4.094,0,0,0,3.515,3.848c2.813.484,10.566.328,13.605.1a4.373,4.373,0,0,0,4.45-3.95" transform="translate(-157.526 -74.985)" fill="#d5f1ff"/>
          <path id="Trazado_888347" data-name="Trazado 888347" d="M154.117,221.486c.135.195,4.071,1.232,2.884,2.652-.834,1-1.818-.561-2.755-.807-2.156-.567-5.276.94-3.288,3.08.941,1.013,2.518.717,3.833,1.145,3.707,1.2,3.864,5.674.113,7.148-.239.094-.775.069-.815.111-.069.074.141,1.575-.946,1.576-.972-.046-.8-1.141-.969-1.344-.061-.074-1.477-.376-1.833-.553-.691-.344-2.494-1.9-1.191-2.458.862-.369,1.557.819,2.528,1.121,3.8,1.185,6.155-3,2.2-4.067-.769-.207-1.657-.2-2.456-.447-3.36-1.047-3.789-4.876-.672-6.6.317-.175,1.351-.456,1.419-.554.194-.282.189-1.792,1.28-1.311.685.3.5,1.065.669,1.311" transform="translate(-117.811 -174.436)" fill="#d5f1ff"/>
        </g>
      </g>
    </g>
  </g>
</svg>
