<svg xmlns="http://www.w3.org/2000/svg" xmlns:xlink="http://www.w3.org/1999/xlink" width="150" height="150" viewBox="0 0 150 150">
  <defs>
    <clipPath id="clip-path">
      <rect id="Rectángulo_404919" data-name="Rectángulo 404919" width="150" height="150" fill="#41c9a5"/>
    </clipPath>
    <clipPath id="clip-path-2">
      <rect id="Rectángulo_404925" data-name="Rectángulo 404925" width="60" height="60" transform="translate(-0.121)" fill="#fff" stroke="#707070" stroke-width="1"/>
    </clipPath>
    <clipPath id="clip-path-3">
      <rect id="Rectángulo_406053" data-name="Rectángulo 406053" width="46.408" height="58" fill="#fff"/>
    </clipPath>
  </defs>
  <g id="Grupo_1113975" data-name="Grupo 1113975" transform="translate(-179.664 -3667)">
    <g id="Grupo_1110094" data-name="Grupo 1110094" transform="translate(179.664 3667)">
      <g id="Grupo_1110058" data-name="Grupo 1110058" clip-path="url(#clip-path)">
        <path id="Trazado_883529" data-name="Trazado 883529" d="M4.9,35.444l16.68,92.369c2.45,13.569,15.941,22.669,30.131,20.326a26.632,26.632,0,0,0,12.25-5.412l75.316-60a24.187,24.187,0,0,0,3.343-35.112A26.093,26.093,0,0,0,131.6,40.179l-92-32.37C26.088,3.052,11.1,9.673,6.129,22.593A23.9,23.9,0,0,0,4.9,35.444" transform="translate(1.335 1.494)" fill="#023263"/>
        <path id="Trazado_883530" data-name="Trazado 883530" d="M147.8,106.113h0a25.748,25.748,0,0,1-7.478,9.933,26.908,26.908,0,0,1-12.278,5.565l-96.3,17.565C17.29,141.859,3.294,132.824.488,119a24.44,24.44,0,0,1,1.024-13.323L33.758,17.153c.15-.414.312-.827.483-1.23A26.285,26.285,0,0,1,54.641.349,28.053,28.053,0,0,1,67.719,1.371a26.574,26.574,0,0,1,11.5,7.495l64.049,70.958a24.474,24.474,0,0,1,4.536,26.289M35.441,16.39c-.162.385-.319.78-.461,1.174L2.735,106.084c-4.616,12.681,2.393,26.539,15.655,30.954a26.549,26.549,0,0,0,13.119.921L127.8,120.4c13.792-2.515,22.841-15.245,20.212-28.434a23.893,23.893,0,0,0-5.728-11.33L78.237,9.675A26.243,26.243,0,0,0,42.374,7.159a24.372,24.372,0,0,0-6.933,9.231" transform="translate(0 0)" fill="#41c9a5"/>
      </g>
    </g>
    <g id="Enmascarar_grupo_1108078" data-name="Enmascarar grupo 1108078" transform="translate(224.664 3712)" clip-path="url(#clip-path-2)">
      <g id="Grupo_1112551" data-name="Grupo 1112551" transform="translate(6.879 1)">
        <g id="Grupo_1112550" data-name="Grupo 1112550" clip-path="url(#clip-path-3)">
          <path id="Trazado_886869" data-name="Trazado 886869" d="M37.029,9.387c-.551-.55-.007-5.452-.225-6.619a1.058,1.058,0,0,0-.8-.8L2.932,1.952l-.807.26L2.051,50.853a1.43,1.43,0,0,0,1.06.362c6.952.621,14.828-.479,21.878-.012,1.622.162,1.427,2-.173,1.967-7.117-.488-15.039.621-22.059,0A2.853,2.853,0,0,1,0,50.593L.093,1.957A2.992,2.992,0,0,1,2.757,0L36.5.049a3.01,3.01,0,0,1,2.264,2.714,45.8,45.8,0,0,1-.038,6.185,1.111,1.111,0,0,1-1.7.439" fill="#fff"/>
          <path id="Trazado_886870" data-name="Trazado 886870" d="M97.926,85.029V90.9c.46.015,1.533-.118,1.793.3.641,1.019-.114,8.856.12,10.6a.717.717,0,0,1-.253.493,16.438,16.438,0,0,1-5.139,0,1.461,1.461,0,0,1-.436-.987,64.616,64.616,0,0,1,.014-9.416c.187-1.141,1-1.04,1.946-.987V85.029A15.481,15.481,0,1,1,100.456,54.5a17.247,17.247,0,0,1,3.969,1.542,1.032,1.032,0,0,1-.69,1.746c-.547-.048-2.331-1.03-3.18-1.254C87.931,53.209,78.216,67.985,86.376,78c8.85,10.866,26.329,3.1,23.948-10.97-.142-.841-1.155-2.772-.006-3.126,1.342-.414,1.509,1.106,1.745,2.1A15.5,15.5,0,0,1,97.926,85.029m0,7.823H95.972V100.5h1.956Z" transform="translate(-66.985 -44.49)" fill="#fff"/>
          <path id="Trazado_886871" data-name="Trazado 886871" d="M136.028,59.969c-.071.252-.532.446-.8.462-1.669.1-.965-2.232-1.243-3.217L122.159,69.032l-1.311-.105-3.219-3.178-6.933,6.93c-1.283,1-2.258-.329-1.334-1.511l7.826-7.64a1.135,1.135,0,0,1,.619-.111c.831.046,2.909,2.8,3.733,3.393l11.111-11.2H129.9l-.609-.977a1.039,1.039,0,0,1,.825-.94,30.487,30.487,0,0,1,4.943-.042,1.341,1.341,0,0,1,.974.448Z" transform="translate(-89.62 -44.051)" fill="#fff"/>
          <path id="Trazado_886872" data-name="Trazado 886872" d="M36.162,28.226c.118.174,1.174.522,1.6,1.338.375.724.653,2.2-.5,2.253-1.309.064-.913-.958-1.3-1.519a.982.982,0,0,0-1.762.684c.154,1,1.232.787,1.978,1.055a2.939,2.939,0,0,1,.93,4.945c-.253.231-.684.278-.884.538-.379.491-.054,1.27-1.245,1.058-.715-.128-.655-.786-1-1.143-.359-.374-1-.657-1.308-1.181-.369-.622-.733-1.795.005-2.278,1.355-.887,1.366.924,1.764,1.4a.965.965,0,0,0,1.652-.933c-.242-.829-1.165-.564-1.752-.745a2.9,2.9,0,0,1-1.493-4.528c.419-.585,1.115-.749,1.276-.946.261-.318.081-1.155,1.04-1.2s.791.9,1,1.207" transform="translate(-26.514 -22.215)" fill="#fff"/>
          <path id="Trazado_886873" data-name="Trazado 886873" d="M27.422,234.041H47.689a2.679,2.679,0,0,1,.6.662c.244.884-.586,1.218-1.308,1.293-5.854.609-12.713-.461-18.674.009-1.272.015-1.791-1.026-.88-1.964" transform="translate(-22.169 -192.434)" fill="#fff"/>
          <path id="Trazado_886874" data-name="Trazado 886874" d="M194.288,228.152a1.021,1.021,0,0,1,1.1.96,60.759,60.759,0,0,1-.031,9.19,3.3,3.3,0,0,1-4.1,2.4.961.961,0,0,1,0-1.878c.867-.189,1.833.349,2.146-.877l.2-9.4a1.616,1.616,0,0,1,.676-.4" transform="translate(-156.639 -187.583)" fill="#fff"/>
          <path id="Trazado_886875" data-name="Trazado 886875" d="M206.831,132.111c-.2-.2-.2-.652-.227-.927-.284-3.359.233-7.1,0-10.5.043-1.184,1.767-1.017,1.959.013l-.131,11.06a1.031,1.031,0,0,1-1.6.359" transform="translate(-169.803 -98.547)" fill="#fff"/>
          <path id="Trazado_886876" data-name="Trazado 886876" d="M27.456,196.041H38.123c.41,0,1.033,1.627-.576,1.913a57.7,57.7,0,0,1-8.854.05c-1.385-.1-2.275-.6-1.237-1.963" transform="translate(-22.203 -161.19)" fill="#fff"/>
          <path id="Trazado_886877" data-name="Trazado 886877" d="M142.5,149.482c-1.073.907-1.844.45-1.964-.88a43.259,43.259,0,0,1,.047-6.548,1.021,1.021,0,0,1,1.917-.216Z" transform="translate(-115.471 -116.142)" fill="#fff"/>
          <path id="Trazado_886878" data-name="Trazado 886878" d="M81.837,44.5a1.453,1.453,0,0,1-.585-.95,1.387,1.387,0,0,1,.978-.968,41.336,41.336,0,0,1,6.37-.047c2.008.182,1.3,1.964.88,1.964Z" transform="translate(-66.806 -34.891)" fill="#fff"/>
          <path id="Trazado_886879" data-name="Trazado 886879" d="M164.342,154.268a1.087,1.087,0,0,1-1.731-.584,45.341,45.341,0,0,1,0-6.035.979.979,0,0,1,1.939.007,36.981,36.981,0,0,1,.019,5.684c-.023.276-.031.731-.227.927" transform="translate(-133.62 -120.704)" fill="#fff"/>
          <path id="Trazado_886880" data-name="Trazado 886880" d="M27.456,120.7c-1.039-1.367-.148-1.868,1.237-1.963a25.161,25.161,0,0,1,5.355.172,1.184,1.184,0,0,1,.748.842c.064.251-.471.95-.585.95Z" transform="translate(-22.203 -97.579)" fill="#fff"/>
          <path id="Trazado_886881" data-name="Trazado 886881" d="M27.529,158.041h6.755c.667,0,.667,1.778,0,1.778H27.529a1.123,1.123,0,0,1,0-1.778" transform="translate(-22.276 -129.945)" fill="#fff"/>
          <path id="Trazado_886882" data-name="Trazado 886882" d="M184.836,158.745c-.2-.2-.2-.652-.227-.927a31.756,31.756,0,0,1,.011-4.8.983.983,0,0,1,1.941.185,32.589,32.589,0,0,1,.007,4.962,1.087,1.087,0,0,1-1.731.584" transform="translate(-151.719 -125.181)" fill="#fff"/>
          <path id="Trazado_886883" data-name="Trazado 886883" d="M120.05,163.557c2.178-1.619,2.136,1.767,1.939,3.184-.251,1.8-1.939,1.148-1.939.727Z" transform="translate(-98.708 -134.128)" fill="#fff"/>
        </g>
      </g>
    </g>
  </g>
</svg>
