<svg xmlns="http://www.w3.org/2000/svg" xmlns:xlink="http://www.w3.org/1999/xlink" width="505" height="354.479" viewBox="0 0 505 354.479">
  <defs>
    <clipPath id="clip-path">
      <rect id="Rectángulo_405723" data-name="Rectángulo 405723" width="505" height="352.886" fill="none"/>
    </clipPath>
    <clipPath id="clip-path-2">
      <rect id="Rectángulo_407090" data-name="Rectángulo 407090" width="505" height="351.512" fill="none"/>
    </clipPath>
  </defs>
  <g id="Grupo_1113908" data-name="Grupo 1113908" transform="translate(-810 -4061.757)">
    <g id="Grupo_1111937" data-name="Grupo 1111937" transform="translate(810 4061.757)">
      <g id="Grupo_1111937-2" data-name="Grupo 1111937" clip-path="url(#clip-path)">
        <path id="Trazado_885979" data-name="Trazado 885979" d="M360.138,172.535H284.784a55.663,55.663,0,0,0,2.088-15.155,54.933,54.933,0,0,0-4.258-21.372H419.433c23.9,0,43.278-22.095,43.278-49.349s-19.376-49.35-43.278-49.35H219.117c-23.9,0-43.278,22.095-43.278,49.35a54.936,54.936,0,0,0,4.259,21.372H43.278C19.376,108.031,0,130.125,0,157.38S19.376,206.73,43.278,206.73h75.354a55.662,55.662,0,0,0-2.088,15.154,53.727,53.727,0,0,0,8.87,29.921H76.674c-23.9,0-43.278,22.095-43.278,49.35S52.772,350.5,76.674,350.5H340.433c23.9,0,43.278-22.095,43.278-49.349A53.345,53.345,0,0,0,373.2,268.94c17.516-6.317,30.214-24.993,30.214-47.056,0-27.255-19.376-49.349-43.278-49.349" transform="translate(0 2.381)" fill="#d5f1ff"/>
        <path id="Trazado_885980" data-name="Trazado 885980" d="M91.964,91.429A45.715,45.715,0,1,0,46.385,45.715,45.646,45.646,0,0,0,91.964,91.429" transform="translate(-25.007)" fill="#d5f1ff"/>
        <path id="Trazado_885981" data-name="Trazado 885981" d="M645.742,296.46a37.009,37.009,0,1,0,36.689,37.007,36.849,36.849,0,0,0-36.689-37.007" transform="translate(-189.053 -29.668)" fill="#d5f1ff"/>
      </g>
    </g>
    <g id="Grupo_1114063" data-name="Grupo 1114063" transform="translate(810 4064.723)">
      <g id="Grupo_1114062" data-name="Grupo 1114062" clip-path="url(#clip-path-2)">
        <path id="Trazado_888113" data-name="Trazado 888113" d="M454.745,253.509H73.961s21.408-8.165,44.667-30.392,32.421-27.789,61-33.018,23.923-22.227,58.48-25.495,56.487-18.957,64.461-26.148,43.86,2.471,51.834,31.306,23.923,19.075,40.537,39.971,55.157,15.667,59.809,43.776" transform="translate(-2.128 -3.918)" fill="#41c9a5"/>
        <path id="Trazado_888114" data-name="Trazado 888114" d="M358.47,274.549H490.717s15.714-54.977,7.416-60.649-15.457,17.342-23.338-10.377-14.049-61.65-39.328-57.066-27.52,74.731-45,77.686-34.883,29.8-32,50.406" transform="translate(-10.305 -4.202)" fill="#2d9a7d"/>
        <line id="Línea_3329" data-name="Línea 3329" x2="134.642" transform="translate(335.669 270.347)" fill="none" stroke="#292e4a" stroke-miterlimit="10" stroke-width="1"/>
        <path id="Trazado_888115" data-name="Trazado 888115" d="M46.463,66.5H198.448s-22.4-6.39-26.128-14.329-6.36-12.845-13.809-13.455-10.886.61-17.7-9.466-16.749-14.045-25.13-11.3-14.9,26.868-28.245,29.616S69.741,47.877,65.4,50.32,50.5,65.586,46.463,66.5" transform="translate(-1.337 -0.492)" fill="#92d8fe"/>
        <path id="Trazado_888116" data-name="Trazado 888116" d="M342.717,63.746H496.155s3.715-14.731-5.741-19.314-11.483,3.929-19.926-1.637,2.7-38.954-12.5-42.554-34.9,34.371-53.078,33.389-23.922-3.273-30.676,1.964S349.7,62.765,342.717,63.746" transform="translate(-9.861 0)" fill="#92d8fe"/>
        <rect id="Rectángulo_407087" data-name="Rectángulo 407087" width="89.478" height="112.608" transform="translate(304.866 46.17)" fill="#fce898"/>
        <line id="Línea_3330" data-name="Línea 3330" x2="52.008" transform="translate(318.086 66.5)" fill="none" stroke="#fff" stroke-miterlimit="10" stroke-width="0.977"/>
        <line id="Línea_3331" data-name="Línea 3331" x2="63.037" transform="translate(318.086 76.778)" fill="none" stroke="#fff" stroke-miterlimit="10" stroke-width="0.977"/>
        <line id="Línea_3332" data-name="Línea 3332" x2="63.037" transform="translate(318.086 87.056)" fill="none" stroke="#fff" stroke-miterlimit="10" stroke-width="0.977"/>
        <line id="Línea_3333" data-name="Línea 3333" x2="63.037" transform="translate(318.086 97.335)" fill="none" stroke="#fff" stroke-miterlimit="10" stroke-width="0.977"/>
        <line id="Línea_3334" data-name="Línea 3334" x2="63.037" transform="translate(318.086 107.613)" fill="none" stroke="#fff" stroke-miterlimit="10" stroke-width="0.977"/>
        <line id="Línea_3335" data-name="Línea 3335" x2="63.037" transform="translate(318.086 117.891)" fill="none" stroke="#fff" stroke-miterlimit="10" stroke-width="0.977"/>
        <line id="Línea_3336" data-name="Línea 3336" x2="63.037" transform="translate(318.086 128.169)" fill="none" stroke="#fff" stroke-miterlimit="10" stroke-width="0.977"/>
        <line id="Línea_3337" data-name="Línea 3337" x2="63.037" transform="translate(318.086 138.447)" fill="none" stroke="#fff" stroke-miterlimit="10" stroke-width="0.977"/>
        <path id="Trazado_888117" data-name="Trazado 888117" d="M295.133,108.517V94.138l-9.166.266a25.869,25.869,0,0,0-2.563-6.082l6.674-6.19L279.742,71.965l-6.294,6.565a26.727,26.727,0,0,0-6.182-2.521l.27-9.017H252.919l.27,9.017a26.728,26.728,0,0,0-6.182,2.521l-6.294-6.565L230.378,82.132l6.674,6.19a25.868,25.868,0,0,0-2.563,6.082l-9.166-.266v14.379l9.166-.265a25.844,25.844,0,0,0,2.563,6.081l-6.674,6.191,10.336,10.167,6.294-6.565a26.731,26.731,0,0,0,6.182,2.522l-.27,9.017h14.617l-.27-9.017a26.73,26.73,0,0,0,6.182-2.522l6.294,6.565,10.336-10.167-6.674-6.191a25.845,25.845,0,0,0,2.563-6.081Zm-34.9,1.733a8.923,8.923,0,1,1,9.07-8.922,9,9,0,0,1-9.07,8.922" transform="translate(-6.483 -1.928)" fill="#a6b1ed"/>
        <path id="Trazado_888118" data-name="Trazado 888118" d="M269.45,238.165c-1.426,5.136-4.178,11.738-4.827,17.612s10.432,9.211,11.868,6.261c.188-.386-2.328-2.431-.234-7.886,2.514-6.546,3.8-9.352,2.618-13.889-.9-3.446-8.547-5.264-9.426-2.1" transform="translate(-7.613 -6.806)" fill="#cc9b74"/>
        <path id="Trazado_888119" data-name="Trazado 888119" d="M357.019,145.384s-17.508,8.89-28.8,7.779-38.971-4.5-49.136,5.665-50.831,59.337-48.855,62.948,47.16,38.89,56.761,35.834,52.018-45.557,62.72-51.946S376.4,191.5,376.4,191.5Z" transform="translate(-6.622 -4.183)" fill="#cc9b74"/>
        <path id="Trazado_888120" data-name="Trazado 888120" d="M179.593,134.4s30.389,15.949,43.379,16.783,35.8-1.111,52.21,3.334,2.349,12.222,8.11,17.778,46.4,28.792,52.638,32.779,7.907,9.215,3.67,12.8-9.319,2.477-17.226-1.969-22.873-15-23.721-12.777,25.416,18.372,29.086,21.408,4.236,8.037-1.694,11.093-11.014,3.333-16.1,0-22.309-15.834-24.286-13.89,9.037,7.778,16.1,12.985c6.586,4.857,11.578,6.46,12.142,10.348s-5.6,10.8-15.814,7.5c-6.025-1.944-22.026-13.612-24.474-11.945s23.344,11.852,22.968,15.926-5.836,10.88-21.4,3.519c-9.5-4.491-67.271-44.446-73.3-48.891s-56.955-30.835-56.955-30.835Z" transform="translate(-4.17 -3.867)" fill="#f9cca9"/>
        <path id="Trazado_888121" data-name="Trazado 888121" d="M306.345,190.575s-1.976,8.522-8.755,12.316c.706,5.046-3.106,14.907-11.3,17.623-.706,5.637-5.627,14.8-11.437,16.729" transform="translate(-7.909 -5.483)" fill="none" stroke="#cc9b74" stroke-linecap="round" stroke-linejoin="round" stroke-width="0.972"/>
        <path id="Trazado_888122" data-name="Trazado 888122" d="M240.4,161.606c-.158-2.41,11.484-3.519,19.391-6.111s21.651-6.742,32.946-6.242,25.028,3.385,34.446,3.887,2.453,10.874-6.584,13.466-28.84,9.26-34.563,6.112-10.808-4.445-19.656-3.7-25.6-1.667-25.98-7.408" transform="translate(-6.917 -4.293)" fill="#cc9b74"/>
        <path id="Trazado_888123" data-name="Trazado 888123" d="M481.327,110.592c14.662,37.1,13.664,72.11-2.228,78.187S438.435,169.7,423.774,132.6,410.107,60.49,426,54.413s40.663,19.075,55.327,56.179" transform="translate(-11.895 -1.54)" fill="#292e4a"/>
        <line id="Línea_3338" data-name="Línea 3338" y1="10.764" x2="24.427" transform="translate(450.787 152.035)" fill="none" stroke="#6470b5" stroke-miterlimit="10" stroke-width="0.972"/>
        <path id="Trazado_888124" data-name="Trazado 888124" d="M372.38,133.705s-8.519,3.262-11.891,4.305c-2.3.713-5.025,1.729-6.515,2.3a1.117,1.117,0,0,0-.625,1.51c2.2,4.851,11.177,24.658,13.351,29.7,2.485,5.76,9.228,23.741,10.115,24.788s20.94-6.807,20.94-6.807Z" transform="translate(-10.164 -3.847)" fill="#292e4a"/>
        <path id="Trazado_888125" data-name="Trazado 888125" d="M368.531,130.093l80.012-44.772s7.907,10.556,7.341,21.806,9.884,17.362,9.6,36.808c-.129,8.888,7.06,16.945,7.06,16.945l-76.246,32.5Z" transform="translate(-10.604 -2.455)" fill="#92d8fe"/>
        <line id="Línea_3339" data-name="Línea 3339" x1="88.859" y2="50.327" transform="translate(357.927 77.31)" fill="none" stroke="#fff" stroke-miterlimit="10" stroke-width="0.972"/>
        <line id="Línea_3340" data-name="Línea 3340" y1="19.369" x2="42.934" transform="translate(369.777 135.276)" fill="none" stroke="#292e4a" stroke-miterlimit="10" stroke-width="0.972"/>
        <path id="Trazado_888126" data-name="Trazado 888126" d="M393.956,145.256a4.378,4.378,0,1,1-4.377-4.305,4.341,4.341,0,0,1,4.377,4.305" transform="translate(-11.084 -4.056)" fill="#fff"/>
        <path id="Trazado_888127" data-name="Trazado 888127" d="M388.816,144.191a.436.436,0,1,1-.435-.427.432.432,0,0,1,.435.427" transform="translate(-11.162 -4.137)" fill="#292e4a"/>
        <path id="Trazado_888128" data-name="Trazado 888128" d="M391.445,144.191a.436.436,0,1,1-.435-.427.432.432,0,0,1,.435.427" transform="translate(-11.238 -4.137)" fill="#292e4a"/>
        <path id="Trazado_888129" data-name="Trazado 888129" d="M388.816,146.551a.436.436,0,1,1-.435-.428.432.432,0,0,1,.435.428" transform="translate(-11.162 -4.204)" fill="#292e4a"/>
        <path id="Trazado_888130" data-name="Trazado 888130" d="M391.445,146.551a.436.436,0,1,1-.435-.428.432.432,0,0,1,.435.428" transform="translate(-11.238 -4.204)" fill="#292e4a"/>
        <path id="Trazado_888131" data-name="Trazado 888131" d="M411.59,138.011a4.378,4.378,0,1,1-4.378-4.305,4.342,4.342,0,0,1,4.378,4.305" transform="translate(-11.591 -3.847)" fill="#fff"/>
        <path id="Trazado_888132" data-name="Trazado 888132" d="M406.45,136.946a.436.436,0,1,1-.435-.428.432.432,0,0,1,.435.428" transform="translate(-11.67 -3.928)" fill="#292e4a"/>
        <path id="Trazado_888133" data-name="Trazado 888133" d="M409.078,136.946a.436.436,0,1,1-.435-.428.432.432,0,0,1,.435.428" transform="translate(-11.745 -3.928)" fill="#292e4a"/>
        <path id="Trazado_888134" data-name="Trazado 888134" d="M406.45,139.305a.436.436,0,1,1-.435-.428.432.432,0,0,1,.435.428" transform="translate(-11.67 -3.996)" fill="#292e4a"/>
        <path id="Trazado_888135" data-name="Trazado 888135" d="M409.078,139.305a.436.436,0,1,1-.435-.428.432.432,0,0,1,.435.428" transform="translate(-11.745 -3.996)" fill="#292e4a"/>
        <path id="Trazado_888136" data-name="Trazado 888136" d="M73.134,110.592c-14.663,37.1-13.665,72.11,2.228,78.187S116.025,169.7,130.688,132.6s13.665-72.11-2.228-78.187S87.8,73.488,73.134,110.592" transform="translate(-1.806 -1.54)" fill="#292e4a"/>
        <line id="Línea_3341" data-name="Línea 3341" x1="24.427" y1="10.764" transform="translate(65.546 152.035)" fill="none" stroke="#f70" stroke-linecap="round" stroke-linejoin="round" stroke-width="0.972"/>
        <path id="Trazado_888137" data-name="Trazado 888137" d="M183.514,132.727s7.849,4.329,11.068,5.765c1.928.86,4.849,2.178,6.339,2.75a1.118,1.118,0,0,1,.626,1.509c-2.2,4.852-10.613,23.7-12.787,28.742-2.484,5.761-12.353,26.279-13.24,27.326s-17.815-9.346-17.815-9.346Z" transform="translate(-4.538 -3.819)" fill="#995417"/>
        <path id="Trazado_888138" data-name="Trazado 888138" d="M185.082,130.093,105.07,85.321s-.742,14.445-12.038,20.742c-9.962,5.553-20.011,17.1-11.965,34.862,5.152,11.376,0,19.955,0,19.955l76.246,32.5Z" transform="translate(-2.248 -2.455)" fill="#41c9a5"/>
        <line id="Línea_3342" data-name="Línea 3342" x2="88.859" y2="50.327" transform="translate(93.974 77.31)" fill="none" stroke="#fff" stroke-linecap="round" stroke-linejoin="round" stroke-width="0.972"/>
        <line id="Línea_3343" data-name="Línea 3343" x1="42.934" y1="19.369" transform="translate(128.049 135.276)" fill="none" stroke="#995417" stroke-miterlimit="10" stroke-width="0.972"/>
        <path id="Trazado_888139" data-name="Trazado 888139" d="M162.566,145.256a4.378,4.378,0,1,0,4.377-4.305,4.341,4.341,0,0,0-4.377,4.305" transform="translate(-4.678 -4.056)" fill="#fff"/>
        <path id="Trazado_888140" data-name="Trazado 888140" d="M167.939,144.191a.436.436,0,1,0,.435-.427.432.432,0,0,0-.435.427" transform="translate(-4.832 -4.137)" fill="#292e4a"/>
        <path id="Trazado_888141" data-name="Trazado 888141" d="M165.31,144.191a.436.436,0,1,0,.435-.427.432.432,0,0,0-.435.427" transform="translate(-4.757 -4.137)" fill="#292e4a"/>
        <path id="Trazado_888142" data-name="Trazado 888142" d="M167.939,146.551a.436.436,0,1,0,.435-.428.432.432,0,0,0-.435.428" transform="translate(-4.832 -4.204)" fill="#292e4a"/>
        <path id="Trazado_888143" data-name="Trazado 888143" d="M165.31,146.551a.436.436,0,1,0,.435-.428.432.432,0,0,0-.435.428" transform="translate(-4.757 -4.204)" fill="#292e4a"/>
        <path id="Trazado_888144" data-name="Trazado 888144" d="M144.932,138.011a4.378,4.378,0,1,0,4.377-4.305,4.342,4.342,0,0,0-4.377,4.305" transform="translate(-4.17 -3.847)" fill="#fff"/>
        <path id="Trazado_888145" data-name="Trazado 888145" d="M150.3,136.946a.436.436,0,1,0,.435-.428.432.432,0,0,0-.435.428" transform="translate(-4.325 -3.928)" fill="#292e4a"/>
        <path id="Trazado_888146" data-name="Trazado 888146" d="M147.676,136.946a.436.436,0,1,0,.435-.428.432.432,0,0,0-.435.428" transform="translate(-4.249 -3.928)" fill="#292e4a"/>
        <path id="Trazado_888147" data-name="Trazado 888147" d="M150.3,139.305a.436.436,0,1,0,.435-.428.432.432,0,0,0-.435.428" transform="translate(-4.325 -3.996)" fill="#292e4a"/>
        <path id="Trazado_888148" data-name="Trazado 888148" d="M147.676,139.305a.436.436,0,1,0,.435-.428.432.432,0,0,0-.435.428" transform="translate(-4.249 -3.996)" fill="#292e4a"/>
        <path id="Trazado_888149" data-name="Trazado 888149" d="M207.915,217.15c0-5.929,5.271-24.816,10.354-24.26s8.284,4.26,7.719,10.371-6.4,18.889-5.272,20.927,4.33,2.592,2.636,3.7-15.438-1.851-15.438-10.741" transform="translate(-5.982 -5.55)" fill="#cc9b74"/>
        <path id="Trazado_888150" data-name="Trazado 888150" d="M229.31,234.9c-1.881-3.207-2.071-9.073,0-15.185s7.568-19.959,9.413-20.371c4.141-.926,9.225,2.964,10.543,8.15s-10.427,27.813-8.73,29.48,2.788,2.2,2.365,2.987c-1.553,2.881-10.766-.245-13.59-5.06" transform="translate(-6.555 -5.732)" fill="#cc9b74"/>
        <path id="Trazado_888151" data-name="Trazado 888151" d="M247.387,246.042c-.471-3.189,4.876-23.708,8.688-24.541s8.115,3.707,8.68,8.152-5.524,19.527-4.7,20.84c.742,1.18,2.436,2.013,2.3,2.559-.962,3.965-13.934,0-14.969-7.009" transform="translate(-7.117 -6.37)" fill="#cc9b74"/>
        <path id="Trazado_888152" data-name="Trazado 888152" d="M399.1,292.038h91.768s16.549-42.371,16.047-56.183-8.023-9.88-3.51-28.371,12.035-49.593-1.5-51.554-39.615,61.18-52.152,65.126-24.572,11.839-35.1,30.584-15.545,40.4-15.545,40.4" transform="translate(-11.483 -4.485)" fill="#2d9a7d"/>
        <path id="Trazado_888153" data-name="Trazado 888153" d="M504.925,156.315s-25.3,83.946-52.893,135.736" transform="translate(-13.006 -4.498)" fill="none" stroke="#525730" stroke-miterlimit="10" stroke-width="1"/>
        <path id="Trazado_888154" data-name="Trazado 888154" d="M467.553,202.572s-11.886,47.312-25.02,90.81" transform="translate(-12.733 -5.829)" fill="none" stroke="#525730" stroke-miterlimit="10" stroke-width="1"/>
        <path id="Trazado_888155" data-name="Trazado 888155" d="M504.251,213.933s-24.293,54.292-41.235,79.776" transform="translate(-13.323 -6.156)" fill="none" stroke="#525730" stroke-miterlimit="10" stroke-width="1"/>
        <line id="Línea_3344" data-name="Línea 3344" x2="129.606" transform="translate(364.539 287.553)" fill="none" stroke="#292e4a" stroke-miterlimit="10" stroke-width="1"/>
        <path id="Trazado_888156" data-name="Trazado 888156" d="M477.315,355.414c0,3.4-7.072,6.148-15.8,6.148s-15.8-2.752-15.8-6.148,7.072-6.148,15.8-6.148,15.8,2.752,15.8,6.148" transform="translate(-12.825 -10.05)" fill="#c3c4c9"/>
        <path id="Trazado_888157" data-name="Trazado 888157" d="M416.265,355.414c0,3.4-7.072,6.148-15.8,6.148s-15.8-2.752-15.8-6.148,7.072-6.148,15.8-6.148,15.8,2.752,15.8,6.148" transform="translate(-11.068 -10.05)" fill="#c3c4c9"/>
        <path id="Trazado_888158" data-name="Trazado 888158" d="M421.287,222.288H410.536a1.13,1.13,0,0,1-1.056-.714l-6.916-17.7a.678.678,0,0,1,.642-.92h10.75a1.131,1.131,0,0,1,1.057.714l6.916,17.7a.678.678,0,0,1-.642.92" transform="translate(-11.582 -5.84)" fill="#cc9b74"/>
        <path id="Trazado_888159" data-name="Trazado 888159" d="M463.369,346.394l3.644,3.91s-5.908,4.834-7.4,5.268-4.362,0-5.908,0,2.374-1.3,3.644-2.607,2.374-6.571,2.374-6.571Z" transform="translate(-13.044 -9.967)" fill="#0354a5"/>
        <path id="Trazado_888160" data-name="Trazado 888160" d="M406.155,346.529s3.228,8.792-.415,8.792h-9.606c-1.574,0-10.435-5.045-9.524-6.034s5.55.212,7.04.141,4.719-.354,6.21-1.626,1.407-1.767,1.407-1.767Z" transform="translate(-11.122 -9.957)" fill="#0354a5"/>
        <path id="Trazado_888161" data-name="Trazado 888161" d="M422.2,256.366s-15.426,50.508-22.879,88.144h8.433s18.894-51,22.787-57.839l1.969,22.81s16,26.231,24.947,35.029h5.962s-16.4-30.142-17.391-41.872a180.576,180.576,0,0,1-.331-26.394c.331-6.68,2.65-15.478-.828-19.877Z" transform="translate(-11.49 -7.376)" fill="#3f4152"/>
        <path id="Trazado_888162" data-name="Trazado 888162" d="M464.4,346.083s-4.951-9.105-9.577-19.254h0c-3.616-3.451-9.137-8.118-13.609-10.4a36.61,36.61,0,0,1-7.722-5.377s16,26.231,24.948,35.029Z" transform="translate(-12.473 -8.95)" fill="#2d2f3b"/>
        <path id="Trazado_888163" data-name="Trazado 888163" d="M398.692,230.971a54.331,54.331,0,0,0-5.135-2.688c-1.767-.706-4.969-2.173-6.349-2.281s-2.484.163-1.656,1.032,3.754,3.2,4.085,3.937-2.484-.136-3.036.353,1.1,1.467,2.264,1.63,3.312-.109,4.747.218,5.079,1.738,5.079,1.738Z" transform="translate(-11.085 -6.502)" fill="#f9c8a2"/>
        <path id="Trazado_888164" data-name="Trazado 888164" d="M430.454,215.63s-6.045,8.69-6.956,10.238-2.525,4.641-3.974,6.843c-.444.673-1.657,2.851-2.65,2.932s-18.964-6.272-18.964-6.272l-1.491,5.377s3.561,1.384,5.88,2.607,7.619,3.747,9.524,4.48,8.944,3.422,10.6,2.28,7.514-10.916,7.514-10.916Z" transform="translate(-11.406 -6.204)" fill="#5aa1c8"/>
        <path id="Trazado_888165" data-name="Trazado 888165" d="M411.63,219.56s-.055-5.377-.607-6.463-2.319-5.92-2.816-5.7.717,3.476,0,3.639-3.975-5.159-4.693-5.1-.166,7.819,1.269,9.422a47.622,47.622,0,0,1,3.313,3.612c.055.325,1.269,3.8,1.269,3.8Z" transform="translate(-11.601 -5.925)" fill="#f9c8a2"/>
        <path id="Trazado_888166" data-name="Trazado 888166" d="M435.865,191.193s-1.723,9.209-1.423,10.9,3.3,1.547,4.269,3.168.75,6.262.75,6.262H447.7s-.674-5.6-.374-7.662,2.246-10.094,0-12.3-10.336-1.621-11.46-.368" transform="translate(-12.499 -5.469)" fill="#f9c8a2"/>
        <path id="Trazado_888167" data-name="Trazado 888167" d="M432.154,190.659c.705,3.468,8.288,2.064,9.687,2.85s1,4.323,1.5,5.207,1.2-1.277,2.4-.491.6,3.34-.8,3.34c1.1,1.671,1.4,3.339,2.3,3.144s2.5-4.208,2.6-7.016-1.2-4.773-.8-6.442-2.6-3.34-5.093-3.34-12.583-1.179-11.784,2.75" transform="translate(-12.433 -5.402)" fill="#995417"/>
        <path id="Trazado_888168" data-name="Trazado 888168" d="M435.839,212.109s-1.1-1.167,1.215-1.6,11.814-.244,12.256.8-1.1,1.806,0,3.653,1.378,9.449.082,16.51-4.167,15.206-3.394,18.139,2.43,7.17-.552,7.17H424.135c-3.313,0-2.982-1.2-2.209-4.236a31.022,31.022,0,0,0,.883-4.344s-2.981,1.629-4.2-.869-11.042-25.96-10.6-26.72,3.091-2.607,3.865-1.955,8.991,14.084,10.379,14.88c.994.571,4.555-3.014,4.555-3.014s2.381-9.438,2.733-11.567c.5-3.015,2.65-6.843,6.294-6.843" transform="translate(-11.739 -6.051)" fill="#92d8fe"/>
        <path id="Trazado_888169" data-name="Trazado 888169" d="M427.37,230.812s3.4-3.585,4.886-4.725a49.53,49.53,0,0,0,5.631-5.132c.911-1.14-.662-.163-1.987.652s-3.73,3.147-4.846,4.017S428,228.3,428,228.3Z" transform="translate(-12.297 -6.343)" fill="#495285"/>
        <path id="Trazado_888170" data-name="Trazado 888170" d="M423.238,248.817s3.755-3.11,4.665-3.958,5.217-4.025,6.791-5.329,5.2-4.724,6.2-5.377,1.913-2.852,2.493-2.2-1.425,3.584-2.493,4.236-7.445,5.7-9.1,7.17-8.922,7.581-8.922,7.581Z" transform="translate(-12.167 -6.671)" fill="#495285"/>
        <path id="Trazado_888171" data-name="Trazado 888171" d="M431.462,287.1s2.237-7.657,4.225-9.613a18.62,18.62,0,0,0,3.974-6.191c1.822,1.792-1.821,4.236-2.981,7.9s-4.77,13.1-4.77,13.1Z" transform="translate(-12.415 -7.806)" fill="#2d2f3b"/>
        <path id="Trazado_888172" data-name="Trazado 888172" d="M518.9,92.059c-10.818,3.895-14.027,7.053-17.987,17.694-3.96-10.641-7.17-13.8-17.988-17.694,10.818-3.9,14.028-7.053,17.988-17.694,3.96,10.641,7.17,13.8,17.987,17.694" transform="translate(-13.895 -2.14)" fill="#ffd817"/>
        <path id="Trazado_888173" data-name="Trazado 888173" d="M66.422,92.059C55.6,95.953,52.395,99.112,48.435,109.753c-3.96-10.641-7.17-13.8-17.988-17.694,10.818-3.9,14.028-7.053,17.988-17.694,3.96,10.641,7.17,13.8,17.987,17.694" transform="translate(-0.876 -2.14)" fill="#ffd817"/>
        <path id="Trazado_888174" data-name="Trazado 888174" d="M508.588,136.3c-4.429,1.595-5.744,2.887-7.365,7.244-1.621-4.357-2.935-5.65-7.365-7.244,4.43-1.595,5.744-2.887,7.365-7.244,1.621,4.357,2.936,5.65,7.365,7.244" transform="translate(-14.21 -3.713)" fill="#ffd817"/>
        <path id="Trazado_888175" data-name="Trazado 888175" d="M169.713,96.88c-4.429,1.595-5.744,2.887-7.365,7.244-1.621-4.357-2.935-5.65-7.365-7.244,4.43-1.595,5.744-2.887,7.365-7.244,1.621,4.357,2.936,5.65,7.365,7.244" transform="translate(-4.459 -2.579)" fill="#ffd817"/>
        <path id="Trazado_888176" data-name="Trazado 888176" d="M82.714,34.638c-4.429,1.595-5.744,2.887-7.365,7.244-1.621-4.357-2.935-5.65-7.365-7.244,4.43-1.595,5.744-2.887,7.365-7.244,1.621,4.357,2.936,5.65,7.365,7.244" transform="translate(-1.956 -0.788)" fill="#ffd817"/>
        <path id="Trazado_888177" data-name="Trazado 888177" d="M174.213,278.749s-12.269-11.733-13.974-25.479-1.7-28.161-13.631-29.5-8.18,21.455-12.61,21.79-6.475-61.686-24.2-62.691-14.143,25.8-11.588,40.229c1.6,9.014,2.023,13.443-3.1,13.443-8.622,0-8.146-24.841-11.213-44.955s-8.861-35.536-31.013-35.536-9.2,30.172-2.044,42.912,16.017,27.825,8.18,29.836S45.39,210.023,32.437,211.364s-18.4,25.144-5.792,37.883-19.767,5.029-18.063,29.5Z" transform="translate(-0.245 -4.49)" fill="#2d9a7d"/>
        <path id="Trazado_888178" data-name="Trazado 888178" d="M58.086,155.528s23.546,75.09,32.358,123.2" transform="translate(-1.671 -4.475)" fill="none" stroke="#525730" stroke-miterlimit="10" stroke-width="0.879"/>
        <path id="Trazado_888179" data-name="Trazado 888179" d="M27.323,215.357a235.5,235.5,0,0,0,47.611,65.1" transform="translate(-0.786 -6.197)" fill="none" stroke="#525730" stroke-miterlimit="10" stroke-width="0.879"/>
        <path id="Trazado_888180" data-name="Trazado 888180" d="M109.188,183.875s10.9,45.436,8.584,95.675" transform="translate(-3.142 -5.291)" fill="none" stroke="#525730" stroke-miterlimit="10" stroke-width="0.879"/>
        <path id="Trazado_888181" data-name="Trazado 888181" d="M152.942,227.057s-1.776,25.12-5.663,53.734" transform="translate(-4.238 -6.533)" fill="none" stroke="#525730" stroke-miterlimit="10" stroke-width="0.879"/>
        <line id="Línea_3345" data-name="Línea 3345" x2="187.947" transform="translate(0 274.339)" fill="none" stroke="#292e4a" stroke-miterlimit="10" stroke-width="0.879"/>
        <path id="Trazado_888182" data-name="Trazado 888182" d="M84.439,355.414c0,3.4-7.072,6.148-15.8,6.148s-15.8-2.752-15.8-6.148,7.072-6.148,15.8-6.148,15.8,2.752,15.8,6.148" transform="translate(-1.521 -10.05)" fill="#c3c4c9"/>
        <path id="Trazado_888183" data-name="Trazado 888183" d="M58.978,355.414c0,3.4-7.072,6.148-15.8,6.148s-15.8-2.752-15.8-6.148,7.071-6.148,15.8-6.148,15.8,2.752,15.8,6.148" transform="translate(-0.788 -10.05)" fill="#c3c4c9"/>
        <path id="Trazado_888184" data-name="Trazado 888184" d="M47.849,209.3,54.5,208.05s5.947,3.446,6.863,9.832,2.366,36.409,2.366,36.409l-14.047-.667Z" transform="translate(-1.377 -5.986)" fill="#fff"/>
        <path id="Trazado_888185" data-name="Trazado 888185" d="M66.867,339.486s.143,5.933,2,8.721,6.505,4.933,6.505,4.933,4.288.643,3.416,1.715-17.949,0-19.548,0,1.017-4.432,1.38-5.789.291-9.579.291-9.579Z" transform="translate(-1.69 -9.768)" fill="#a83e63"/>
        <path id="Trazado_888186" data-name="Trazado 888186" d="M45.143,339.486s-1.8,5.933.051,8.721,6.505,4.933,6.505,4.933,4.287.643,3.415,1.715-17.949,0-19.548,0,1.018-4.432,1.381-5.789,2.237-9.579,2.237-9.579Z" transform="translate(-1.009 -9.768)" fill="#a83e63"/>
        <path id="Trazado_888187" data-name="Trazado 888187" d="M40.675,252.889H67.344s4.55,33.519,3.572,51.437-3.055,34.5-3.055,34.5H58.118l1.55-34.121-3.8-25.163s0,31.835-8.987,59.284H37.649l6.064-36.218Z" transform="translate(-1.083 -7.276)" fill="#3f4152"/>
        <path id="Trazado_888188" data-name="Trazado 888188" d="M56.388,268.9c-1.235,0,0,11.1,0,11.1l3.8,25.162c2.423-10.341-2.567-36.266-3.8-36.266" transform="translate(-1.607 -7.737)" fill="#2d2f3b"/>
        <path id="Trazado_888189" data-name="Trazado 888189" d="M60.016,312.084l-1.293,28.448h9.744s.617-4.929,1.336-12.309Z" transform="translate(-1.69 -8.98)" fill="#2d2f3b"/>
        <path id="Trazado_888190" data-name="Trazado 888190" d="M87.6,226.876a11.244,11.244,0,0,0,1.938-2c.146-.477-.049-1.525,2.083-2.717s3.1-1.239,3.053-.905-2.616,1.239-1.939,1.668,4.264.334,4.6.144,2.422-1.669,2.907-1.1-1.114,2.479-1.647,3.241-4.118,2.716-7.218,2.907-3.44,1.525-3.44,1.525Z" transform="translate(-2.521 -6.361)" fill="#cc9b74"/>
        <path id="Trazado_888191" data-name="Trazado 888191" d="M54.117,208.478a9.273,9.273,0,0,1,4.747,5.528,27.919,27.919,0,0,1,1.841,12.486c-.429,4.061.378,12.39.819,17.251s-.722,12.581,1.313,12.867,4.36.477,5.522-.953,0-10.484,0-10.484S89,229.352,89.192,228.589s-1.163-3.43-2.035-3.24-18.6,9.245-18.6,9.245-.31-7.339-1.367-11.152-4.932-12.269-6.869-13.33a46.079,46.079,0,0,0-6.783-2.4Z" transform="translate(-1.54 -5.977)" fill="#dc5181"/>
        <path id="Trazado_888192" data-name="Trazado 888192" d="M68.8,245.914s8.165-6.261,14.272-11.1c-1.2-2.047-9.909,3.226-11.259,2.8-1.444-.453.066-3.756.862-4.161-2.164,1.1-3.682,1.874-3.682,1.874.17,2.732-.388,8.245-.193,10.58" transform="translate(-1.978 -6.717)" fill="#a83e63"/>
        <path id="Trazado_888193" data-name="Trazado 888193" d="M70.225,235.646l-6.806,1.342a.776.776,0,0,1-.913-.944l4.249-16.482a.89.89,0,0,1,.692-.648l6.806-1.342a.776.776,0,0,1,.913.944L70.917,235a.89.89,0,0,1-.692.648" transform="translate(-1.798 -6.26)" fill="#6470b5"/>
        <path id="Trazado_888194" data-name="Trazado 888194" d="M69.069,221.2c-.132.517-.523.865-.873.779s-.527-.576-.4-1.093.523-.865.873-.779.527.576.4,1.093" transform="translate(-1.95 -6.333)" fill="#292e4a"/>
        <path id="Trazado_888195" data-name="Trazado 888195" d="M55.93,234.45a22.032,22.032,0,0,0,2.664-1.525c.727-.572,3.973-4.432,4.99-4.766s3.246-1.144,3.633,0S64.99,230.024,64.8,230.4s1.308-.05,1.357.284-1.211.523-1.6,1.048-1.793,4.575-4.167,4.528a9.452,9.452,0,0,0-4.457,1.191Z" transform="translate(-1.609 -6.548)" fill="#cc9b74"/>
        <path id="Trazado_888196" data-name="Trazado 888196" d="M63.5,190c.485.929.146,3.646-.485,5.171a21,21,0,0,0-.921,4.479s-1.743.1-2.131.954-1.163,3.24-2.81,3.43a7.944,7.944,0,0,0-2.326.524l-.532,4.718s-3.779,1.1-6.444-1.287a68.822,68.822,0,0,0,1.178-7.824c.082-2.47.905-10.809,5.023-12.238S63.5,190,63.5,190" transform="translate(-1.377 -5.398)" fill="#f9c8a2"/>
        <path id="Trazado_888197" data-name="Trazado 888197" d="M47.34,207.715s4.167,2.955,5.039,6.672,2.325,9.532,1.26,12.868a19.666,19.666,0,0,0-.776,6.766l3.489-1.619.485,4.861-3.2,1.81s-.194,6.2,0,9.817.678,7.435-1.066,8.291-13.468.763-14.728-.761.775-9.532.775-9.532-4.457,2.383-6.975.763-1.357-7.53,0-11.819,4.553-15.441,5.425-19.35,5.426-7.433,10.271-8.768" transform="translate(-0.868 -5.977)" fill="#dc5181"/>
        <path id="Trazado_888198" data-name="Trazado 888198" d="M44.265,221.945s-3.1,13.248-3.294,14.773c-1.938.858-4.167,1.907-2.713,1.811a106.043,106.043,0,0,0,14.824-4.1v-2.338s-7.46,3.386-8.817,2.528-.1-2.758.1-4.381-.1-8.3-.1-8.3" transform="translate(-1.087 -6.386)" fill="#a83e63"/>
        <path id="Trazado_888199" data-name="Trazado 888199" d="M47.8,245.15a10.861,10.861,0,0,0,4.142-4.289l-13.1,6.981s-2.035,8.007-.775,9.532c.35.423,1.521.733,3.048.946-1.159-3.2,3.858-11.6,6.69-13.17" transform="translate(-1.083 -6.93)" fill="#a83e63"/>
        <path id="Trazado_888200" data-name="Trazado 888200" d="M52.176,183.86a6.447,6.447,0,1,0-6.409,6.843,6.773,6.773,0,0,0,1.881-.264c-.171,1.363-.2,2.78-.311,4.166a8.2,8.2,0,0,0,1.427,5.641s2.377-5.331,5.55-5.57c1.238-.092,1.744-3.931,4.069-3.931a15.618,15.618,0,0,0,4.869-1c-2.391-5.248-7.621-6.971-11.076-5.884" transform="translate(-1.131 -5.137)" fill="#292e4a"/>
        <line id="Línea_3346" data-name="Línea 3346" x1="3.223" y2="10.283" transform="translate(181.976 253.333)" fill="none" stroke="#fff" stroke-miterlimit="10" stroke-width="0.972"/>
        <path id="Trazado_888201" data-name="Trazado 888201" d="M243.387,336.5H111.378L95.064,257.159H227.073Z" transform="translate(-2.735 -7.399)" fill="#292e4a"/>
        <path id="Trazado_888202" data-name="Trazado 888202" d="M236.744,329.712H120.016L106.58,264.365H223.308Z" transform="translate(-3.067 -7.607)" fill="#ffe064"/>
        <path id="Trazado_888203" data-name="Trazado 888203" d="M115.278,336.5h-3.9L95.064,257.159h3.9Z" transform="translate(-2.735 -7.399)" fill="#6470b5"/>
        <line id="Línea_3347" data-name="Línea 3347" y1="65.347" x2="20.476" transform="translate(141.251 256.758)" fill="none" stroke="#fff" stroke-miterlimit="10" stroke-width="0.9"/>
        <line id="Línea_3348" data-name="Línea 3348" x1="20.476" y2="65.347" transform="translate(160.471 256.758)" fill="none" stroke="#fff" stroke-miterlimit="10" stroke-width="0.9"/>
        <line id="Línea_3349" data-name="Línea 3349" x1="15.47" y2="49.369" transform="translate(166.49 272.736)" fill="none" stroke="#fff" stroke-miterlimit="10" stroke-width="0.9"/>
        <rect id="Rectángulo_407088" data-name="Rectángulo 407088" width="208.914" height="7.26" transform="translate(108.643 329.104)" fill="#6470b5"/>
        <rect id="Rectángulo_407089" data-name="Rectángulo 407089" width="131.728" height="7.26" transform="translate(185.829 329.104)" fill="#292e4a"/>
        <line id="Línea_3350" data-name="Línea 3350" x2="208.914" transform="translate(108.643 329.104)" fill="none" stroke="#6470b5" stroke-linecap="round" stroke-linejoin="round" stroke-width="0.9"/>
        <path id="Trazado_888204" data-name="Trazado 888204" d="M149.463,330.207h47.948l11.325-13.984,9.637,6.992,31.806-35.434,8.192,7.11,4.1-27.73L236.2,277.352l5.059,4.03-25.3,22.754-18.312-14.222Z" transform="translate(-4.301 -7.687)" fill="#61500b"/>
        <line id="Línea_3351" data-name="Línea 3351" x2="237.851" transform="translate(97.818 336.078)" fill="none" stroke="#292e4a" stroke-miterlimit="10" stroke-width="1"/>
        <path id="Trazado_888205" data-name="Trazado 888205" d="M316.352,278.193a18.188,18.188,0,0,1,4.542,1.727,16.5,16.5,0,0,1,3.485,2.522,12.22,12.22,0,0,1,2.284,2.933,6.77,6.77,0,0,1,.893,2.961,1.158,1.158,0,0,1-.363.851,1.129,1.129,0,0,1-.808.355h-7.3a3,3,0,0,1-1.253-.22,4.083,4.083,0,0,1-.977-.659q-.166-.163-.529-.548a5.093,5.093,0,0,0-1.031-.8,7.152,7.152,0,0,0-1.672-.712,8.654,8.654,0,0,0-2.452-.3,14.634,14.634,0,0,0-2.036.138,7.477,7.477,0,0,0-1.727.437,3.15,3.15,0,0,0-1.227.851,2.024,2.024,0,0,0-.473,1.37,1.887,1.887,0,0,0,.529,1.371,4.83,4.83,0,0,0,1.783,1.014,24.107,24.107,0,0,0,3.316.9q2.063.44,5.128,1.043a29.308,29.308,0,0,1,5.351,1.535,12.771,12.771,0,0,1,3.818,2.33,8.835,8.835,0,0,1,2.286,3.29,12.08,12.08,0,0,1,.752,4.469,9.9,9.9,0,0,1-.892,4.223,10.677,10.677,0,0,1-2.509,3.4,13.864,13.864,0,0,1-3.9,2.468,21.016,21.016,0,0,1-5.017,1.425v3.894a1.411,1.411,0,0,1-.446,1.041,1.456,1.456,0,0,1-1.059.439h-7.3a1.453,1.453,0,0,1-1.059-.439,1.4,1.4,0,0,1-.446-1.041V316.41a19.675,19.675,0,0,1-4.822-1.727,16.777,16.777,0,0,1-3.678-2.55,10.853,10.853,0,0,1-2.369-3.1,8.061,8.061,0,0,1-.893-3.372,1.15,1.15,0,0,1,.362-.85,1.13,1.13,0,0,1,.808-.357h7.3a3.193,3.193,0,0,1,1.227.192,3.578,3.578,0,0,1,.893.577c.147.147.37.384.667.712a7.037,7.037,0,0,0,1.2,1.015,7.552,7.552,0,0,0,1.9.9,8.9,8.9,0,0,0,2.815.384,16.468,16.468,0,0,0,4.933-.63q1.977-.629,1.978-2.276a1.664,1.664,0,0,0-.724-1.37,7.529,7.529,0,0,0-2.176-1.015,33.354,33.354,0,0,0-3.706-.9q-2.257-.439-5.323-1.1-5.741-1.2-8.388-4.03a10.569,10.569,0,0,1-2.647-7.539,9.716,9.716,0,0,1,.724-3.7,10.762,10.762,0,0,1,2.09-3.264,13.226,13.226,0,0,1,3.345-2.576,17.788,17.788,0,0,1,4.487-1.7v-4.057a1.407,1.407,0,0,1,.446-1.042,1.46,1.46,0,0,1,1.059-.438h7.3a1.463,1.463,0,0,1,1.059.438,1.414,1.414,0,0,1,.446,1.042Z" transform="translate(-8.467 -7.844)" fill="#ffe064"/>
      </g>
    </g>
  </g>
</svg>
