<svg xmlns="http://www.w3.org/2000/svg" xmlns:xlink="http://www.w3.org/1999/xlink" width="122" height="122" viewBox="0 0 122 122">
  <defs>
    <clipPath id="clip-path">
      <rect id="Rectángulo_404919" data-name="Rectángulo 404919" width="122" height="122" fill="none"/>
    </clipPath>
    <clipPath id="clip-path-2">
      <rect id="Rectángulo_404925" data-name="Rectángulo 404925" width="60" height="60" transform="translate(-0.121 -0.219)" fill="#fff" stroke="#707070" stroke-width="1"/>
    </clipPath>
    <clipPath id="clip-path-3">
      <rect id="Rectángulo_407107" data-name="Rectángulo 407107" width="54.941" height="55" fill="#fff"/>
    </clipPath>
  </defs>
  <g id="Grupo_1110116" data-name="Grupo 1110116" transform="translate(-179.664 -3667)">
    <g id="Grupo_1110094" data-name="Grupo 1110094" transform="translate(179.664 3667)">
      <g id="Grupo_1110058" data-name="Grupo 1110058" clip-path="url(#clip-path)">
        <path id="Trazado_883529" data-name="Trazado 883529" d="M4.833,30,18.4,105.124c1.993,11.036,12.965,18.438,24.506,16.532a21.661,21.661,0,0,0,9.963-4.4l61.257-48.8A19.672,19.672,0,0,0,116.844,39.9a21.222,21.222,0,0,0-8.966-6.05L33.054,7.521C22.063,3.652,9.874,9.037,5.829,19.546A19.436,19.436,0,0,0,4.833,30" transform="translate(0.242 0.045)" fill="#0354a5"/>
        <path id="Trazado_883530" data-name="Trazado 883530" d="M120.213,86.305h0a20.942,20.942,0,0,1-6.082,8.079,21.885,21.885,0,0,1-9.986,4.527L25.824,113.2C14.063,115.378,2.679,108.03.4,96.785A19.878,19.878,0,0,1,1.23,85.949l26.226-72c.122-.336.254-.673.393-1A21.378,21.378,0,0,1,44.442.284a22.817,22.817,0,0,1,10.636.831,21.614,21.614,0,0,1,9.353,6.1l52.094,57.712a19.905,19.905,0,0,1,3.689,21.382M28.825,13.331c-.132.313-.259.635-.375.955l-26.225,72C-1.53,96.6,4.171,107.867,14.957,111.458a21.593,21.593,0,0,0,10.67.749l78.319-14.284c11.218-2.046,18.578-12.4,16.439-23.126a19.433,19.433,0,0,0-4.659-9.215L63.632,7.869A21.344,21.344,0,0,0,34.464,5.823a19.823,19.823,0,0,0-5.639,7.508" transform="translate(0 0)" fill="#1d6350"/>
      </g>
    </g>
    <g id="Enmascarar_grupo_1108078" data-name="Enmascarar grupo 1108078" transform="translate(208.664 3698)" clip-path="url(#clip-path-2)">
      <g id="Grupo_1114087" data-name="Grupo 1114087" transform="translate(2.879 2.781)">
        <g id="Grupo_1114086" data-name="Grupo 1114086" clip-path="url(#clip-path-3)">
          <path id="Trazado_888360" data-name="Trazado 888360" d="M48.079,31.049l-5.94,6.94L54.105,50.026a2.887,2.887,0,0,1-4.082,4.082L38.178,42.3,29.241,52.654c-.294,1.16.613,2.077-1.124,2.232-4.052.363-8.646-.283-12.757-.012a.971.971,0,0,1-.768-.91,6.8,6.8,0,0,1,.654-4.067c.037-.407-5.143-4.852-5.858-5.512-.275-.094-1.244.389-1.756.424A3.638,3.638,0,0,1,4.363,39.02c.229-.3,1.161-.966,1.18-1.042a18.181,18.181,0,0,0-.591-3.239c-.428-2.1-.974-4.175-1.412-6.269-4.78-.812-4.7-6.9.123-7.519l2.844-11.3C.926,5.656,8.663-.909,11.691,5.212c.886-.034,1.778.025,2.663,0,6.671-.187,13.453-.8,20.124-1.188a17.828,17.828,0,0,0,3.96-.235C40.6-3.448,50.513.763,46.652,7.385a4.7,4.7,0,0,1,3.689,4.284c.051.526.161,2.934-.584,2.934H45.645l.85,2.01a4.522,4.522,0,0,1,4.691,7.136c1.389.6,2.6,1.133,3.269,2.6.543,1.187.743,3.616,0,4.7ZM41.005,6.489c2.422,2.55,6.468-1.15,4.036-3.785C42.567.022,38.477,3.827,41.005,6.489M7.844,4.569a1.856,1.856,0,0,0,.614,3.652,1.852,1.852,0,1,0-.614-3.652M38.57,5.737l-26.4,1.314c-.451.03-.794,1.073-.757,1.422.061.59,4.164,4.379,4.644,5.3.473.1,1.237-.67,1.732-.937,5.705-3.071,11.427-2.29,16.365,1.772,2.119-1.023,1.377-1.82,1.609-3.6C36,9.122,37.674,7.984,39.264,7.293Zm9.928,7.02c.243-2.337-1.008-3.532-3.265-3.7-1.371-.1-5.065-.163-6.2.361-1.377.637-1.55,1.964-1.613,3.338ZM10.907,24.672a15.6,15.6,0,0,1,3.849-9.627c-1.465-1.456-2.744-3.271-4.18-4.726-.952-.965-1.168-.436-2.372-.148L5.434,21.408a4.546,4.546,0,0,1,1.817,2.559ZM23.8,12.807c-15.525,1.2-13.917,24.828,1.793,23.777C41.115,35.546,39.442,11.6,23.8,12.807m13.416,1.837c-.29.074-1.831,1.3-1.79,1.53a14.577,14.577,0,0,1,3.08,9.348l2.346.464a6.068,6.068,0,0,1,3.115-2.236,4.4,4.4,0,0,1-.53-4.729c.276-.582,1.411-1.5,1.349-1.943a14.959,14.959,0,0,0-1.262-2.447c-1.744.208-4.72-.391-6.309.014m9.9,3.69c-4.275.684-1.826,7.267,1.876,5.067a2.754,2.754,0,0,0-1.876-5.067m-43.8,4.523a1.855,1.855,0,0,0,.612,3.657c2.487-.294,1.706-4.095-.612-3.657M53.029,29.2A2.868,2.868,0,0,0,50.6,25.67a41.321,41.321,0,0,0-6.643.086,2.959,2.959,0,0,0-1.84,3.446ZM22.142,38.1a13.419,13.419,0,0,1-10.93-11.136l-.233-.271-3.823-.865a4.017,4.017,0,0,1-1.708,2.029l2.017,9.566c2.873.462,4.072,2.794,3.184,5.53l5.806,5.295,1.836-.593c-2.124-3.161-.2-7.409,3.69-7.384Zm23.335-7.056H40.695c-.8-.435-.21-3.122-.428-3.348l-2.172-.345a12.673,12.673,0,0,1-1.83,4.76l4.43,4.468Zm-10.465,2.7c-.326.418-1.518,1.048-1.124,1.587l17.537,17.54a1.035,1.035,0,0,0,1.444-1.444ZM28.7,50.179l8.218-9.146-4.8-4.766A14.29,14.29,0,0,1,24,38.432l-.139,2.324c2.739,1.088,3.342,4.435,1.823,6.812,1.2.567,2.62,1.229,3.017,2.612M7.172,39.306c-2.312.215-2.224,3.839.293,3.668,2.432-.165,1.954-3.877-.293-3.668m14.093,2.856A2.8,2.8,0,0,0,19.2,45.149a2.736,2.736,0,1,0,2.068-2.986m6.088,10.869c.143-1.464-.072-2.772-1.561-3.389-1.075-.446-5.3-.441-6.579-.3a3.065,3.065,0,0,0-2.768,3.693Z" transform="translate(0 0)" fill="#fff"/>
          <path id="Trazado_888361" data-name="Trazado 888361" d="M98.273,112.644a2.309,2.309,0,0,1-.376-.213c-.956-3.222.6-7,4.318-7-.065-.449-.421-.725-.582-1.178a4.594,4.594,0,1,1,7.967,1.177,4.463,4.463,0,0,1,4.538,4.106c.046.509.143,3.112-.427,3.112Zm7.087-12.715c-3.238.582-2.619,5.735.781,5.492,3.653-.261,3.1-6.19-.781-5.492m6.926,10.869a2.868,2.868,0,0,0-2.425-3.532,57.032,57.032,0,0,0-8.488.087c-1.371.358-2.088,2.132-1.841,3.445Z" transform="translate(-81.24 -81.595)" fill="#fff"/>
        </g>
      </g>
    </g>
  </g>
</svg>
